<?xml version="1.0" encoding="utf-8" standalone="no"?>
<!DOCTYPE svg PUBLIC "-//W3C//DTD SVG 1.1//EN"
  "http://www.w3.org/Graphics/SVG/1.1/DTD/svg11.dtd">
<svg xmlns:xlink="http://www.w3.org/1999/xlink" width="460.8pt" height="345.6pt" viewBox="0 0 460.8 345.6" xmlns="http://www.w3.org/2000/svg" version="1.1">
 <metadata>
  <rdf:RDF xmlns:dc="http://purl.org/dc/elements/1.1/" xmlns:cc="http://creativecommons.org/ns#" xmlns:rdf="http://www.w3.org/1999/02/22-rdf-syntax-ns#">
   <cc:Work>
    <dc:type rdf:resource="http://purl.org/dc/dcmitype/StillImage"/>
    <dc:date>2024-03-21T00:37:28.253755</dc:date>
    <dc:format>image/svg+xml</dc:format>
    <dc:creator>
     <cc:Agent>
      <dc:title>Matplotlib v3.8.2, https://matplotlib.org/</dc:title>
     </cc:Agent>
    </dc:creator>
   </cc:Work>
  </rdf:RDF>
 </metadata>
 <defs>
  <style type="text/css">*{stroke-linejoin: round; stroke-linecap: butt}</style>
 </defs>
 <g id="figure_1">
  <g id="patch_1">
   <path d="M 0 345.6 
L 460.8 345.6 
L 460.8 0 
L 0 0 
z
" style="fill: #ffffff"/>
  </g>
  <g id="axes_1">
   <g id="patch_2">
    <path d="M 57.6 307.584 
L 414.72 307.584 
L 414.72 41.472 
L 57.6 41.472 
z
" style="fill: #ffffff"/>
   </g>
   <g id="line2d_1">
    <path d="M 73.832727 181.587102 
L 77.480531 169.862706 
L 81.128335 163.717409 
L 84.776139 159.401904 
L 88.423943 155.365096 
L 92.071747 151.386026 
L 95.719551 147.350885 
L 99.367354 143.286988 
L 103.015158 139.18191 
L 106.662962 135.090349 
L 110.310766 130.924299 
L 113.95857 126.815972 
L 117.606374 122.684281 
L 121.254178 118.565196 
L 124.901982 114.472893 
L 128.549785 110.41338 
L 132.197589 106.359148 
L 135.845393 102.367163 
L 139.493197 98.392995 
L 143.141001 94.453004 
L 146.788805 90.550467 
L 150.436609 86.67722 
L 154.084413 82.851652 
L 157.732217 79.075319 
L 161.38002 75.316159 
L 165.027824 71.633575 
L 168.675628 67.939239 
L 172.323432 64.327936 
L 175.971236 60.727769 
L 179.61904 57.195256 
L 183.266844 57.067961 
L 186.914648 56.993107 
L 190.562451 56.936155 
L 194.210255 56.886598 
L 197.858059 56.83959 
L 201.505863 56.793703 
L 205.153667 56.747032 
L 208.801471 56.700136 
L 212.449275 56.653045 
L 216.097079 56.605673 
L 219.744883 56.557601 
L 223.392686 56.508885 
L 227.04049 56.459496 
L 230.688294 56.409435 
L 234.336098 56.358729 
L 237.983902 56.307352 
L 241.631706 56.255442 
L 245.27951 56.202943 
L 248.927314 56.149969 
L 252.575117 56.096434 
L 256.222921 56.042479 
L 259.870725 55.988048 
L 263.518529 55.933224 
L 267.166333 55.877925 
L 270.814137 55.822289 
L 274.461941 55.766233 
L 278.109745 55.709841 
L 281.757549 55.653224 
L 285.405352 55.596272 
L 289.053156 55.538955 
L 292.70096 55.532792 
L 296.348764 55.526657 
L 299.996568 55.520606 
L 303.644372 55.514611 
L 307.292176 55.508672 
L 310.93998 55.502733 
L 314.587783 55.49685 
L 318.235587 55.491023 
L 321.883391 55.485196 
L 325.531195 55.479425 
L 329.178999 55.473626 
L 332.826803 55.467883 
L 336.474607 55.462169 
L 340.122411 55.456482 
L 343.770215 55.450823 
L 347.418018 55.445136 
L 351.065822 55.439477 
L 354.713626 55.433874 
L 358.36143 55.428216 
L 362.009234 55.422585 
L 365.657038 55.417038 
L 369.304842 55.411435 
L 372.952646 55.40586 
L 376.600449 55.400286 
L 380.248253 55.394739 
L 383.896057 55.389192 
L 387.543861 55.383589 
L 391.191665 55.37807 
L 394.839469 55.372524 
L 398.487273 55.366977 
" clip-path="url(#p6a16b5b2aa)" style="fill: none; stroke: #1f77b4; stroke-width: 1.5; stroke-linecap: square"/>
   </g>
   <g id="line2d_2">
    <path d="M 73.832727 181.850504 
L 77.480531 170.525084 
L 81.128335 164.816609 
L 84.776139 160.959722 
L 88.423943 157.379557 
L 92.071747 153.859398 
L 95.719551 150.271852 
L 99.367354 146.661348 
L 103.015158 143.012423 
L 106.662962 139.374619 
L 110.310766 135.663446 
L 113.95857 132.011958 
L 117.606374 128.338044 
L 121.254178 124.675924 
L 124.901982 121.046903 
L 128.549785 117.455757 
L 132.197589 113.869933 
L 135.845393 110.353388 
L 139.493197 106.863933 
L 143.141001 103.410727 
L 146.788805 100.003689 
L 150.436609 96.62311 
L 154.084413 93.301305 
L 157.732217 90.041144 
L 161.38002 86.794851 
L 165.027824 83.630148 
L 168.675628 80.458078 
L 172.323432 77.376647 
L 175.971236 74.300272 
L 179.61904 71.321708 
L 183.266844 71.300488 
L 186.914648 71.340828 
L 190.562451 71.398789 
L 194.210255 71.46493 
L 197.858059 71.534461 
L 201.505863 71.604454 
L 205.153667 71.673719 
L 208.801471 71.742045 
L 212.449275 71.809615 
L 216.097079 71.876666 
L 219.744883 71.942807 
L 223.392686 72.007912 
L 227.04049 72.072022 
L 230.688294 72.13504 
L 234.336098 72.196797 
L 237.983902 72.257503 
L 241.631706 72.317299 
L 245.27951 72.376353 
L 248.927314 72.434678 
L 252.575117 72.492219 
L 256.222921 72.549087 
L 259.870725 72.605269 
L 263.518529 72.660737 
L 267.166333 72.715658 
L 270.814137 72.770076 
L 274.461941 72.824059 
L 278.109745 72.87751 
L 281.757549 72.930554 
L 285.405352 72.98329 
L 289.053156 73.035621 
L 292.70096 73.031825 
L 296.348764 73.028085 
L 299.996568 73.024415 
L 303.644372 73.020815 
L 307.292176 73.017229 
L 310.93998 73.013728 
L 314.587783 73.010268 
L 318.235587 73.006822 
L 321.883391 73.003447 
L 325.531195 73.000071 
L 329.178999 72.996751 
L 332.826803 72.993446 
L 336.474607 72.990168 
L 340.122411 72.986918 
L 343.770215 72.983697 
L 347.418018 72.980461 
L 351.065822 72.977253 
L 354.713626 72.974088 
L 358.36143 72.970908 
L 362.009234 72.967743 
L 365.657038 72.964605 
L 369.304842 72.961454 
L 372.952646 72.95833 
L 376.600449 72.955206 
L 380.248253 72.952083 
L 383.896057 72.948987 
L 387.543861 72.945878 
L 391.191665 72.942782 
L 394.839469 72.939687 
L 398.487273 72.936619 
" clip-path="url(#p6a16b5b2aa)" style="fill: none; stroke: #ff7f0e; stroke-width: 1.5; stroke-linecap: square"/>
   </g>
   <g id="line2d_3">
    <path d="M 73.832727 182.403697 
L 77.480531 172.020151 
L 81.128335 167.320825 
L 84.776139 164.498748 
L 88.423943 161.951741 
L 92.071747 159.439919 
L 95.719551 156.8174 
L 99.367354 154.160101 
L 103.015158 151.43746 
L 106.662962 148.721387 
L 110.310766 145.892167 
L 113.95857 143.115752 
L 117.606374 140.293969 
L 121.254178 137.484863 
L 124.901982 134.687788 
L 128.549785 131.934975 
L 132.197589 129.17282 
L 135.845393 126.48465 
L 139.493197 123.806635 
L 143.141001 121.173751 
L 146.788805 118.575674 
L 150.436609 116.02868 
L 154.084413 113.529451 
L 157.732217 111.098197 
L 161.38002 108.715744 
L 165.027824 106.378015 
L 168.675628 104.086188 
L 172.323432 101.877884 
L 175.971236 99.67437 
L 179.61904 97.544632 
L 183.266844 97.725631 
L 186.914648 97.994369 
L 190.562451 98.28332 
L 194.210255 98.57898 
L 197.858059 98.876223 
L 201.505863 99.172919 
L 205.153667 99.467795 
L 208.801471 99.760177 
L 212.449275 100.050123 
L 216.097079 100.337238 
L 219.744883 100.622141 
L 223.392686 100.904831 
L 227.04049 101.185069 
L 230.688294 101.463206 
L 234.336098 101.739256 
L 237.983902 102.01322 
L 241.631706 102.285236 
L 245.27951 102.555417 
L 248.927314 102.823792 
L 252.575117 103.090485 
L 256.222921 103.355876 
L 259.870725 103.619852 
L 263.518529 103.882596 
L 267.166333 104.144163 
L 270.814137 104.404441 
L 274.461941 104.663557 
L 278.109745 104.92151 
L 281.757549 105.178427 
L 285.405352 105.434335 
L 289.053156 105.689136 
L 292.70096 105.695019 
L 296.348764 105.700972 
L 299.996568 105.707023 
L 303.644372 105.713144 
L 307.292176 105.719308 
L 310.93998 105.725569 
L 314.587783 105.731858 
L 318.235587 105.738189 
L 321.883391 105.744604 
L 325.531195 105.750991 
L 329.178999 105.757449 
L 332.826803 105.763934 
L 336.474607 105.770461 
L 340.122411 105.776988 
L 343.770215 105.783544 
L 347.418018 105.790127 
L 351.065822 105.796724 
L 354.713626 105.803336 
L 358.36143 105.809961 
L 362.009234 105.8166 
L 365.657038 105.82324 
L 369.304842 105.829907 
L 372.952646 105.836588 
L 376.600449 105.843242 
L 380.248253 105.849923 
L 383.896057 105.856604 
L 387.543861 105.863286 
L 391.191665 105.869981 
L 394.839469 105.876662 
L 398.487273 105.883358 
" clip-path="url(#p6a16b5b2aa)" style="fill: none; stroke: #2ca02c; stroke-width: 1.5; stroke-linecap: square"/>
   </g>
   <g id="line2d_4">
    <path d="M 73.832727 184.213649 
L 77.480531 176.641821 
L 81.128335 174.816861 
L 84.776139 174.809788 
L 88.423943 174.873898 
L 92.071747 174.740523 
L 95.719551 174.245039 
L 99.367354 173.532124 
L 103.015158 172.383591 
L 106.662962 171.16928 
L 110.310766 169.715184 
L 113.95857 168.145208 
L 117.606374 166.439126 
L 121.254178 164.789898 
L 124.901982 163.069654 
L 128.549785 161.495196 
L 132.197589 159.8264 
L 135.845393 158.272672 
L 139.493197 156.691617 
L 143.141001 155.204464 
L 146.788805 153.64229 
L 150.436609 152.175335 
L 154.084413 150.697945 
L 157.732217 149.386244 
L 161.38002 148.085973 
L 165.027824 146.926094 
L 168.675628 145.759968 
L 172.323432 144.732792 
L 175.971236 143.672797 
L 179.61904 142.699184 
L 183.266844 143.365301 
L 186.914648 144.184824 
L 190.562451 145.019221 
L 194.210255 145.850524 
L 197.858059 146.672217 
L 201.505863 147.481991 
L 205.153667 148.279914 
L 208.801471 149.066548 
L 212.449275 149.842257 
L 216.097079 150.606788 
L 219.744883 151.361079 
L 223.392686 152.10635 
L 227.04049 152.842587 
L 230.688294 153.570322 
L 234.336098 154.289988 
L 237.983902 155.001852 
L 241.631706 155.706307 
L 245.27951 156.403871 
L 248.927314 157.09471 
L 252.575117 157.779219 
L 256.222921 158.457411 
L 259.870725 159.129509 
L 263.518529 159.795753 
L 267.166333 160.456282 
L 270.814137 161.111502 
L 274.461941 161.761343 
L 278.109745 162.405904 
L 281.757549 163.04538 
L 285.405352 163.680024 
L 289.053156 164.309822 
L 292.70096 164.369758 
L 296.348764 164.42989 
L 299.996568 164.49019 
L 303.644372 164.55063 
L 307.292176 164.61121 
L 310.93998 164.671875 
L 314.587783 164.732637 
L 318.235587 164.793442 
L 321.883391 164.854302 
L 325.531195 164.915219 
L 329.178999 164.976149 
L 332.826803 165.037094 
L 336.474607 165.098038 
L 340.122411 165.159025 
L 343.770215 165.219983 
L 347.418018 165.280928 
L 351.065822 165.3419 
L 354.713626 165.402845 
L 358.36143 165.463789 
L 362.009234 165.524706 
L 365.657038 165.58558 
L 369.304842 165.646455 
L 372.952646 165.707301 
L 376.600449 165.768134 
L 380.248253 165.828952 
L 383.896057 165.889729 
L 387.543861 165.950477 
L 391.191665 166.011198 
L 394.839469 166.07189 
L 398.487273 166.132568 
" clip-path="url(#p6a16b5b2aa)" style="fill: none; stroke: #d62728; stroke-width: 1.5; stroke-linecap: square"/>
   </g>
   <g id="line2d_5">
    <path d="M 73.832727 189.607197 
L 77.480531 189.440912 
L 81.128335 193.962531 
L 84.776139 198.805148 
L 88.423943 202.076703 
L 92.071747 203.778639 
L 95.719551 203.615695 
L 99.367354 202.630029 
L 103.015158 200.976676 
L 106.662962 199.746748 
L 110.310766 198.574683 
L 113.95857 197.696401 
L 117.606374 196.634474 
L 121.254178 195.8369 
L 124.901982 194.962001 
L 128.549785 194.36699 
L 132.197589 193.814315 
L 135.845393 193.455533 
L 139.493197 192.970834 
L 143.141001 192.859639 
L 146.788805 192.453352 
L 150.436609 192.100543 
L 154.084413 191.819611 
L 157.732217 191.94662 
L 161.38002 191.940254 
L 165.027824 191.882076 
L 168.675628 191.539086 
L 172.323432 191.271335 
L 175.971236 191.015049 
L 179.61904 191.211679 
L 183.266844 192.977361 
L 186.914648 194.988418 
L 190.562451 196.944729 
L 194.210255 198.824841 
L 197.858059 200.635612 
L 201.505863 202.380844 
L 205.153667 204.07002 
L 208.801471 205.705899 
L 212.449275 207.295289 
L 216.097079 208.838855 
L 219.744883 210.341675 
L 223.392686 211.802648 
L 227.04049 213.22768 
L 230.688294 214.615579 
L 234.336098 215.970715 
L 237.983902 217.291976 
L 241.631706 218.583591 
L 245.27951 219.84397 
L 248.927314 221.076867 
L 252.575117 222.280469 
L 256.222921 223.458053 
L 259.870725 224.607833 
L 263.518529 225.733471 
L 267.166333 226.833113 
L 270.814137 227.909727 
L 274.461941 228.961535 
L 278.109745 229.991597 
L 281.757549 230.997924 
L 285.405352 231.98352 
L 289.053156 232.94639 
L 292.70096 233.041225 
L 296.348764 233.136634 
L 299.996568 233.23254 
L 303.644372 233.328712 
L 307.292176 233.425122 
L 310.93998 233.521672 
L 314.587783 233.6183 
L 318.235587 233.714955 
L 321.883391 233.811597 
L 325.531195 233.908189 
L 329.178999 234.004732 
L 332.826803 234.101192 
L 336.474607 234.19756 
L 340.122411 234.293809 
L 343.770215 234.389925 
L 347.418018 234.485929 
L 351.065822 234.581793 
L 354.713626 234.677524 
L 358.36143 234.773101 
L 362.009234 234.868524 
L 365.657038 234.963792 
L 369.304842 235.058914 
L 372.952646 235.153875 
L 376.600449 235.248667 
L 380.248253 235.343299 
L 383.896057 235.437762 
L 387.543861 235.532057 
L 391.191665 235.626184 
L 394.839469 235.720129 
L 398.487273 235.813899 
" clip-path="url(#p6a16b5b2aa)" style="fill: none; stroke: #9467bd; stroke-width: 1.5; stroke-linecap: square"/>
   </g>
   <g id="line2d_6">
    <path d="M 73.832727 204.506885 
L 77.480531 216.096036 
L 81.128335 223.361699 
L 84.776139 224.087108 
L 88.423943 221.702063 
L 92.071747 220.423377 
L 95.719551 220.006402 
L 99.367354 220.373253 
L 103.015158 219.928944 
L 106.662962 219.864273 
L 110.310766 219.442137 
L 113.95857 219.377116 
L 117.606374 219.637177 
L 121.254178 219.822567 
L 124.901982 219.739128 
L 128.549785 219.562562 
L 132.197589 219.610396 
L 135.845393 219.430469 
L 139.493197 219.660814 
L 143.141001 219.579251 
L 146.788805 219.257251 
L 150.436609 219.614157 
L 154.084413 219.733315 
L 157.732217 219.613513 
L 161.38002 219.647326 
L 165.027824 219.645995 
L 168.675628 219.525065 
L 172.323432 219.544773 
L 175.971236 219.627169 
L 179.61904 219.558927 
L 183.266844 223.807423 
L 186.914648 228.153379 
L 190.562451 232.140076 
L 194.210255 235.803352 
L 197.858059 239.183332 
L 201.505863 242.324401 
L 205.153667 245.250778 
L 208.801471 247.987276 
L 212.449275 250.544642 
L 216.097079 252.940282 
L 219.744883 255.18318 
L 223.392686 257.28418 
L 227.04049 259.25205 
L 230.688294 261.092946 
L 234.336098 262.81444 
L 237.983902 264.419717 
L 241.631706 265.915449 
L 245.27951 267.301362 
L 248.927314 268.581719 
L 252.575117 269.754416 
L 256.222921 270.824155 
L 259.870725 271.788067 
L 263.518529 272.6504 
L 267.166333 273.411802 
L 270.814137 274.08015 
L 274.461941 274.657869 
L 278.109745 275.153246 
L 281.757549 275.572552 
L 285.405352 275.927826 
L 289.053156 276.225228 
L 292.70096 276.300363 
L 296.348764 276.373222 
L 299.996568 276.445661 
L 303.644372 276.517764 
L 307.292176 276.589405 
L 310.93998 276.660424 
L 314.587783 276.730713 
L 318.235587 276.800193 
L 321.883391 276.868805 
L 325.531195 276.93652 
L 329.178999 277.003312 
L 332.826803 277.069184 
L 336.474607 277.134122 
L 340.122411 277.19813 
L 343.770215 277.261201 
L 347.418018 277.323329 
L 351.065822 277.384531 
L 354.713626 277.444852 
L 358.36143 277.504301 
L 362.009234 277.562898 
L 365.657038 277.620621 
L 369.304842 277.677503 
L 372.952646 277.73355 
L 376.600449 277.78878 
L 380.248253 277.843206 
L 383.896057 277.896837 
L 387.543861 277.949684 
L 391.191665 278.001762 
L 394.839469 278.05307 
L 398.487273 278.103616 
" clip-path="url(#p6a16b5b2aa)" style="fill: none; stroke: #8c564b; stroke-width: 1.5; stroke-linecap: square"/>
   </g>
   <g id="line2d_7">
    <path d="M 73.832727 235.748493 
L 77.480531 239.980541 
L 81.128335 239.153178 
L 84.776139 239.18676 
L 88.423943 239.268862 
L 92.071747 239.145478 
L 95.719551 239.243863 
L 99.367354 239.181665 
L 103.015158 239.217246 
L 106.662962 239.203646 
L 110.310766 239.203204 
L 113.95857 239.211255 
L 117.606374 239.204027 
L 121.254178 239.209466 
L 124.901982 239.205978 
L 128.549785 239.20769 
L 132.197589 239.207914 
L 135.845393 239.205862 
L 139.493197 239.20929 
L 143.141001 239.205008 
L 146.788805 239.209718 
L 150.436609 239.205004 
L 154.084413 239.209375 
L 157.732217 239.205425 
L 161.38002 239.208744 
L 165.027824 239.205817 
L 168.675628 239.208349 
L 172.323432 239.205929 
L 175.971236 239.208433 
L 179.61904 239.205701 
L 183.266844 247.544227 
L 186.914648 254.982386 
L 190.562451 261.265775 
L 194.210255 266.544781 
L 197.858059 270.951594 
L 201.505863 274.596461 
L 205.153667 277.558239 
L 208.801471 279.88722 
L 212.449275 281.589818 
L 216.097079 282.71094 
L 219.744883 283.363033 
L 223.392686 283.70921 
L 227.04049 283.881515 
L 230.688294 283.967695 
L 234.336098 284.007254 
L 237.983902 284.028172 
L 241.631706 284.037247 
L 245.27951 284.043103 
L 248.927314 284.042372 
L 252.575117 284.040812 
L 256.222921 284.034703 
L 259.870725 284.0304 
L 263.518529 284.02377 
L 267.166333 284.020475 
L 270.814137 284.015305 
L 274.461941 284.013382 
L 278.109745 284.008843 
L 281.757549 284.007014 
L 285.405352 284.002663 
L 289.053156 284.001631 
L 292.70096 284.185375 
L 296.348764 284.343698 
L 299.996568 284.492255 
L 303.644372 284.63267 
L 307.292176 284.76553 
L 310.93998 284.89106 
L 314.587783 285.009347 
L 318.235587 285.120621 
L 321.883391 285.225148 
L 325.531195 285.323185 
L 329.178999 285.415014 
L 332.826803 285.500967 
L 336.474607 285.581336 
L 340.122411 285.656447 
L 343.770215 285.726615 
L 347.418018 285.792153 
L 351.065822 285.853335 
L 354.713626 285.910451 
L 358.36143 285.963786 
L 362.009234 286.013603 
L 365.657038 286.060152 
L 369.304842 286.103668 
L 372.952646 286.144375 
L 376.600449 286.182495 
L 380.248253 286.218199 
L 383.896057 286.251654 
L 387.543861 286.283022 
L 391.191665 286.312453 
L 394.839469 286.340089 
L 398.487273 286.366062 
" clip-path="url(#p6a16b5b2aa)" style="fill: none; stroke: #e377c2; stroke-width: 1.5; stroke-linecap: square"/>
   </g>
   <g id="line2d_8">
    <path d="M 73.832727 271.978693 
L 77.480531 272.030957 
L 81.128335 272.030419 
L 84.776139 272.030421 
L 88.423943 272.030418 
L 92.071747 272.030419 
L 95.719551 272.030419 
L 99.367354 272.030418 
L 103.015158 272.030418 
L 106.662962 272.030419 
L 110.310766 272.030419 
L 113.95857 272.030419 
L 117.606374 272.030418 
L 121.254178 272.030418 
L 124.901982 272.030419 
L 128.549785 272.030419 
L 132.197589 272.030419 
L 135.845393 272.030419 
L 139.493197 272.030419 
L 143.141001 272.030419 
L 146.788805 272.030421 
L 150.436609 272.030419 
L 154.084413 272.030419 
L 157.732217 272.030418 
L 161.38002 272.030419 
L 165.027824 272.030421 
L 168.675628 272.030419 
L 172.323432 272.030419 
L 175.971236 272.030419 
L 179.61904 272.030419 
L 183.266844 278.036662 
L 186.914648 284.316551 
L 190.562451 286.400955 
L 194.210255 286.891291 
L 197.858059 286.870731 
L 201.505863 286.878919 
L 205.153667 286.857415 
L 208.801471 286.870269 
L 212.449275 286.85607 
L 216.097079 286.862953 
L 219.744883 286.853428 
L 223.392686 286.863264 
L 227.04049 286.859919 
L 230.688294 286.865216 
L 234.336098 286.859518 
L 237.983902 286.860289 
L 241.631706 286.854473 
L 245.27951 286.859841 
L 248.927314 286.858531 
L 252.575117 286.863536 
L 256.222921 286.8596 
L 259.870725 286.86261 
L 263.518529 286.857466 
L 267.166333 286.861144 
L 270.814137 286.855224 
L 274.461941 286.861178 
L 278.109745 286.85755 
L 281.757549 286.862755 
L 285.405352 286.859592 
L 289.053156 286.863507 
L 292.70096 287.335979 
L 296.348764 287.690898 
L 299.996568 287.989814 
L 303.644372 288.24387 
L 307.292176 288.457369 
L 310.93998 288.633922 
L 314.587783 288.77733 
L 318.235587 288.892173 
L 321.883391 288.98294 
L 325.531195 289.053871 
L 329.178999 289.10889 
L 332.826803 289.151278 
L 336.474607 289.183597 
L 340.122411 289.208126 
L 343.770215 289.226561 
L 347.418018 289.240274 
L 351.065822 289.250316 
L 354.713626 289.257542 
L 358.36143 289.26255 
L 362.009234 289.265814 
L 365.657038 289.267743 
L 369.304842 289.268664 
L 372.952646 289.268808 
L 376.600449 289.268341 
L 380.248253 289.267419 
L 383.896057 289.266144 
L 387.543861 289.264619 
L 391.191665 289.262927 
L 394.839469 289.261124 
L 398.487273 289.259236 
" clip-path="url(#p6a16b5b2aa)" style="fill: none; stroke: #7f7f7f; stroke-width: 1.5; stroke-linecap: square"/>
   </g>
   <g id="line2d_9">
    <path d="M 73.832727 290.255896 
L 77.480531 290.255896 
L 81.128335 290.255896 
L 84.776139 290.255896 
L 88.423943 290.255896 
L 92.071747 290.255896 
L 95.719551 290.255896 
L 99.367354 290.255896 
L 103.015158 290.255896 
L 106.662962 290.255896 
L 110.310766 290.255896 
L 113.95857 290.255896 
L 117.606374 290.255896 
L 121.254178 290.255896 
L 124.901982 290.255896 
L 128.549785 290.255896 
L 132.197589 290.255896 
L 135.845393 290.255896 
L 139.493197 290.255896 
L 143.141001 290.255896 
L 146.788805 290.255896 
L 150.436609 290.255896 
L 154.084413 290.255896 
L 157.732217 290.255896 
L 161.38002 290.255896 
L 165.027824 290.255896 
L 168.675628 290.255896 
L 172.323432 290.255896 
L 175.971236 290.255896 
L 179.61904 290.255896 
L 183.266844 290.601665 
L 186.914648 290.301855 
L 190.562451 290.272057 
L 194.210255 290.269528 
L 197.858059 290.269415 
L 201.505863 290.269436 
L 205.153667 290.269414 
L 208.801471 290.269428 
L 212.449275 290.269419 
L 216.097079 290.269425 
L 219.744883 290.269422 
L 223.392686 290.269423 
L 227.04049 290.269422 
L 230.688294 290.269423 
L 234.336098 290.269422 
L 237.983902 290.269423 
L 241.631706 290.269422 
L 245.27951 290.269423 
L 248.927314 290.269422 
L 252.575117 290.269422 
L 256.222921 290.269422 
L 259.870725 290.269423 
L 263.518529 290.269422 
L 267.166333 290.269422 
L 270.814137 290.269422 
L 274.461941 290.269422 
L 278.109745 290.269422 
L 281.757549 290.269422 
L 285.405352 290.269422 
L 289.053156 290.269422 
L 292.70096 290.873422 
L 296.348764 291.070661 
L 299.996568 291.173681 
L 303.644372 291.226734 
L 307.292176 291.248056 
L 310.93998 291.250441 
L 314.587783 291.242709 
L 318.235587 291.230446 
L 321.883391 291.216661 
L 325.531195 291.203099 
L 329.178999 291.190542 
L 332.826803 291.17933 
L 336.474607 291.16956 
L 340.122411 291.161163 
L 343.770215 291.154015 
L 347.418018 291.147982 
L 351.065822 291.142908 
L 354.713626 291.138662 
L 358.36143 291.13513 
L 362.009234 291.132196 
L 365.657038 291.129767 
L 369.304842 291.127764 
L 372.952646 291.126116 
L 376.600449 291.124757 
L 380.248253 291.123637 
L 383.896057 291.122718 
L 387.543861 291.121965 
L 391.191665 291.121348 
L 394.839469 291.120842 
L 398.487273 291.120427 
" clip-path="url(#p6a16b5b2aa)" style="fill: none; stroke: #bcbd22; stroke-width: 1.5; stroke-linecap: square"/>
   </g>
   <g id="line2d_10">
    <path d="M 73.832727 295.488 
L 77.480531 295.488 
L 81.128335 295.488 
L 84.776139 295.488 
L 88.423943 295.488 
L 92.071747 295.488 
L 95.719551 295.488 
L 99.367354 295.488 
L 103.015158 295.488 
L 106.662962 295.488 
L 110.310766 295.488 
L 113.95857 295.488 
L 117.606374 295.488 
L 121.254178 295.488 
L 124.901982 295.488 
L 128.549785 295.488 
L 132.197589 295.488 
L 135.845393 295.488 
L 139.493197 295.488 
L 143.141001 295.488 
L 146.788805 295.488 
L 150.436609 295.488 
L 154.084413 295.488 
L 157.732217 295.488 
L 161.38002 295.488 
L 165.027824 295.488 
L 168.675628 295.488 
L 172.323432 295.488 
L 175.971236 295.488 
L 179.61904 295.488 
L 183.266844 294.349242 
L 186.914648 294.342757 
L 190.562451 294.342732 
L 194.210255 294.342732 
L 197.858059 294.342732 
L 201.505863 294.342732 
L 205.153667 294.342732 
L 208.801471 294.342732 
L 212.449275 294.342732 
L 216.097079 294.342732 
L 219.744883 294.342732 
L 223.392686 294.342732 
L 227.04049 294.342732 
L 230.688294 294.342732 
L 234.336098 294.342732 
L 237.983902 294.342732 
L 241.631706 294.342732 
L 245.27951 294.342732 
L 248.927314 294.342732 
L 252.575117 294.342732 
L 256.222921 294.342732 
L 259.870725 294.342732 
L 263.518529 294.342732 
L 267.166333 294.342732 
L 270.814137 294.342732 
L 274.461941 294.342732 
L 278.109745 294.342732 
L 281.757549 294.342732 
L 285.405352 294.342732 
L 289.053156 294.342732 
L 292.70096 294.496549 
L 296.348764 294.300455 
L 299.996568 294.162826 
L 303.644372 294.077639 
L 307.292176 294.026973 
L 310.93998 293.997616 
L 314.587783 293.980915 
L 318.235587 293.971529 
L 321.883391 293.966289 
L 325.531195 293.963367 
L 329.178999 293.961741 
L 332.826803 293.960837 
L 336.474607 293.960333 
L 340.122411 293.960052 
L 343.770215 293.959894 
L 347.418018 293.959806 
L 351.065822 293.959756 
L 354.713626 293.959728 
L 358.36143 293.959712 
L 362.009234 293.959703 
L 365.657038 293.959699 
L 369.304842 293.959696 
L 372.952646 293.959694 
L 376.600449 293.959693 
L 380.248253 293.959692 
L 383.896057 293.959692 
L 387.543861 293.959692 
L 391.191665 293.959692 
L 394.839469 293.959692 
L 398.487273 293.959692 
" clip-path="url(#p6a16b5b2aa)" style="fill: none; stroke: #17becf; stroke-width: 1.5; stroke-linecap: square"/>
   </g>
   <g id="matplotlib.axis_1">
    <g id="xtick_1">
     <g id="line2d_11">
      <defs>
       <path id="m9289086be6" d="M 0 0 
L 0 3.5 
" style="stroke: #000000; stroke-width: 0.8"/>
      </defs>
      <g>
       <use xlink:href="#m9289086be6" x="73.832727" y="307.584" style="stroke: #000000; stroke-width: 0.8"/>
      </g>
     </g>
     <g id="text_1">
      <!-- 0 -->
      <g transform="translate(70.651477 322.182437) scale(0.1 -0.1)">
       <defs>
        <path id="DejaVuSans-30" d="M 2034 4250 
Q 1547 4250 1301 3770 
Q 1056 3291 1056 2328 
Q 1056 1369 1301 889 
Q 1547 409 2034 409 
Q 2525 409 2770 889 
Q 3016 1369 3016 2328 
Q 3016 3291 2770 3770 
Q 2525 4250 2034 4250 
z
M 2034 4750 
Q 2819 4750 3233 4129 
Q 3647 3509 3647 2328 
Q 3647 1150 3233 529 
Q 2819 -91 2034 -91 
Q 1250 -91 836 529 
Q 422 1150 422 2328 
Q 422 3509 836 4129 
Q 1250 4750 2034 4750 
z
" transform="scale(0.015625)"/>
       </defs>
       <use xlink:href="#DejaVuSans-30"/>
      </g>
     </g>
    </g>
    <g id="xtick_2">
     <g id="line2d_12">
      <g>
       <use xlink:href="#m9289086be6" x="146.788805" y="307.584" style="stroke: #000000; stroke-width: 0.8"/>
      </g>
     </g>
     <g id="text_2">
      <!-- 20 -->
      <g transform="translate(140.426305 322.182437) scale(0.1 -0.1)">
       <defs>
        <path id="DejaVuSans-32" d="M 1228 531 
L 3431 531 
L 3431 0 
L 469 0 
L 469 531 
Q 828 903 1448 1529 
Q 2069 2156 2228 2338 
Q 2531 2678 2651 2914 
Q 2772 3150 2772 3378 
Q 2772 3750 2511 3984 
Q 2250 4219 1831 4219 
Q 1534 4219 1204 4116 
Q 875 4013 500 3803 
L 500 4441 
Q 881 4594 1212 4672 
Q 1544 4750 1819 4750 
Q 2544 4750 2975 4387 
Q 3406 4025 3406 3419 
Q 3406 3131 3298 2873 
Q 3191 2616 2906 2266 
Q 2828 2175 2409 1742 
Q 1991 1309 1228 531 
z
" transform="scale(0.015625)"/>
       </defs>
       <use xlink:href="#DejaVuSans-32"/>
       <use xlink:href="#DejaVuSans-30" x="63.623047"/>
      </g>
     </g>
    </g>
    <g id="xtick_3">
     <g id="line2d_13">
      <g>
       <use xlink:href="#m9289086be6" x="219.744883" y="307.584" style="stroke: #000000; stroke-width: 0.8"/>
      </g>
     </g>
     <g id="text_3">
      <!-- 40 -->
      <g transform="translate(213.382383 322.182437) scale(0.1 -0.1)">
       <defs>
        <path id="DejaVuSans-34" d="M 2419 4116 
L 825 1625 
L 2419 1625 
L 2419 4116 
z
M 2253 4666 
L 3047 4666 
L 3047 1625 
L 3713 1625 
L 3713 1100 
L 3047 1100 
L 3047 0 
L 2419 0 
L 2419 1100 
L 313 1100 
L 313 1709 
L 2253 4666 
z
" transform="scale(0.015625)"/>
       </defs>
       <use xlink:href="#DejaVuSans-34"/>
       <use xlink:href="#DejaVuSans-30" x="63.623047"/>
      </g>
     </g>
    </g>
    <g id="xtick_4">
     <g id="line2d_14">
      <g>
       <use xlink:href="#m9289086be6" x="292.70096" y="307.584" style="stroke: #000000; stroke-width: 0.8"/>
      </g>
     </g>
     <g id="text_4">
      <!-- 60 -->
      <g transform="translate(286.33846 322.182437) scale(0.1 -0.1)">
       <defs>
        <path id="DejaVuSans-36" d="M 2113 2584 
Q 1688 2584 1439 2293 
Q 1191 2003 1191 1497 
Q 1191 994 1439 701 
Q 1688 409 2113 409 
Q 2538 409 2786 701 
Q 3034 994 3034 1497 
Q 3034 2003 2786 2293 
Q 2538 2584 2113 2584 
z
M 3366 4563 
L 3366 3988 
Q 3128 4100 2886 4159 
Q 2644 4219 2406 4219 
Q 1781 4219 1451 3797 
Q 1122 3375 1075 2522 
Q 1259 2794 1537 2939 
Q 1816 3084 2150 3084 
Q 2853 3084 3261 2657 
Q 3669 2231 3669 1497 
Q 3669 778 3244 343 
Q 2819 -91 2113 -91 
Q 1303 -91 875 529 
Q 447 1150 447 2328 
Q 447 3434 972 4092 
Q 1497 4750 2381 4750 
Q 2619 4750 2861 4703 
Q 3103 4656 3366 4563 
z
" transform="scale(0.015625)"/>
       </defs>
       <use xlink:href="#DejaVuSans-36"/>
       <use xlink:href="#DejaVuSans-30" x="63.623047"/>
      </g>
     </g>
    </g>
    <g id="xtick_5">
     <g id="line2d_15">
      <g>
       <use xlink:href="#m9289086be6" x="365.657038" y="307.584" style="stroke: #000000; stroke-width: 0.8"/>
      </g>
     </g>
     <g id="text_5">
      <!-- 80 -->
      <g transform="translate(359.294538 322.182437) scale(0.1 -0.1)">
       <defs>
        <path id="DejaVuSans-38" d="M 2034 2216 
Q 1584 2216 1326 1975 
Q 1069 1734 1069 1313 
Q 1069 891 1326 650 
Q 1584 409 2034 409 
Q 2484 409 2743 651 
Q 3003 894 3003 1313 
Q 3003 1734 2745 1975 
Q 2488 2216 2034 2216 
z
M 1403 2484 
Q 997 2584 770 2862 
Q 544 3141 544 3541 
Q 544 4100 942 4425 
Q 1341 4750 2034 4750 
Q 2731 4750 3128 4425 
Q 3525 4100 3525 3541 
Q 3525 3141 3298 2862 
Q 3072 2584 2669 2484 
Q 3125 2378 3379 2068 
Q 3634 1759 3634 1313 
Q 3634 634 3220 271 
Q 2806 -91 2034 -91 
Q 1263 -91 848 271 
Q 434 634 434 1313 
Q 434 1759 690 2068 
Q 947 2378 1403 2484 
z
M 1172 3481 
Q 1172 3119 1398 2916 
Q 1625 2713 2034 2713 
Q 2441 2713 2670 2916 
Q 2900 3119 2900 3481 
Q 2900 3844 2670 4047 
Q 2441 4250 2034 4250 
Q 1625 4250 1398 4047 
Q 1172 3844 1172 3481 
z
" transform="scale(0.015625)"/>
       </defs>
       <use xlink:href="#DejaVuSans-38"/>
       <use xlink:href="#DejaVuSans-30" x="63.623047"/>
      </g>
     </g>
    </g>
    <g id="text_6">
     <!-- Epoques -->
     <g transform="translate(214.742812 335.860562) scale(0.1 -0.1)">
      <defs>
       <path id="DejaVuSans-45" d="M 628 4666 
L 3578 4666 
L 3578 4134 
L 1259 4134 
L 1259 2753 
L 3481 2753 
L 3481 2222 
L 1259 2222 
L 1259 531 
L 3634 531 
L 3634 0 
L 628 0 
L 628 4666 
z
" transform="scale(0.015625)"/>
       <path id="DejaVuSans-70" d="M 1159 525 
L 1159 -1331 
L 581 -1331 
L 581 3500 
L 1159 3500 
L 1159 2969 
Q 1341 3281 1617 3432 
Q 1894 3584 2278 3584 
Q 2916 3584 3314 3078 
Q 3713 2572 3713 1747 
Q 3713 922 3314 415 
Q 2916 -91 2278 -91 
Q 1894 -91 1617 61 
Q 1341 213 1159 525 
z
M 3116 1747 
Q 3116 2381 2855 2742 
Q 2594 3103 2138 3103 
Q 1681 3103 1420 2742 
Q 1159 2381 1159 1747 
Q 1159 1113 1420 752 
Q 1681 391 2138 391 
Q 2594 391 2855 752 
Q 3116 1113 3116 1747 
z
" transform="scale(0.015625)"/>
       <path id="DejaVuSans-6f" d="M 1959 3097 
Q 1497 3097 1228 2736 
Q 959 2375 959 1747 
Q 959 1119 1226 758 
Q 1494 397 1959 397 
Q 2419 397 2687 759 
Q 2956 1122 2956 1747 
Q 2956 2369 2687 2733 
Q 2419 3097 1959 3097 
z
M 1959 3584 
Q 2709 3584 3137 3096 
Q 3566 2609 3566 1747 
Q 3566 888 3137 398 
Q 2709 -91 1959 -91 
Q 1206 -91 779 398 
Q 353 888 353 1747 
Q 353 2609 779 3096 
Q 1206 3584 1959 3584 
z
" transform="scale(0.015625)"/>
       <path id="DejaVuSans-71" d="M 947 1747 
Q 947 1113 1208 752 
Q 1469 391 1925 391 
Q 2381 391 2643 752 
Q 2906 1113 2906 1747 
Q 2906 2381 2643 2742 
Q 2381 3103 1925 3103 
Q 1469 3103 1208 2742 
Q 947 2381 947 1747 
z
M 2906 525 
Q 2725 213 2448 61 
Q 2172 -91 1784 -91 
Q 1150 -91 751 415 
Q 353 922 353 1747 
Q 353 2572 751 3078 
Q 1150 3584 1784 3584 
Q 2172 3584 2448 3432 
Q 2725 3281 2906 2969 
L 2906 3500 
L 3481 3500 
L 3481 -1331 
L 2906 -1331 
L 2906 525 
z
" transform="scale(0.015625)"/>
       <path id="DejaVuSans-75" d="M 544 1381 
L 544 3500 
L 1119 3500 
L 1119 1403 
Q 1119 906 1312 657 
Q 1506 409 1894 409 
Q 2359 409 2629 706 
Q 2900 1003 2900 1516 
L 2900 3500 
L 3475 3500 
L 3475 0 
L 2900 0 
L 2900 538 
Q 2691 219 2414 64 
Q 2138 -91 1772 -91 
Q 1169 -91 856 284 
Q 544 659 544 1381 
z
M 1991 3584 
L 1991 3584 
z
" transform="scale(0.015625)"/>
       <path id="DejaVuSans-65" d="M 3597 1894 
L 3597 1613 
L 953 1613 
Q 991 1019 1311 708 
Q 1631 397 2203 397 
Q 2534 397 2845 478 
Q 3156 559 3463 722 
L 3463 178 
Q 3153 47 2828 -22 
Q 2503 -91 2169 -91 
Q 1331 -91 842 396 
Q 353 884 353 1716 
Q 353 2575 817 3079 
Q 1281 3584 2069 3584 
Q 2775 3584 3186 3129 
Q 3597 2675 3597 1894 
z
M 3022 2063 
Q 3016 2534 2758 2815 
Q 2500 3097 2075 3097 
Q 1594 3097 1305 2825 
Q 1016 2553 972 2059 
L 3022 2063 
z
" transform="scale(0.015625)"/>
       <path id="DejaVuSans-73" d="M 2834 3397 
L 2834 2853 
Q 2591 2978 2328 3040 
Q 2066 3103 1784 3103 
Q 1356 3103 1142 2972 
Q 928 2841 928 2578 
Q 928 2378 1081 2264 
Q 1234 2150 1697 2047 
L 1894 2003 
Q 2506 1872 2764 1633 
Q 3022 1394 3022 966 
Q 3022 478 2636 193 
Q 2250 -91 1575 -91 
Q 1294 -91 989 -36 
Q 684 19 347 128 
L 347 722 
Q 666 556 975 473 
Q 1284 391 1588 391 
Q 1994 391 2212 530 
Q 2431 669 2431 922 
Q 2431 1156 2273 1281 
Q 2116 1406 1581 1522 
L 1381 1569 
Q 847 1681 609 1914 
Q 372 2147 372 2553 
Q 372 3047 722 3315 
Q 1072 3584 1716 3584 
Q 2034 3584 2315 3537 
Q 2597 3491 2834 3397 
z
" transform="scale(0.015625)"/>
      </defs>
      <use xlink:href="#DejaVuSans-45"/>
      <use xlink:href="#DejaVuSans-70" x="63.183594"/>
      <use xlink:href="#DejaVuSans-6f" x="126.660156"/>
      <use xlink:href="#DejaVuSans-71" x="187.841797"/>
      <use xlink:href="#DejaVuSans-75" x="251.318359"/>
      <use xlink:href="#DejaVuSans-65" x="314.697266"/>
      <use xlink:href="#DejaVuSans-73" x="376.220703"/>
     </g>
    </g>
   </g>
   <g id="matplotlib.axis_2">
    <g id="ytick_1">
     <g id="line2d_16">
      <defs>
       <path id="m7429d362d9" d="M 0 0 
L -3.5 0 
" style="stroke: #000000; stroke-width: 0.8"/>
      </defs>
      <g>
       <use xlink:href="#m7429d362d9" x="57.6" y="297.287526" style="stroke: #000000; stroke-width: 0.8"/>
      </g>
     </g>
     <g id="text_7">
      <!-- 0 -->
      <g transform="translate(44.2375 301.086745) scale(0.1 -0.1)">
       <use xlink:href="#DejaVuSans-30"/>
      </g>
     </g>
    </g>
    <g id="ytick_2">
     <g id="line2d_17">
      <g>
       <use xlink:href="#m7429d362d9" x="57.6" y="252.465081" style="stroke: #000000; stroke-width: 0.8"/>
      </g>
     </g>
     <g id="text_8">
      <!-- 100000 -->
      <g transform="translate(12.425 256.264299) scale(0.1 -0.1)">
       <defs>
        <path id="DejaVuSans-31" d="M 794 531 
L 1825 531 
L 1825 4091 
L 703 3866 
L 703 4441 
L 1819 4666 
L 2450 4666 
L 2450 531 
L 3481 531 
L 3481 0 
L 794 0 
L 794 531 
z
" transform="scale(0.015625)"/>
       </defs>
       <use xlink:href="#DejaVuSans-31"/>
       <use xlink:href="#DejaVuSans-30" x="63.623047"/>
       <use xlink:href="#DejaVuSans-30" x="127.246094"/>
       <use xlink:href="#DejaVuSans-30" x="190.869141"/>
       <use xlink:href="#DejaVuSans-30" x="254.492188"/>
       <use xlink:href="#DejaVuSans-30" x="318.115234"/>
      </g>
     </g>
    </g>
    <g id="ytick_3">
     <g id="line2d_18">
      <g>
       <use xlink:href="#m7429d362d9" x="57.6" y="207.642635" style="stroke: #000000; stroke-width: 0.8"/>
      </g>
     </g>
     <g id="text_9">
      <!-- 200000 -->
      <g transform="translate(12.425 211.441854) scale(0.1 -0.1)">
       <use xlink:href="#DejaVuSans-32"/>
       <use xlink:href="#DejaVuSans-30" x="63.623047"/>
       <use xlink:href="#DejaVuSans-30" x="127.246094"/>
       <use xlink:href="#DejaVuSans-30" x="190.869141"/>
       <use xlink:href="#DejaVuSans-30" x="254.492188"/>
       <use xlink:href="#DejaVuSans-30" x="318.115234"/>
      </g>
     </g>
    </g>
    <g id="ytick_4">
     <g id="line2d_19">
      <g>
       <use xlink:href="#m7429d362d9" x="57.6" y="162.82019" style="stroke: #000000; stroke-width: 0.8"/>
      </g>
     </g>
     <g id="text_10">
      <!-- 300000 -->
      <g transform="translate(12.425 166.619408) scale(0.1 -0.1)">
       <defs>
        <path id="DejaVuSans-33" d="M 2597 2516 
Q 3050 2419 3304 2112 
Q 3559 1806 3559 1356 
Q 3559 666 3084 287 
Q 2609 -91 1734 -91 
Q 1441 -91 1130 -33 
Q 819 25 488 141 
L 488 750 
Q 750 597 1062 519 
Q 1375 441 1716 441 
Q 2309 441 2620 675 
Q 2931 909 2931 1356 
Q 2931 1769 2642 2001 
Q 2353 2234 1838 2234 
L 1294 2234 
L 1294 2753 
L 1863 2753 
Q 2328 2753 2575 2939 
Q 2822 3125 2822 3475 
Q 2822 3834 2567 4026 
Q 2313 4219 1838 4219 
Q 1578 4219 1281 4162 
Q 984 4106 628 3988 
L 628 4550 
Q 988 4650 1302 4700 
Q 1616 4750 1894 4750 
Q 2613 4750 3031 4423 
Q 3450 4097 3450 3541 
Q 3450 3153 3228 2886 
Q 3006 2619 2597 2516 
z
" transform="scale(0.015625)"/>
       </defs>
       <use xlink:href="#DejaVuSans-33"/>
       <use xlink:href="#DejaVuSans-30" x="63.623047"/>
       <use xlink:href="#DejaVuSans-30" x="127.246094"/>
       <use xlink:href="#DejaVuSans-30" x="190.869141"/>
       <use xlink:href="#DejaVuSans-30" x="254.492188"/>
       <use xlink:href="#DejaVuSans-30" x="318.115234"/>
      </g>
     </g>
    </g>
    <g id="ytick_5">
     <g id="line2d_20">
      <g>
       <use xlink:href="#m7429d362d9" x="57.6" y="117.997744" style="stroke: #000000; stroke-width: 0.8"/>
      </g>
     </g>
     <g id="text_11">
      <!-- 400000 -->
      <g transform="translate(12.425 121.796963) scale(0.1 -0.1)">
       <use xlink:href="#DejaVuSans-34"/>
       <use xlink:href="#DejaVuSans-30" x="63.623047"/>
       <use xlink:href="#DejaVuSans-30" x="127.246094"/>
       <use xlink:href="#DejaVuSans-30" x="190.869141"/>
       <use xlink:href="#DejaVuSans-30" x="254.492188"/>
       <use xlink:href="#DejaVuSans-30" x="318.115234"/>
      </g>
     </g>
    </g>
    <g id="ytick_6">
     <g id="line2d_21">
      <g>
       <use xlink:href="#m7429d362d9" x="57.6" y="73.175299" style="stroke: #000000; stroke-width: 0.8"/>
      </g>
     </g>
     <g id="text_12">
      <!-- 500000 -->
      <g transform="translate(12.425 76.974517) scale(0.1 -0.1)">
       <defs>
        <path id="DejaVuSans-35" d="M 691 4666 
L 3169 4666 
L 3169 4134 
L 1269 4134 
L 1269 2991 
Q 1406 3038 1543 3061 
Q 1681 3084 1819 3084 
Q 2600 3084 3056 2656 
Q 3513 2228 3513 1497 
Q 3513 744 3044 326 
Q 2575 -91 1722 -91 
Q 1428 -91 1123 -41 
Q 819 9 494 109 
L 494 744 
Q 775 591 1075 516 
Q 1375 441 1709 441 
Q 2250 441 2565 725 
Q 2881 1009 2881 1497 
Q 2881 1984 2565 2268 
Q 2250 2553 1709 2553 
Q 1456 2553 1204 2497 
Q 953 2441 691 2322 
L 691 4666 
z
" transform="scale(0.015625)"/>
       </defs>
       <use xlink:href="#DejaVuSans-35"/>
       <use xlink:href="#DejaVuSans-30" x="63.623047"/>
       <use xlink:href="#DejaVuSans-30" x="127.246094"/>
       <use xlink:href="#DejaVuSans-30" x="190.869141"/>
       <use xlink:href="#DejaVuSans-30" x="254.492188"/>
       <use xlink:href="#DejaVuSans-30" x="318.115234"/>
      </g>
     </g>
    </g>
    <g id="text_13">
     <!-- Sommes des valeurs absolues des poids et des biais -->
     <g transform="translate(6.345312 305.981125) rotate(-90) scale(0.1 -0.1)">
      <defs>
       <path id="DejaVuSans-53" d="M 3425 4513 
L 3425 3897 
Q 3066 4069 2747 4153 
Q 2428 4238 2131 4238 
Q 1616 4238 1336 4038 
Q 1056 3838 1056 3469 
Q 1056 3159 1242 3001 
Q 1428 2844 1947 2747 
L 2328 2669 
Q 3034 2534 3370 2195 
Q 3706 1856 3706 1288 
Q 3706 609 3251 259 
Q 2797 -91 1919 -91 
Q 1588 -91 1214 -16 
Q 841 59 441 206 
L 441 856 
Q 825 641 1194 531 
Q 1563 422 1919 422 
Q 2459 422 2753 634 
Q 3047 847 3047 1241 
Q 3047 1584 2836 1778 
Q 2625 1972 2144 2069 
L 1759 2144 
Q 1053 2284 737 2584 
Q 422 2884 422 3419 
Q 422 4038 858 4394 
Q 1294 4750 2059 4750 
Q 2388 4750 2728 4690 
Q 3069 4631 3425 4513 
z
" transform="scale(0.015625)"/>
       <path id="DejaVuSans-6d" d="M 3328 2828 
Q 3544 3216 3844 3400 
Q 4144 3584 4550 3584 
Q 5097 3584 5394 3201 
Q 5691 2819 5691 2113 
L 5691 0 
L 5113 0 
L 5113 2094 
Q 5113 2597 4934 2840 
Q 4756 3084 4391 3084 
Q 3944 3084 3684 2787 
Q 3425 2491 3425 1978 
L 3425 0 
L 2847 0 
L 2847 2094 
Q 2847 2600 2669 2842 
Q 2491 3084 2119 3084 
Q 1678 3084 1418 2786 
Q 1159 2488 1159 1978 
L 1159 0 
L 581 0 
L 581 3500 
L 1159 3500 
L 1159 2956 
Q 1356 3278 1631 3431 
Q 1906 3584 2284 3584 
Q 2666 3584 2933 3390 
Q 3200 3197 3328 2828 
z
" transform="scale(0.015625)"/>
       <path id="DejaVuSans-20" transform="scale(0.015625)"/>
       <path id="DejaVuSans-64" d="M 2906 2969 
L 2906 4863 
L 3481 4863 
L 3481 0 
L 2906 0 
L 2906 525 
Q 2725 213 2448 61 
Q 2172 -91 1784 -91 
Q 1150 -91 751 415 
Q 353 922 353 1747 
Q 353 2572 751 3078 
Q 1150 3584 1784 3584 
Q 2172 3584 2448 3432 
Q 2725 3281 2906 2969 
z
M 947 1747 
Q 947 1113 1208 752 
Q 1469 391 1925 391 
Q 2381 391 2643 752 
Q 2906 1113 2906 1747 
Q 2906 2381 2643 2742 
Q 2381 3103 1925 3103 
Q 1469 3103 1208 2742 
Q 947 2381 947 1747 
z
" transform="scale(0.015625)"/>
       <path id="DejaVuSans-76" d="M 191 3500 
L 800 3500 
L 1894 563 
L 2988 3500 
L 3597 3500 
L 2284 0 
L 1503 0 
L 191 3500 
z
" transform="scale(0.015625)"/>
       <path id="DejaVuSans-61" d="M 2194 1759 
Q 1497 1759 1228 1600 
Q 959 1441 959 1056 
Q 959 750 1161 570 
Q 1363 391 1709 391 
Q 2188 391 2477 730 
Q 2766 1069 2766 1631 
L 2766 1759 
L 2194 1759 
z
M 3341 1997 
L 3341 0 
L 2766 0 
L 2766 531 
Q 2569 213 2275 61 
Q 1981 -91 1556 -91 
Q 1019 -91 701 211 
Q 384 513 384 1019 
Q 384 1609 779 1909 
Q 1175 2209 1959 2209 
L 2766 2209 
L 2766 2266 
Q 2766 2663 2505 2880 
Q 2244 3097 1772 3097 
Q 1472 3097 1187 3025 
Q 903 2953 641 2809 
L 641 3341 
Q 956 3463 1253 3523 
Q 1550 3584 1831 3584 
Q 2591 3584 2966 3190 
Q 3341 2797 3341 1997 
z
" transform="scale(0.015625)"/>
       <path id="DejaVuSans-6c" d="M 603 4863 
L 1178 4863 
L 1178 0 
L 603 0 
L 603 4863 
z
" transform="scale(0.015625)"/>
       <path id="DejaVuSans-72" d="M 2631 2963 
Q 2534 3019 2420 3045 
Q 2306 3072 2169 3072 
Q 1681 3072 1420 2755 
Q 1159 2438 1159 1844 
L 1159 0 
L 581 0 
L 581 3500 
L 1159 3500 
L 1159 2956 
Q 1341 3275 1631 3429 
Q 1922 3584 2338 3584 
Q 2397 3584 2469 3576 
Q 2541 3569 2628 3553 
L 2631 2963 
z
" transform="scale(0.015625)"/>
       <path id="DejaVuSans-62" d="M 3116 1747 
Q 3116 2381 2855 2742 
Q 2594 3103 2138 3103 
Q 1681 3103 1420 2742 
Q 1159 2381 1159 1747 
Q 1159 1113 1420 752 
Q 1681 391 2138 391 
Q 2594 391 2855 752 
Q 3116 1113 3116 1747 
z
M 1159 2969 
Q 1341 3281 1617 3432 
Q 1894 3584 2278 3584 
Q 2916 3584 3314 3078 
Q 3713 2572 3713 1747 
Q 3713 922 3314 415 
Q 2916 -91 2278 -91 
Q 1894 -91 1617 61 
Q 1341 213 1159 525 
L 1159 0 
L 581 0 
L 581 4863 
L 1159 4863 
L 1159 2969 
z
" transform="scale(0.015625)"/>
       <path id="DejaVuSans-69" d="M 603 3500 
L 1178 3500 
L 1178 0 
L 603 0 
L 603 3500 
z
M 603 4863 
L 1178 4863 
L 1178 4134 
L 603 4134 
L 603 4863 
z
" transform="scale(0.015625)"/>
       <path id="DejaVuSans-74" d="M 1172 4494 
L 1172 3500 
L 2356 3500 
L 2356 3053 
L 1172 3053 
L 1172 1153 
Q 1172 725 1289 603 
Q 1406 481 1766 481 
L 2356 481 
L 2356 0 
L 1766 0 
Q 1100 0 847 248 
Q 594 497 594 1153 
L 594 3053 
L 172 3053 
L 172 3500 
L 594 3500 
L 594 4494 
L 1172 4494 
z
" transform="scale(0.015625)"/>
      </defs>
      <use xlink:href="#DejaVuSans-53"/>
      <use xlink:href="#DejaVuSans-6f" x="63.476562"/>
      <use xlink:href="#DejaVuSans-6d" x="124.658203"/>
      <use xlink:href="#DejaVuSans-6d" x="222.070312"/>
      <use xlink:href="#DejaVuSans-65" x="319.482422"/>
      <use xlink:href="#DejaVuSans-73" x="381.005859"/>
      <use xlink:href="#DejaVuSans-20" x="433.105469"/>
      <use xlink:href="#DejaVuSans-64" x="464.892578"/>
      <use xlink:href="#DejaVuSans-65" x="528.369141"/>
      <use xlink:href="#DejaVuSans-73" x="589.892578"/>
      <use xlink:href="#DejaVuSans-20" x="641.992188"/>
      <use xlink:href="#DejaVuSans-76" x="673.779297"/>
      <use xlink:href="#DejaVuSans-61" x="732.958984"/>
      <use xlink:href="#DejaVuSans-6c" x="794.238281"/>
      <use xlink:href="#DejaVuSans-65" x="822.021484"/>
      <use xlink:href="#DejaVuSans-75" x="883.544922"/>
      <use xlink:href="#DejaVuSans-72" x="946.923828"/>
      <use xlink:href="#DejaVuSans-73" x="988.037109"/>
      <use xlink:href="#DejaVuSans-20" x="1040.136719"/>
      <use xlink:href="#DejaVuSans-61" x="1071.923828"/>
      <use xlink:href="#DejaVuSans-62" x="1133.203125"/>
      <use xlink:href="#DejaVuSans-73" x="1196.679688"/>
      <use xlink:href="#DejaVuSans-6f" x="1248.779297"/>
      <use xlink:href="#DejaVuSans-6c" x="1309.960938"/>
      <use xlink:href="#DejaVuSans-75" x="1337.744141"/>
      <use xlink:href="#DejaVuSans-65" x="1401.123047"/>
      <use xlink:href="#DejaVuSans-73" x="1462.646484"/>
      <use xlink:href="#DejaVuSans-20" x="1514.746094"/>
      <use xlink:href="#DejaVuSans-64" x="1546.533203"/>
      <use xlink:href="#DejaVuSans-65" x="1610.009766"/>
      <use xlink:href="#DejaVuSans-73" x="1671.533203"/>
      <use xlink:href="#DejaVuSans-20" x="1723.632812"/>
      <use xlink:href="#DejaVuSans-70" x="1755.419922"/>
      <use xlink:href="#DejaVuSans-6f" x="1818.896484"/>
      <use xlink:href="#DejaVuSans-69" x="1880.078125"/>
      <use xlink:href="#DejaVuSans-64" x="1907.861328"/>
      <use xlink:href="#DejaVuSans-73" x="1971.337891"/>
      <use xlink:href="#DejaVuSans-20" x="2023.4375"/>
      <use xlink:href="#DejaVuSans-65" x="2055.224609"/>
      <use xlink:href="#DejaVuSans-74" x="2116.748047"/>
      <use xlink:href="#DejaVuSans-20" x="2155.957031"/>
      <use xlink:href="#DejaVuSans-64" x="2187.744141"/>
      <use xlink:href="#DejaVuSans-65" x="2251.220703"/>
      <use xlink:href="#DejaVuSans-73" x="2312.744141"/>
      <use xlink:href="#DejaVuSans-20" x="2364.84375"/>
      <use xlink:href="#DejaVuSans-62" x="2396.630859"/>
      <use xlink:href="#DejaVuSans-69" x="2460.107422"/>
      <use xlink:href="#DejaVuSans-61" x="2487.890625"/>
      <use xlink:href="#DejaVuSans-69" x="2549.169922"/>
      <use xlink:href="#DejaVuSans-73" x="2576.953125"/>
     </g>
    </g>
   </g>
   <g id="patch_3">
    <path d="M 57.6 307.584 
L 57.6 41.472 
" style="fill: none; stroke: #000000; stroke-width: 0.8; stroke-linejoin: miter; stroke-linecap: square"/>
   </g>
   <g id="patch_4">
    <path d="M 414.72 307.584 
L 414.72 41.472 
" style="fill: none; stroke: #000000; stroke-width: 0.8; stroke-linejoin: miter; stroke-linecap: square"/>
   </g>
   <g id="patch_5">
    <path d="M 57.6 307.584 
L 414.72 307.584 
" style="fill: none; stroke: #000000; stroke-width: 0.8; stroke-linejoin: miter; stroke-linecap: square"/>
   </g>
   <g id="patch_6">
    <path d="M 57.6 41.472 
L 414.72 41.472 
" style="fill: none; stroke: #000000; stroke-width: 0.8; stroke-linejoin: miter; stroke-linecap: square"/>
   </g>
   <g id="line2d_22">
    <path d="M 73.832727 181.583012 
L 77.480531 169.81434 
L 81.128335 163.622525 
L 84.776139 159.258528 
L 88.423943 155.166631 
L 92.071747 151.133773 
L 95.719551 147.04612 
L 99.367354 142.928212 
L 103.015158 138.770987 
L 106.662962 134.626129 
L 110.310766 130.404835 
L 113.95857 126.241138 
L 117.606374 122.056921 
L 121.254178 117.88171 
L 124.901982 113.735676 
L 128.549785 109.618286 
L 132.197589 105.506695 
L 135.845393 101.45469 
L 139.493197 97.422841 
L 143.141001 93.41993 
L 146.788805 89.460176 
L 150.436609 85.521165 
L 154.084413 81.633434 
L 157.732217 77.790498 
L 161.38002 73.972326 
L 165.027824 70.229161 
L 168.675628 66.47269 
L 172.323432 62.798272 
L 175.971236 59.128168 
L 179.61904 55.527777 
L 183.266844 55.397092 
L 186.914648 55.318485 
L 190.562451 55.257106 
L 194.210255 55.203067 
L 197.858059 55.151297 
L 201.505863 55.100928 
L 205.153667 55.050474 
L 208.801471 54.999545 
L 212.449275 54.948475 
L 216.097079 54.896845 
L 219.744883 54.844375 
L 223.392686 54.791233 
L 227.04049 54.737446 
L 230.688294 54.682902 
L 234.336098 54.627911 
L 237.983902 54.572443 
L 241.631706 54.516499 
L 245.27951 54.459995 
L 248.927314 54.402958 
L 252.575117 54.345529 
L 256.222921 54.28768 
L 259.870725 54.229271 
L 263.518529 54.170358 
L 267.166333 54.111108 
L 270.814137 54.051522 
L 274.461941 53.991516 
L 278.109745 53.931174 
L 281.757549 53.870495 
L 285.405352 53.809481 
L 289.053156 53.748186 
L 292.70096 53.741771 
L 296.348764 53.735356 
L 299.996568 53.729053 
L 303.644372 53.722778 
L 307.292176 53.716558 
L 310.93998 53.710367 
L 314.587783 53.704232 
L 318.235587 53.698069 
L 321.883391 53.69199 
L 325.531195 53.685939 
L 329.178999 53.679888 
L 332.826803 53.673893 
L 336.474607 53.66787 
L 340.122411 53.661903 
L 343.770215 53.655964 
L 347.418018 53.649997 
L 351.065822 53.644086 
L 354.713626 53.638175 
L 358.36143 53.632264 
L 362.009234 53.626381 
L 365.657038 53.620498 
L 369.304842 53.614643 
L 372.952646 53.608788 
L 376.600449 53.602962 
L 380.248253 53.597079 
L 383.896057 53.591252 
L 387.543861 53.585425 
L 391.191665 53.579626 
L 394.839469 53.573799 
L 398.487273 53.568 
" clip-path="url(#p6a16b5b2aa)" style="fill: none; stroke-dasharray: 5.55,2.4; stroke-dashoffset: 0; stroke: #000000; stroke-width: 1.5"/>
   </g>
   <g id="legend_1">
    <g id="patch_7">
     <path d="M 439.576 210.931375 
L 548.116625 210.931375 
Q 550.116625 210.931375 550.116625 208.931375 
L 550.116625 48.472 
Q 550.116625 46.472 548.116625 46.472 
L 439.576 46.472 
Q 437.576 46.472 437.576 48.472 
L 437.576 208.931375 
Q 437.576 210.931375 439.576 210.931375 
z
" style="fill: #ffffff; opacity: 0.8; stroke: #cccccc; stroke-linejoin: miter"/>
    </g>
    <g id="line2d_23">
     <path d="M 441.576 54.570438 
L 451.576 54.570438 
L 461.576 54.570438 
" style="fill: none; stroke-dasharray: 5.55,2.4; stroke-dashoffset: 0; stroke: #000000; stroke-width: 1.5"/>
    </g>
    <g id="text_14">
     <!--  = 0.000e+00 -->
     <g transform="translate(469.576 58.070438) scale(0.1 -0.1)">
      <defs>
       <path id="DejaVuSans-3bb" d="M 1981 4316 
L 3597 0 
L 2988 0 
L 2006 2588 
L 800 0 
L 191 0 
L 1725 3356 
L 1494 3975 
Q 1347 4369 1013 4369 
L 713 4369 
L 713 4863 
L 1078 4856 
Q 1784 4847 1981 4316 
z
" transform="scale(0.015625)"/>
       <path id="DejaVuSans-3d" d="M 678 2906 
L 4684 2906 
L 4684 2381 
L 678 2381 
L 678 2906 
z
M 678 1631 
L 4684 1631 
L 4684 1100 
L 678 1100 
L 678 1631 
z
" transform="scale(0.015625)"/>
       <path id="DejaVuSans-2e" d="M 684 794 
L 1344 794 
L 1344 0 
L 684 0 
L 684 794 
z
" transform="scale(0.015625)"/>
       <path id="DejaVuSans-2b" d="M 2944 4013 
L 2944 2272 
L 4684 2272 
L 4684 1741 
L 2944 1741 
L 2944 0 
L 2419 0 
L 2419 1741 
L 678 1741 
L 678 2272 
L 2419 2272 
L 2419 4013 
L 2944 4013 
z
" transform="scale(0.015625)"/>
      </defs>
      <use xlink:href="#DejaVuSans-3bb"/>
      <use xlink:href="#DejaVuSans-20" x="59.179688"/>
      <use xlink:href="#DejaVuSans-3d" x="90.966797"/>
      <use xlink:href="#DejaVuSans-20" x="174.755859"/>
      <use xlink:href="#DejaVuSans-30" x="206.542969"/>
      <use xlink:href="#DejaVuSans-2e" x="270.166016"/>
      <use xlink:href="#DejaVuSans-30" x="301.953125"/>
      <use xlink:href="#DejaVuSans-30" x="365.576172"/>
      <use xlink:href="#DejaVuSans-30" x="429.199219"/>
      <use xlink:href="#DejaVuSans-65" x="492.822266"/>
      <use xlink:href="#DejaVuSans-2b" x="554.345703"/>
      <use xlink:href="#DejaVuSans-30" x="638.134766"/>
      <use xlink:href="#DejaVuSans-30" x="701.757812"/>
     </g>
    </g>
    <g id="line2d_24">
     <path d="M 441.576 69.248563 
L 451.576 69.248563 
L 461.576 69.248563 
" style="fill: none; stroke: #1f77b4; stroke-width: 1.5; stroke-linecap: square"/>
    </g>
    <g id="text_15">
     <!--  = 1.000e-07 -->
     <g transform="translate(469.576 72.748563) scale(0.1 -0.1)">
      <defs>
       <path id="DejaVuSans-2d" d="M 313 2009 
L 1997 2009 
L 1997 1497 
L 313 1497 
L 313 2009 
z
" transform="scale(0.015625)"/>
       <path id="DejaVuSans-37" d="M 525 4666 
L 3525 4666 
L 3525 4397 
L 1831 0 
L 1172 0 
L 2766 4134 
L 525 4134 
L 525 4666 
z
" transform="scale(0.015625)"/>
      </defs>
      <use xlink:href="#DejaVuSans-3bb"/>
      <use xlink:href="#DejaVuSans-20" x="59.179688"/>
      <use xlink:href="#DejaVuSans-3d" x="90.966797"/>
      <use xlink:href="#DejaVuSans-20" x="174.755859"/>
      <use xlink:href="#DejaVuSans-31" x="206.542969"/>
      <use xlink:href="#DejaVuSans-2e" x="270.166016"/>
      <use xlink:href="#DejaVuSans-30" x="301.953125"/>
      <use xlink:href="#DejaVuSans-30" x="365.576172"/>
      <use xlink:href="#DejaVuSans-30" x="429.199219"/>
      <use xlink:href="#DejaVuSans-65" x="492.822266"/>
      <use xlink:href="#DejaVuSans-2d" x="554.345703"/>
      <use xlink:href="#DejaVuSans-30" x="590.429688"/>
      <use xlink:href="#DejaVuSans-37" x="654.052734"/>
     </g>
    </g>
    <g id="line2d_25">
     <path d="M 441.576 83.926688 
L 451.576 83.926688 
L 461.576 83.926688 
" style="fill: none; stroke: #ff7f0e; stroke-width: 1.5; stroke-linecap: square"/>
    </g>
    <g id="text_16">
     <!--  = 1.000e-06 -->
     <g transform="translate(469.576 87.426688) scale(0.1 -0.1)">
      <use xlink:href="#DejaVuSans-3bb"/>
      <use xlink:href="#DejaVuSans-20" x="59.179688"/>
      <use xlink:href="#DejaVuSans-3d" x="90.966797"/>
      <use xlink:href="#DejaVuSans-20" x="174.755859"/>
      <use xlink:href="#DejaVuSans-31" x="206.542969"/>
      <use xlink:href="#DejaVuSans-2e" x="270.166016"/>
      <use xlink:href="#DejaVuSans-30" x="301.953125"/>
      <use xlink:href="#DejaVuSans-30" x="365.576172"/>
      <use xlink:href="#DejaVuSans-30" x="429.199219"/>
      <use xlink:href="#DejaVuSans-65" x="492.822266"/>
      <use xlink:href="#DejaVuSans-2d" x="554.345703"/>
      <use xlink:href="#DejaVuSans-30" x="590.429688"/>
      <use xlink:href="#DejaVuSans-36" x="654.052734"/>
     </g>
    </g>
    <g id="line2d_26">
     <path d="M 441.576 98.604813 
L 451.576 98.604813 
L 461.576 98.604813 
" style="fill: none; stroke: #2ca02c; stroke-width: 1.5; stroke-linecap: square"/>
    </g>
    <g id="text_17">
     <!--  = 3.162e-06 -->
     <g transform="translate(469.576 102.104813) scale(0.1 -0.1)">
      <use xlink:href="#DejaVuSans-3bb"/>
      <use xlink:href="#DejaVuSans-20" x="59.179688"/>
      <use xlink:href="#DejaVuSans-3d" x="90.966797"/>
      <use xlink:href="#DejaVuSans-20" x="174.755859"/>
      <use xlink:href="#DejaVuSans-33" x="206.542969"/>
      <use xlink:href="#DejaVuSans-2e" x="270.166016"/>
      <use xlink:href="#DejaVuSans-31" x="301.953125"/>
      <use xlink:href="#DejaVuSans-36" x="365.576172"/>
      <use xlink:href="#DejaVuSans-32" x="429.199219"/>
      <use xlink:href="#DejaVuSans-65" x="492.822266"/>
      <use xlink:href="#DejaVuSans-2d" x="554.345703"/>
      <use xlink:href="#DejaVuSans-30" x="590.429688"/>
      <use xlink:href="#DejaVuSans-36" x="654.052734"/>
     </g>
    </g>
    <g id="line2d_27">
     <path d="M 441.576 113.282938 
L 451.576 113.282938 
L 461.576 113.282938 
" style="fill: none; stroke: #d62728; stroke-width: 1.5; stroke-linecap: square"/>
    </g>
    <g id="text_18">
     <!--  = 1.000e-05 -->
     <g transform="translate(469.576 116.782938) scale(0.1 -0.1)">
      <use xlink:href="#DejaVuSans-3bb"/>
      <use xlink:href="#DejaVuSans-20" x="59.179688"/>
      <use xlink:href="#DejaVuSans-3d" x="90.966797"/>
      <use xlink:href="#DejaVuSans-20" x="174.755859"/>
      <use xlink:href="#DejaVuSans-31" x="206.542969"/>
      <use xlink:href="#DejaVuSans-2e" x="270.166016"/>
      <use xlink:href="#DejaVuSans-30" x="301.953125"/>
      <use xlink:href="#DejaVuSans-30" x="365.576172"/>
      <use xlink:href="#DejaVuSans-30" x="429.199219"/>
      <use xlink:href="#DejaVuSans-65" x="492.822266"/>
      <use xlink:href="#DejaVuSans-2d" x="554.345703"/>
      <use xlink:href="#DejaVuSans-30" x="590.429688"/>
      <use xlink:href="#DejaVuSans-35" x="654.052734"/>
     </g>
    </g>
    <g id="line2d_28">
     <path d="M 441.576 127.961063 
L 451.576 127.961063 
L 461.576 127.961063 
" style="fill: none; stroke: #9467bd; stroke-width: 1.5; stroke-linecap: square"/>
    </g>
    <g id="text_19">
     <!--  = 3.162e-05 -->
     <g transform="translate(469.576 131.461063) scale(0.1 -0.1)">
      <use xlink:href="#DejaVuSans-3bb"/>
      <use xlink:href="#DejaVuSans-20" x="59.179688"/>
      <use xlink:href="#DejaVuSans-3d" x="90.966797"/>
      <use xlink:href="#DejaVuSans-20" x="174.755859"/>
      <use xlink:href="#DejaVuSans-33" x="206.542969"/>
      <use xlink:href="#DejaVuSans-2e" x="270.166016"/>
      <use xlink:href="#DejaVuSans-31" x="301.953125"/>
      <use xlink:href="#DejaVuSans-36" x="365.576172"/>
      <use xlink:href="#DejaVuSans-32" x="429.199219"/>
      <use xlink:href="#DejaVuSans-65" x="492.822266"/>
      <use xlink:href="#DejaVuSans-2d" x="554.345703"/>
      <use xlink:href="#DejaVuSans-30" x="590.429688"/>
      <use xlink:href="#DejaVuSans-35" x="654.052734"/>
     </g>
    </g>
    <g id="line2d_29">
     <path d="M 441.576 142.639188 
L 451.576 142.639188 
L 461.576 142.639188 
" style="fill: none; stroke: #8c564b; stroke-width: 1.5; stroke-linecap: square"/>
    </g>
    <g id="text_20">
     <!--  = 1.000e-04 -->
     <g transform="translate(469.576 146.139188) scale(0.1 -0.1)">
      <use xlink:href="#DejaVuSans-3bb"/>
      <use xlink:href="#DejaVuSans-20" x="59.179688"/>
      <use xlink:href="#DejaVuSans-3d" x="90.966797"/>
      <use xlink:href="#DejaVuSans-20" x="174.755859"/>
      <use xlink:href="#DejaVuSans-31" x="206.542969"/>
      <use xlink:href="#DejaVuSans-2e" x="270.166016"/>
      <use xlink:href="#DejaVuSans-30" x="301.953125"/>
      <use xlink:href="#DejaVuSans-30" x="365.576172"/>
      <use xlink:href="#DejaVuSans-30" x="429.199219"/>
      <use xlink:href="#DejaVuSans-65" x="492.822266"/>
      <use xlink:href="#DejaVuSans-2d" x="554.345703"/>
      <use xlink:href="#DejaVuSans-30" x="590.429688"/>
      <use xlink:href="#DejaVuSans-34" x="654.052734"/>
     </g>
    </g>
    <g id="line2d_30">
     <path d="M 441.576 157.317313 
L 451.576 157.317313 
L 461.576 157.317313 
" style="fill: none; stroke: #e377c2; stroke-width: 1.5; stroke-linecap: square"/>
    </g>
    <g id="text_21">
     <!--  = 3.162e-04 -->
     <g transform="translate(469.576 160.817313) scale(0.1 -0.1)">
      <use xlink:href="#DejaVuSans-3bb"/>
      <use xlink:href="#DejaVuSans-20" x="59.179688"/>
      <use xlink:href="#DejaVuSans-3d" x="90.966797"/>
      <use xlink:href="#DejaVuSans-20" x="174.755859"/>
      <use xlink:href="#DejaVuSans-33" x="206.542969"/>
      <use xlink:href="#DejaVuSans-2e" x="270.166016"/>
      <use xlink:href="#DejaVuSans-31" x="301.953125"/>
      <use xlink:href="#DejaVuSans-36" x="365.576172"/>
      <use xlink:href="#DejaVuSans-32" x="429.199219"/>
      <use xlink:href="#DejaVuSans-65" x="492.822266"/>
      <use xlink:href="#DejaVuSans-2d" x="554.345703"/>
      <use xlink:href="#DejaVuSans-30" x="590.429688"/>
      <use xlink:href="#DejaVuSans-34" x="654.052734"/>
     </g>
    </g>
    <g id="line2d_31">
     <path d="M 441.576 171.995438 
L 451.576 171.995438 
L 461.576 171.995438 
" style="fill: none; stroke: #7f7f7f; stroke-width: 1.5; stroke-linecap: square"/>
    </g>
    <g id="text_22">
     <!--  = 1.000e-03 -->
     <g transform="translate(469.576 175.495438) scale(0.1 -0.1)">
      <use xlink:href="#DejaVuSans-3bb"/>
      <use xlink:href="#DejaVuSans-20" x="59.179688"/>
      <use xlink:href="#DejaVuSans-3d" x="90.966797"/>
      <use xlink:href="#DejaVuSans-20" x="174.755859"/>
      <use xlink:href="#DejaVuSans-31" x="206.542969"/>
      <use xlink:href="#DejaVuSans-2e" x="270.166016"/>
      <use xlink:href="#DejaVuSans-30" x="301.953125"/>
      <use xlink:href="#DejaVuSans-30" x="365.576172"/>
      <use xlink:href="#DejaVuSans-30" x="429.199219"/>
      <use xlink:href="#DejaVuSans-65" x="492.822266"/>
      <use xlink:href="#DejaVuSans-2d" x="554.345703"/>
      <use xlink:href="#DejaVuSans-30" x="590.429688"/>
      <use xlink:href="#DejaVuSans-33" x="654.052734"/>
     </g>
    </g>
    <g id="line2d_32">
     <path d="M 441.576 186.673563 
L 451.576 186.673563 
L 461.576 186.673563 
" style="fill: none; stroke: #bcbd22; stroke-width: 1.5; stroke-linecap: square"/>
    </g>
    <g id="text_23">
     <!--  = 3.162e-03 -->
     <g transform="translate(469.576 190.173563) scale(0.1 -0.1)">
      <use xlink:href="#DejaVuSans-3bb"/>
      <use xlink:href="#DejaVuSans-20" x="59.179688"/>
      <use xlink:href="#DejaVuSans-3d" x="90.966797"/>
      <use xlink:href="#DejaVuSans-20" x="174.755859"/>
      <use xlink:href="#DejaVuSans-33" x="206.542969"/>
      <use xlink:href="#DejaVuSans-2e" x="270.166016"/>
      <use xlink:href="#DejaVuSans-31" x="301.953125"/>
      <use xlink:href="#DejaVuSans-36" x="365.576172"/>
      <use xlink:href="#DejaVuSans-32" x="429.199219"/>
      <use xlink:href="#DejaVuSans-65" x="492.822266"/>
      <use xlink:href="#DejaVuSans-2d" x="554.345703"/>
      <use xlink:href="#DejaVuSans-30" x="590.429688"/>
      <use xlink:href="#DejaVuSans-33" x="654.052734"/>
     </g>
    </g>
    <g id="line2d_33">
     <path d="M 441.576 201.351687 
L 451.576 201.351687 
L 461.576 201.351687 
" style="fill: none; stroke: #17becf; stroke-width: 1.5; stroke-linecap: square"/>
    </g>
    <g id="text_24">
     <!--  = 1.000e-02 -->
     <g transform="translate(469.576 204.851687) scale(0.1 -0.1)">
      <use xlink:href="#DejaVuSans-3bb"/>
      <use xlink:href="#DejaVuSans-20" x="59.179688"/>
      <use xlink:href="#DejaVuSans-3d" x="90.966797"/>
      <use xlink:href="#DejaVuSans-20" x="174.755859"/>
      <use xlink:href="#DejaVuSans-31" x="206.542969"/>
      <use xlink:href="#DejaVuSans-2e" x="270.166016"/>
      <use xlink:href="#DejaVuSans-30" x="301.953125"/>
      <use xlink:href="#DejaVuSans-30" x="365.576172"/>
      <use xlink:href="#DejaVuSans-30" x="429.199219"/>
      <use xlink:href="#DejaVuSans-65" x="492.822266"/>
      <use xlink:href="#DejaVuSans-2d" x="554.345703"/>
      <use xlink:href="#DejaVuSans-30" x="590.429688"/>
      <use xlink:href="#DejaVuSans-32" x="654.052734"/>
     </g>
    </g>
   </g>
  </g>
 </g>
 <defs>
  <clipPath id="p6a16b5b2aa">
   <rect x="57.6" y="41.472" width="357.12" height="266.112"/>
  </clipPath>
 </defs>
</svg>
