<?xml version="1.0" encoding="utf-8" standalone="no"?>
<!DOCTYPE svg PUBLIC "-//W3C//DTD SVG 1.1//EN"
  "http://www.w3.org/Graphics/SVG/1.1/DTD/svg11.dtd">
<svg xmlns:xlink="http://www.w3.org/1999/xlink" width="460.8pt" height="345.6pt" viewBox="0 0 460.8 345.6" xmlns="http://www.w3.org/2000/svg" version="1.1">
 <metadata>
  <rdf:RDF xmlns:dc="http://purl.org/dc/elements/1.1/" xmlns:cc="http://creativecommons.org/ns#" xmlns:rdf="http://www.w3.org/1999/02/22-rdf-syntax-ns#">
   <cc:Work>
    <dc:type rdf:resource="http://purl.org/dc/dcmitype/StillImage"/>
    <dc:date>2024-03-20T01:32:29.860034</dc:date>
    <dc:format>image/svg+xml</dc:format>
    <dc:creator>
     <cc:Agent>
      <dc:title>Matplotlib v3.8.2, https://matplotlib.org/</dc:title>
     </cc:Agent>
    </dc:creator>
   </cc:Work>
  </rdf:RDF>
 </metadata>
 <defs>
  <style type="text/css">*{stroke-linejoin: round; stroke-linecap: butt}</style>
 </defs>
 <g id="figure_1">
  <g id="patch_1">
   <path d="M 0 345.6 
L 460.8 345.6 
L 460.8 0 
L 0 0 
z
" style="fill: #ffffff"/>
  </g>
  <g id="axes_1">
   <g id="patch_2">
    <path d="M 57.6 307.584 
L 414.72 307.584 
L 414.72 41.472 
L 57.6 41.472 
z
" style="fill: #ffffff"/>
   </g>
   <g id="line2d_1">
    <path d="M 73.832727 53.736847 
L 77.480531 165.213896 
L 81.128335 207.282691 
L 84.776139 229.268978 
L 88.423943 236.867394 
L 92.071747 238.917828 
L 95.719551 240.570044 
L 99.367354 241.763817 
L 103.015158 243.397011 
L 106.662962 246.192828 
L 110.310766 249.349863 
L 113.95857 251.715533 
L 117.606374 253.601512 
L 121.254178 255.243136 
L 124.901982 257.02572 
L 128.549785 258.768631 
L 132.197589 260.49099 
L 135.845393 262.371714 
L 139.493197 264.111603 
L 143.141001 265.47735 
L 146.788805 266.607551 
L 150.436609 267.74695 
L 154.084413 268.836428 
L 157.732217 269.875329 
L 161.38002 270.859151 
L 165.027824 271.807593 
L 168.675628 272.933421 
L 172.323432 273.968809 
L 175.971236 275.083255 
L 179.61904 276.091973 
L 183.266844 285.290771 
L 186.914648 285.375805 
L 190.562451 285.524414 
L 194.210255 285.664626 
L 197.858059 285.806921 
L 201.505863 285.949029 
L 205.153667 286.091253 
L 208.801471 286.229221 
L 212.449275 286.359967 
L 216.097079 286.48161 
L 219.744883 286.596647 
L 223.392686 286.708757 
L 227.04049 286.819347 
L 230.688294 286.929916 
L 234.336098 287.03957 
L 237.983902 287.145583 
L 241.631706 287.247028 
L 245.27951 287.344974 
L 248.927314 287.440164 
L 252.575117 287.533135 
L 256.222921 287.624223 
L 259.870725 287.713569 
L 263.518529 287.801259 
L 267.166333 287.887628 
L 270.814137 287.973043 
L 274.461941 288.057692 
L 278.109745 288.141609 
L 281.757549 288.224789 
L 285.405352 288.307209 
L 289.053156 288.389062 
L 292.70096 288.505196 
L 296.348764 288.5265 
L 299.996568 288.546761 
L 303.644372 288.566095 
L 307.292176 288.584564 
L 310.93998 288.602267 
L 314.587783 288.61925 
L 318.235587 288.635573 
L 321.883391 288.651293 
L 325.531195 288.666447 
L 329.178999 288.681084 
L 332.826803 288.695218 
L 336.474607 288.708887 
L 340.122411 288.722124 
L 343.770215 288.734942 
L 347.418018 288.747377 
L 351.065822 288.759475 
L 354.713626 288.771236 
L 358.36143 288.782698 
L 362.009234 288.793866 
L 365.657038 288.804763 
L 369.304842 288.815409 
L 372.952646 288.825811 
L 376.600449 288.835986 
L 380.248253 288.845947 
L 383.896057 288.855714 
L 387.543861 288.865291 
L 391.191665 288.874702 
L 394.839469 288.883947 
L 398.487273 288.893031 
" clip-path="url(#pea99e44b79)" style="fill: none; stroke: #1f77b4; stroke-width: 1.5; stroke-linecap: square"/>
   </g>
   <g id="line2d_2">
    <path d="M 73.832727 54.217466 
L 77.480531 166.025752 
L 81.128335 207.872397 
L 84.776139 229.785626 
L 88.423943 237.066954 
L 92.071747 238.841995 
L 95.719551 240.695485 
L 99.367354 242.129293 
L 103.015158 243.69574 
L 106.662962 246.141262 
L 110.310766 249.144198 
L 113.95857 251.658947 
L 117.606374 253.526337 
L 121.254178 255.083674 
L 124.901982 256.633234 
L 128.549785 258.38186 
L 132.197589 260.104265 
L 135.845393 261.678168 
L 139.493197 263.142116 
L 143.141001 264.454044 
L 146.788805 265.674369 
L 150.436609 266.814878 
L 154.084413 267.891838 
L 157.732217 268.861244 
L 161.38002 269.756707 
L 165.027824 270.575105 
L 168.675628 271.464917 
L 172.323432 272.242416 
L 175.971236 273.128533 
L 179.61904 274.005292 
L 183.266844 284.887959 
L 186.914648 284.95732 
L 190.562451 285.163366 
L 194.210255 285.404374 
L 197.858059 285.649603 
L 201.505863 285.872422 
L 205.153667 286.071042 
L 208.801471 286.250332 
L 212.449275 286.407109 
L 216.097079 286.546886 
L 219.744883 286.672601 
L 223.392686 286.790296 
L 227.04049 286.903705 
L 230.688294 287.015047 
L 234.336098 287.126645 
L 237.983902 287.236277 
L 241.631706 287.342205 
L 245.27951 287.44617 
L 248.927314 287.548606 
L 252.575117 287.649253 
L 256.222921 287.748194 
L 259.870725 287.845491 
L 263.518529 287.941086 
L 267.166333 288.035085 
L 270.814137 288.127638 
L 274.461941 288.218991 
L 278.109745 288.309072 
L 281.757549 288.397891 
L 285.405352 288.485639 
L 289.053156 288.57281 
L 292.70096 288.698833 
L 296.348764 288.722903 
L 299.996568 288.745699 
L 303.644372 288.767342 
L 307.292176 288.787884 
L 310.93998 288.807448 
L 314.587783 288.826085 
L 318.235587 288.843884 
L 321.883391 288.860899 
L 325.531195 288.877204 
L 329.178999 288.892846 
L 332.826803 288.907884 
L 336.474607 288.92237 
L 340.122411 288.936339 
L 343.770215 288.949836 
L 347.418018 288.962896 
L 351.065822 288.975544 
L 354.713626 288.987814 
L 358.36143 288.999742 
L 362.009234 289.011362 
L 365.657038 289.022692 
L 369.304842 289.033739 
L 372.952646 289.044531 
L 376.600449 289.05509 
L 380.248253 289.065427 
L 383.896057 289.075557 
L 387.543861 289.085508 
L 391.191665 289.095272 
L 394.839469 289.104867 
L 398.487273 289.114292 
" clip-path="url(#pea99e44b79)" style="fill: none; stroke: #ff7f0e; stroke-width: 1.5; stroke-linecap: square"/>
   </g>
   <g id="line2d_3">
    <path d="M 73.832727 55.710166 
L 77.480531 168.35419 
L 81.128335 209.137673 
L 84.776139 230.700176 
L 88.423943 237.401146 
L 92.071747 238.727242 
L 95.719551 239.96455 
L 99.367354 242.158748 
L 103.015158 243.767359 
L 106.662962 245.880537 
L 110.310766 248.439034 
L 113.95857 251.24368 
L 117.606374 253.749037 
L 121.254178 255.526487 
L 124.901982 256.911181 
L 128.549785 258.153282 
L 132.197589 259.487925 
L 135.845393 260.777885 
L 139.493197 261.930783 
L 143.141001 262.804655 
L 146.788805 263.588128 
L 150.436609 264.30012 
L 154.084413 265.017228 
L 157.732217 265.686235 
L 161.38002 266.353753 
L 165.027824 266.977518 
L 168.675628 267.630991 
L 172.323432 268.268198 
L 175.971236 268.924145 
L 179.61904 269.517782 
L 183.266844 283.763395 
L 186.914648 283.719704 
L 190.562451 283.898441 
L 194.210255 284.157957 
L 197.858059 284.455387 
L 201.505863 284.780705 
L 205.153667 285.114389 
L 208.801471 285.435035 
L 212.449275 285.733291 
L 216.097079 286.001871 
L 219.744883 286.238718 
L 223.392686 286.445941 
L 227.04049 286.630662 
L 230.688294 286.799228 
L 234.336098 286.955363 
L 237.983902 287.103605 
L 241.631706 287.24832 
L 245.27951 287.388686 
L 248.927314 287.523118 
L 252.575117 287.650497 
L 256.222921 287.772196 
L 259.870725 287.890043 
L 263.518529 288.005429 
L 267.166333 288.118977 
L 270.814137 288.230868 
L 274.461941 288.341423 
L 278.109745 288.450678 
L 281.757549 288.558488 
L 285.405352 288.664745 
L 289.053156 288.769352 
L 292.70096 288.928158 
L 296.348764 288.961925 
L 299.996568 288.993468 
L 303.644372 289.023164 
L 307.292176 289.051208 
L 310.93998 289.077664 
L 314.587783 289.102747 
L 318.235587 289.126535 
L 321.883391 289.149165 
L 325.531195 289.170724 
L 329.178999 289.191316 
L 332.826803 289.210984 
L 336.474607 289.229853 
L 340.122411 289.247953 
L 343.770215 289.265361 
L 347.418018 289.282225 
L 351.065822 289.298493 
L 354.713626 289.314227 
L 358.36143 289.329427 
L 362.009234 289.344178 
L 365.657038 289.358505 
L 369.304842 289.372435 
L 372.952646 289.386006 
L 376.600449 289.399233 
L 380.248253 289.412154 
L 383.896057 289.424774 
L 387.543861 289.4371 
L 391.191665 289.449159 
L 394.839469 289.46098 
L 398.487273 289.47258 
" clip-path="url(#pea99e44b79)" style="fill: none; stroke: #2ca02c; stroke-width: 1.5; stroke-linecap: square"/>
   </g>
   <g id="line2d_4">
    <path d="M 73.832727 59.495929 
L 77.480531 175.273476 
L 81.128335 213.502384 
L 84.776139 233.449543 
L 88.423943 238.163284 
L 92.071747 238.255616 
L 95.719551 239.052925 
L 99.367354 240.952841 
L 103.015158 242.887963 
L 106.662962 244.909013 
L 110.310766 246.758016 
L 113.95857 248.293265 
L 117.606374 249.597574 
L 121.254178 250.824356 
L 124.901982 251.921065 
L 128.549785 252.787458 
L 132.197589 253.667233 
L 135.845393 254.409999 
L 139.493197 255.139188 
L 143.141001 255.655066 
L 146.788805 256.154527 
L 150.436609 256.479831 
L 154.084413 257.005352 
L 157.732217 257.304343 
L 161.38002 257.495388 
L 165.027824 257.552056 
L 168.675628 257.698443 
L 172.323432 257.847055 
L 175.971236 258.03357 
L 179.61904 258.015215 
L 183.266844 280.963785 
L 186.914648 280.774684 
L 190.562451 280.944774 
L 194.210255 281.298433 
L 197.858059 281.733849 
L 201.505863 282.198921 
L 205.153667 282.658098 
L 208.801471 283.111997 
L 212.449275 283.55534 
L 216.097079 283.974052 
L 219.744883 284.360054 
L 223.392686 284.712397 
L 227.04049 285.029182 
L 230.688294 285.308394 
L 234.336098 285.558854 
L 237.983902 285.788522 
L 241.631706 286.001737 
L 245.27951 286.202659 
L 248.927314 286.394789 
L 252.575117 286.577844 
L 256.222921 286.754397 
L 259.870725 286.925576 
L 263.518529 287.092981 
L 267.166333 287.257146 
L 270.814137 287.418034 
L 274.461941 287.575193 
L 278.109745 287.729268 
L 281.757549 287.880645 
L 285.405352 288.028829 
L 289.053156 288.175159 
L 292.70096 288.442648 
L 296.348764 288.501836 
L 299.996568 288.556222 
L 303.644372 288.606406 
L 307.292176 288.652866 
L 310.93998 288.696066 
L 314.587783 288.736379 
L 318.235587 288.774099 
L 321.883391 288.809536 
L 325.531195 288.84287 
L 329.178999 288.874349 
L 332.826803 288.904162 
L 336.474607 288.932474 
L 340.122411 288.959432 
L 343.770215 288.985155 
L 347.418018 289.009765 
L 351.065822 289.03336 
L 354.713626 289.056044 
L 358.36143 289.077906 
L 362.009234 289.098999 
L 365.657038 289.119385 
L 369.304842 289.139138 
L 372.952646 289.158329 
L 376.600449 289.176995 
L 380.248253 289.195195 
L 383.896057 289.21297 
L 387.543861 289.230339 
L 391.191665 289.247332 
L 394.839469 289.263986 
L 398.487273 289.280346 
" clip-path="url(#pea99e44b79)" style="fill: none; stroke: #d62728; stroke-width: 1.5; stroke-linecap: square"/>
   </g>
   <g id="line2d_5">
    <path d="M 73.832727 73.581021 
L 77.480531 192.764897 
L 81.128335 225.45502 
L 84.776139 239.183215 
L 88.423943 243.921083 
L 92.071747 246.55391 
L 95.719551 246.178724 
L 99.367354 248.387244 
L 103.015158 248.043118 
L 106.662962 249.002925 
L 110.310766 248.268482 
L 113.95857 248.854415 
L 117.606374 247.495274 
L 121.254178 248.414219 
L 124.901982 248.85287 
L 128.549785 249.629832 
L 132.197589 249.771439 
L 135.845393 250.412557 
L 139.493197 250.151062 
L 143.141001 249.873413 
L 146.788805 248.875786 
L 150.436609 249.293684 
L 154.084413 249.864127 
L 157.732217 250.084659 
L 161.38002 250.493221 
L 165.027824 250.725922 
L 168.675628 250.604815 
L 172.323432 250.380858 
L 175.971236 249.694685 
L 179.61904 249.513716 
L 183.266844 281.546183 
L 186.914648 280.8224 
L 190.562451 281.152932 
L 194.210255 281.647194 
L 197.858059 282.159962 
L 201.505863 282.683232 
L 205.153667 283.209092 
L 208.801471 283.724891 
L 212.449275 284.201517 
L 216.097079 284.615667 
L 219.744883 284.978908 
L 223.392686 285.316715 
L 227.04049 285.643103 
L 230.688294 285.956474 
L 234.336098 286.257304 
L 237.983902 286.545329 
L 241.631706 286.824593 
L 245.27951 287.098903 
L 248.927314 287.367439 
L 252.575117 287.626744 
L 256.222921 287.876373 
L 259.870725 288.117195 
L 263.518529 288.349609 
L 267.166333 288.573907 
L 270.814137 288.790053 
L 274.461941 288.998126 
L 278.109745 289.198397 
L 281.757549 289.39126 
L 285.405352 289.577163 
L 289.053156 289.756314 
L 292.70096 290.297567 
L 296.348764 290.416904 
L 299.996568 290.515804 
L 303.644372 290.598527 
L 307.292176 290.668478 
L 310.93998 290.728302 
L 314.587783 290.780014 
L 318.235587 290.825335 
L 321.883391 290.865331 
L 325.531195 290.901043 
L 329.178999 290.933269 
L 332.826803 290.96267 
L 336.474607 290.989728 
L 340.122411 291.014845 
L 343.770215 291.038393 
L 347.418018 291.060605 
L 351.065822 291.081711 
L 354.713626 291.101988 
L 358.36143 291.121513 
L 362.009234 291.14126 
L 365.657038 291.16044 
L 369.304842 291.179125 
L 372.952646 291.197244 
L 376.600449 291.214953 
L 380.248253 291.232294 
L 383.896057 291.249324 
L 387.543861 291.26606 
L 391.191665 291.282585 
L 394.839469 291.298897 
L 398.487273 291.314993 
" clip-path="url(#pea99e44b79)" style="fill: none; stroke: #9467bd; stroke-width: 1.5; stroke-linecap: square"/>
   </g>
   <g id="line2d_6">
    <path d="M 73.832727 110.289751 
L 77.480531 234.028258 
L 81.128335 250.464988 
L 84.776139 253.484207 
L 88.423943 254.081073 
L 92.071747 254.414011 
L 95.719551 254.583118 
L 99.367354 254.244319 
L 103.015158 253.996273 
L 106.662962 254.134063 
L 110.310766 253.954565 
L 113.95857 254.618278 
L 117.606374 254.605602 
L 121.254178 254.279371 
L 124.901982 254.626364 
L 128.549785 254.495402 
L 132.197589 254.464589 
L 135.845393 254.221654 
L 139.493197 254.52562 
L 143.141001 254.321263 
L 146.788805 253.443181 
L 150.436609 254.956759 
L 154.084413 254.381745 
L 157.732217 254.734817 
L 161.38002 254.602205 
L 165.027824 254.101919 
L 168.675628 254.225722 
L 172.323432 254.252677 
L 175.971236 254.91532 
L 179.61904 254.430289 
L 183.266844 285.510405 
L 186.914648 283.796239 
L 190.562451 284.253926 
L 194.210255 285.112416 
L 197.858059 285.883024 
L 201.505863 286.536402 
L 205.153667 287.110021 
L 208.801471 287.607307 
L 212.449275 288.030706 
L 216.097079 288.398722 
L 219.744883 288.717308 
L 223.392686 289.01736 
L 227.04049 289.288542 
L 230.688294 289.540706 
L 234.336098 289.760962 
L 237.983902 289.949828 
L 241.631706 290.100301 
L 245.27951 290.210429 
L 248.927314 290.275069 
L 252.575117 290.294098 
L 256.222921 290.269512 
L 259.870725 290.213165 
L 263.518529 290.13669 
L 267.166333 290.053649 
L 270.814137 289.973309 
L 274.461941 289.90652 
L 278.109745 289.857858 
L 281.757549 289.828122 
L 285.405352 289.813568 
L 289.053156 289.809357 
L 292.70096 292.563244 
L 296.348764 292.699381 
L 299.996568 292.772292 
L 303.644372 292.824908 
L 307.292176 292.866872 
L 310.93998 292.901982 
L 314.587783 292.932237 
L 318.235587 292.958484 
L 321.883391 292.981259 
L 325.531195 293.00094 
L 329.178999 293.017916 
L 332.826803 293.032562 
L 336.474607 293.045063 
L 340.122411 293.055674 
L 343.770215 293.064611 
L 347.418018 293.072148 
L 351.065822 293.078497 
L 354.713626 293.083777 
L 358.36143 293.088187 
L 362.009234 293.091832 
L 365.657038 293.094805 
L 369.304842 293.0972 
L 372.952646 293.099124 
L 376.600449 293.100655 
L 380.248253 293.101904 
L 383.896057 293.102918 
L 387.543861 293.103714 
L 391.191665 293.104307 
L 394.839469 293.104696 
L 398.487273 293.104895 
" clip-path="url(#pea99e44b79)" style="fill: none; stroke: #8c564b; stroke-width: 1.5; stroke-linecap: square"/>
   </g>
   <g id="line2d_7">
    <path d="M 73.832727 184.998135 
L 77.480531 254.267083 
L 81.128335 252.084206 
L 84.776139 253.552772 
L 88.423943 253.083844 
L 92.071747 253.254332 
L 95.719551 253.256448 
L 99.367354 253.163244 
L 103.015158 253.291229 
L 106.662962 253.157457 
L 110.310766 253.279879 
L 113.95857 253.165439 
L 117.606374 253.285981 
L 121.254178 253.159386 
L 124.901982 253.289163 
L 128.549785 253.157466 
L 132.197589 253.2912 
L 135.845393 253.156082 
L 139.493197 253.291914 
L 143.141001 253.156114 
L 146.788805 253.291261 
L 150.436609 253.157326 
L 154.084413 253.289661 
L 157.732217 253.15938 
L 161.38002 253.287613 
L 165.027824 253.161528 
L 168.675628 253.285858 
L 172.323432 253.162979 
L 175.971236 253.284996 
L 179.61904 253.163192 
L 183.266844 271.02856 
L 186.914648 279.460092 
L 190.562451 284.649411 
L 194.210255 287.31374 
L 197.858059 288.517631 
L 201.505863 288.934328 
L 205.153667 288.775409 
L 208.801471 288.299805 
L 212.449275 287.899789 
L 216.097079 287.777068 
L 219.744883 287.803412 
L 223.392686 287.789501 
L 227.04049 287.71147 
L 230.688294 287.605133 
L 234.336098 287.51603 
L 237.983902 287.467518 
L 241.631706 287.458044 
L 245.27951 287.464981 
L 248.927314 287.47885 
L 252.575117 287.489578 
L 256.222921 287.498058 
L 259.870725 287.505405 
L 263.518529 287.514509 
L 267.166333 287.523184 
L 270.814137 287.53141 
L 274.461941 287.53744 
L 278.109745 287.541593 
L 281.757549 287.544335 
L 285.405352 287.546705 
L 289.053156 287.54924 
L 292.70096 292.446568 
L 296.348764 292.388664 
L 299.996568 292.306537 
L 303.644372 292.252411 
L 307.292176 292.221117 
L 310.93998 292.202026 
L 314.587783 292.187407 
L 318.235587 292.172628 
L 321.883391 292.155658 
L 325.531195 292.135804 
L 329.178999 292.113285 
L 332.826803 292.088449 
L 336.474607 292.062051 
L 340.122411 292.034581 
L 343.770215 292.006401 
L 347.418018 291.978168 
L 351.065822 291.950141 
L 354.713626 291.922362 
L 358.36143 291.895202 
L 362.009234 291.869011 
L 365.657038 291.843636 
L 369.304842 291.8191 
L 372.952646 291.795428 
L 376.600449 291.772877 
L 380.248253 291.751324 
L 383.896057 291.730745 
L 387.543861 291.711062 
L 391.191665 291.692306 
L 394.839469 291.674439 
L 398.487273 291.657408 
" clip-path="url(#pea99e44b79)" style="fill: none; stroke: #e377c2; stroke-width: 1.5; stroke-linecap: square"/>
   </g>
   <g id="line2d_8">
    <path d="M 73.832727 265.936464 
L 77.480531 267.241291 
L 81.128335 267.235276 
L 84.776139 267.235308 
L 88.423943 267.235306 
L 92.071747 267.235306 
L 95.719551 267.235306 
L 99.367354 267.235306 
L 103.015158 267.235306 
L 106.662962 267.235308 
L 110.310766 267.235308 
L 113.95857 267.235306 
L 117.606374 267.235306 
L 121.254178 267.235306 
L 124.901982 267.235308 
L 128.549785 267.235306 
L 132.197589 267.235308 
L 135.845393 267.235308 
L 139.493197 267.235306 
L 143.141001 267.235308 
L 146.788805 267.235306 
L 150.436609 267.235306 
L 154.084413 267.235308 
L 157.732217 267.235308 
L 161.38002 267.235308 
L 165.027824 267.235308 
L 168.675628 267.235306 
L 172.323432 267.235306 
L 175.971236 267.235308 
L 179.61904 267.235306 
L 183.266844 283.15959 
L 186.914648 289.125674 
L 190.562451 289.069877 
L 194.210255 287.642447 
L 197.858059 286.369583 
L 201.505863 285.888445 
L 205.153667 285.822874 
L 208.801471 285.826015 
L 212.449275 285.843297 
L 216.097079 285.861304 
L 219.744883 285.873477 
L 223.392686 285.884902 
L 227.04049 285.878009 
L 230.688294 285.884484 
L 234.336098 285.879669 
L 237.983902 285.879686 
L 241.631706 285.878369 
L 245.27951 285.883365 
L 248.927314 285.883907 
L 252.575117 285.886403 
L 256.222921 285.881204 
L 259.870725 285.884602 
L 263.518529 285.879107 
L 267.166333 285.880397 
L 270.814137 285.877838 
L 274.461941 285.885589 
L 278.109745 285.882629 
L 281.757549 285.88765 
L 285.405352 285.880491 
L 289.053156 285.883749 
L 292.70096 292.09774 
L 296.348764 291.326702 
L 299.996568 290.880816 
L 303.644372 290.591991 
L 307.292176 290.355549 
L 310.93998 290.139918 
L 314.587783 289.941951 
L 318.235587 289.764266 
L 321.883391 289.608482 
L 325.531195 289.474668 
L 329.178999 289.361413 
L 332.826803 289.266655 
L 336.474607 289.187889 
L 340.122411 289.12279 
L 343.770215 289.069038 
L 347.418018 289.024687 
L 351.065822 288.988155 
L 354.713626 288.957945 
L 358.36143 288.932908 
L 362.009234 288.912136 
L 365.657038 288.894843 
L 369.304842 288.880424 
L 372.952646 288.868393 
L 376.600449 288.858273 
L 380.248253 288.849781 
L 383.896057 288.842664 
L 387.543861 288.836659 
L 391.191665 288.831611 
L 394.839469 288.827324 
L 398.487273 288.823725 
" clip-path="url(#pea99e44b79)" style="fill: none; stroke: #7f7f7f; stroke-width: 1.5; stroke-linecap: square"/>
   </g>
   <g id="line2d_9">
    <path d="M 73.832727 291.97846 
L 77.480531 291.978461 
L 81.128335 291.978461 
L 84.776139 291.978461 
L 88.423943 291.978461 
L 92.071747 291.978461 
L 95.719551 291.978461 
L 99.367354 291.978461 
L 103.015158 291.978461 
L 106.662962 291.978461 
L 110.310766 291.978461 
L 113.95857 291.978461 
L 117.606374 291.978461 
L 121.254178 291.978461 
L 124.901982 291.978461 
L 128.549785 291.978461 
L 132.197589 291.978461 
L 135.845393 291.978461 
L 139.493197 291.978461 
L 143.141001 291.978461 
L 146.788805 291.978462 
L 150.436609 291.978461 
L 154.084413 291.978461 
L 157.732217 291.978461 
L 161.38002 291.978461 
L 165.027824 291.978461 
L 168.675628 291.978461 
L 172.323432 291.978461 
L 175.971236 291.978461 
L 179.61904 291.978461 
L 183.266844 286.583221 
L 186.914648 279.441711 
L 190.562451 278.906271 
L 194.210255 278.893939 
L 197.858059 278.890638 
L 201.505863 278.890789 
L 205.153667 278.890712 
L 208.801471 278.890683 
L 212.449275 278.890695 
L 216.097079 278.890682 
L 219.744883 278.890686 
L 223.392686 278.890683 
L 227.04049 278.890684 
L 230.688294 278.890686 
L 234.336098 278.890684 
L 237.983902 278.890686 
L 241.631706 278.890686 
L 245.27951 278.890686 
L 248.927314 278.890686 
L 252.575117 278.890686 
L 256.222921 278.890686 
L 259.870725 278.890686 
L 263.518529 278.890686 
L 267.166333 278.890686 
L 270.814137 278.890686 
L 274.461941 278.890686 
L 278.109745 278.890686 
L 281.757549 278.890686 
L 285.405352 278.890686 
L 289.053156 278.890686 
L 292.70096 286.291417 
L 296.348764 284.13519 
L 299.996568 283.391373 
L 303.644372 283.028786 
L 307.292176 282.815993 
L 310.93998 282.683317 
L 314.587783 282.600763 
L 318.235587 282.550387 
L 321.883391 282.520325 
L 325.531195 282.502725 
L 329.178999 282.492656 
L 332.826803 282.487042 
L 336.474607 282.483989 
L 340.122411 282.482426 
L 343.770215 282.481736 
L 347.418018 282.481542 
L 351.065822 282.481601 
L 354.713626 282.481781 
L 358.36143 282.482043 
L 362.009234 282.482305 
L 365.657038 282.482562 
L 369.304842 282.482817 
L 372.952646 282.483035 
L 376.600449 282.483225 
L 380.248253 282.483385 
L 383.896057 282.483538 
L 387.543861 282.483666 
L 391.191665 282.483768 
L 394.839469 282.483853 
L 398.487273 282.483934 
" clip-path="url(#pea99e44b79)" style="fill: none; stroke: #bcbd22; stroke-width: 1.5; stroke-linecap: square"/>
   </g>
   <g id="line2d_10">
    <path d="M 73.832727 295.488 
L 77.480531 295.488 
L 81.128335 295.488 
L 84.776139 295.488 
L 88.423943 295.488 
L 92.071747 295.488 
L 95.719551 295.488 
L 99.367354 295.488 
L 103.015158 295.488 
L 106.662962 295.488 
L 110.310766 295.488 
L 113.95857 295.488 
L 117.606374 295.488 
L 121.254178 295.488 
L 124.901982 295.488 
L 128.549785 295.488 
L 132.197589 295.488 
L 135.845393 295.488 
L 139.493197 295.488 
L 143.141001 295.488 
L 146.788805 295.488 
L 150.436609 295.488 
L 154.084413 295.488 
L 157.732217 295.488 
L 161.38002 295.488 
L 165.027824 295.488 
L 168.675628 295.488 
L 172.323432 295.488 
L 175.971236 295.488 
L 179.61904 295.488 
L 183.266844 272.714095 
L 186.914648 272.18297 
L 190.562451 272.180552 
L 194.210255 272.180536 
L 197.858059 272.180536 
L 201.505863 272.180536 
L 205.153667 272.180536 
L 208.801471 272.180536 
L 212.449275 272.180536 
L 216.097079 272.180536 
L 219.744883 272.180536 
L 223.392686 272.180536 
L 227.04049 272.180536 
L 230.688294 272.180536 
L 234.336098 272.180536 
L 237.983902 272.180536 
L 241.631706 272.180536 
L 245.27951 272.180536 
L 248.927314 272.180536 
L 252.575117 272.180536 
L 256.222921 272.180536 
L 259.870725 272.180536 
L 263.518529 272.180536 
L 267.166333 272.180536 
L 270.814137 272.180536 
L 274.461941 272.180536 
L 278.109745 272.180536 
L 281.757549 272.180536 
L 285.405352 272.180536 
L 289.053156 272.180536 
L 292.70096 273.393164 
L 296.348764 269.700037 
L 299.996568 268.24933 
L 303.644372 267.571257 
L 307.292176 267.22138 
L 310.93998 267.029535 
L 314.587783 266.920646 
L 318.235587 266.857696 
L 321.883391 266.820965 
L 325.531195 266.799407 
L 329.178999 266.786729 
L 332.826803 266.779272 
L 336.474607 266.774854 
L 340.122411 266.772281 
L 343.770215 266.77074 
L 347.418018 266.769845 
L 351.065822 266.769303 
L 354.713626 266.768988 
L 358.36143 266.768808 
L 362.009234 266.768691 
L 365.657038 266.768633 
L 369.304842 266.768595 
L 372.952646 266.768566 
L 376.600449 266.768551 
L 380.248253 266.768543 
L 383.896057 266.76854 
L 387.543861 266.768537 
L 391.191665 266.768531 
L 394.839469 266.768531 
L 398.487273 266.768531 
" clip-path="url(#pea99e44b79)" style="fill: none; stroke: #17becf; stroke-width: 1.5; stroke-linecap: square"/>
   </g>
   <g id="matplotlib.axis_1">
    <g id="xtick_1">
     <g id="line2d_11">
      <defs>
       <path id="m88c85d1938" d="M 0 0 
L 0 3.5 
" style="stroke: #000000; stroke-width: 0.8"/>
      </defs>
      <g>
       <use xlink:href="#m88c85d1938" x="73.832727" y="307.584" style="stroke: #000000; stroke-width: 0.8"/>
      </g>
     </g>
     <g id="text_1">
      <!-- 0 -->
      <g transform="translate(70.651477 322.182437) scale(0.1 -0.1)">
       <defs>
        <path id="DejaVuSans-30" d="M 2034 4250 
Q 1547 4250 1301 3770 
Q 1056 3291 1056 2328 
Q 1056 1369 1301 889 
Q 1547 409 2034 409 
Q 2525 409 2770 889 
Q 3016 1369 3016 2328 
Q 3016 3291 2770 3770 
Q 2525 4250 2034 4250 
z
M 2034 4750 
Q 2819 4750 3233 4129 
Q 3647 3509 3647 2328 
Q 3647 1150 3233 529 
Q 2819 -91 2034 -91 
Q 1250 -91 836 529 
Q 422 1150 422 2328 
Q 422 3509 836 4129 
Q 1250 4750 2034 4750 
z
" transform="scale(0.015625)"/>
       </defs>
       <use xlink:href="#DejaVuSans-30"/>
      </g>
     </g>
    </g>
    <g id="xtick_2">
     <g id="line2d_12">
      <g>
       <use xlink:href="#m88c85d1938" x="146.788805" y="307.584" style="stroke: #000000; stroke-width: 0.8"/>
      </g>
     </g>
     <g id="text_2">
      <!-- 20 -->
      <g transform="translate(140.426305 322.182437) scale(0.1 -0.1)">
       <defs>
        <path id="DejaVuSans-32" d="M 1228 531 
L 3431 531 
L 3431 0 
L 469 0 
L 469 531 
Q 828 903 1448 1529 
Q 2069 2156 2228 2338 
Q 2531 2678 2651 2914 
Q 2772 3150 2772 3378 
Q 2772 3750 2511 3984 
Q 2250 4219 1831 4219 
Q 1534 4219 1204 4116 
Q 875 4013 500 3803 
L 500 4441 
Q 881 4594 1212 4672 
Q 1544 4750 1819 4750 
Q 2544 4750 2975 4387 
Q 3406 4025 3406 3419 
Q 3406 3131 3298 2873 
Q 3191 2616 2906 2266 
Q 2828 2175 2409 1742 
Q 1991 1309 1228 531 
z
" transform="scale(0.015625)"/>
       </defs>
       <use xlink:href="#DejaVuSans-32"/>
       <use xlink:href="#DejaVuSans-30" x="63.623047"/>
      </g>
     </g>
    </g>
    <g id="xtick_3">
     <g id="line2d_13">
      <g>
       <use xlink:href="#m88c85d1938" x="219.744883" y="307.584" style="stroke: #000000; stroke-width: 0.8"/>
      </g>
     </g>
     <g id="text_3">
      <!-- 40 -->
      <g transform="translate(213.382383 322.182437) scale(0.1 -0.1)">
       <defs>
        <path id="DejaVuSans-34" d="M 2419 4116 
L 825 1625 
L 2419 1625 
L 2419 4116 
z
M 2253 4666 
L 3047 4666 
L 3047 1625 
L 3713 1625 
L 3713 1100 
L 3047 1100 
L 3047 0 
L 2419 0 
L 2419 1100 
L 313 1100 
L 313 1709 
L 2253 4666 
z
" transform="scale(0.015625)"/>
       </defs>
       <use xlink:href="#DejaVuSans-34"/>
       <use xlink:href="#DejaVuSans-30" x="63.623047"/>
      </g>
     </g>
    </g>
    <g id="xtick_4">
     <g id="line2d_14">
      <g>
       <use xlink:href="#m88c85d1938" x="292.70096" y="307.584" style="stroke: #000000; stroke-width: 0.8"/>
      </g>
     </g>
     <g id="text_4">
      <!-- 60 -->
      <g transform="translate(286.33846 322.182437) scale(0.1 -0.1)">
       <defs>
        <path id="DejaVuSans-36" d="M 2113 2584 
Q 1688 2584 1439 2293 
Q 1191 2003 1191 1497 
Q 1191 994 1439 701 
Q 1688 409 2113 409 
Q 2538 409 2786 701 
Q 3034 994 3034 1497 
Q 3034 2003 2786 2293 
Q 2538 2584 2113 2584 
z
M 3366 4563 
L 3366 3988 
Q 3128 4100 2886 4159 
Q 2644 4219 2406 4219 
Q 1781 4219 1451 3797 
Q 1122 3375 1075 2522 
Q 1259 2794 1537 2939 
Q 1816 3084 2150 3084 
Q 2853 3084 3261 2657 
Q 3669 2231 3669 1497 
Q 3669 778 3244 343 
Q 2819 -91 2113 -91 
Q 1303 -91 875 529 
Q 447 1150 447 2328 
Q 447 3434 972 4092 
Q 1497 4750 2381 4750 
Q 2619 4750 2861 4703 
Q 3103 4656 3366 4563 
z
" transform="scale(0.015625)"/>
       </defs>
       <use xlink:href="#DejaVuSans-36"/>
       <use xlink:href="#DejaVuSans-30" x="63.623047"/>
      </g>
     </g>
    </g>
    <g id="xtick_5">
     <g id="line2d_15">
      <g>
       <use xlink:href="#m88c85d1938" x="365.657038" y="307.584" style="stroke: #000000; stroke-width: 0.8"/>
      </g>
     </g>
     <g id="text_5">
      <!-- 80 -->
      <g transform="translate(359.294538 322.182437) scale(0.1 -0.1)">
       <defs>
        <path id="DejaVuSans-38" d="M 2034 2216 
Q 1584 2216 1326 1975 
Q 1069 1734 1069 1313 
Q 1069 891 1326 650 
Q 1584 409 2034 409 
Q 2484 409 2743 651 
Q 3003 894 3003 1313 
Q 3003 1734 2745 1975 
Q 2488 2216 2034 2216 
z
M 1403 2484 
Q 997 2584 770 2862 
Q 544 3141 544 3541 
Q 544 4100 942 4425 
Q 1341 4750 2034 4750 
Q 2731 4750 3128 4425 
Q 3525 4100 3525 3541 
Q 3525 3141 3298 2862 
Q 3072 2584 2669 2484 
Q 3125 2378 3379 2068 
Q 3634 1759 3634 1313 
Q 3634 634 3220 271 
Q 2806 -91 2034 -91 
Q 1263 -91 848 271 
Q 434 634 434 1313 
Q 434 1759 690 2068 
Q 947 2378 1403 2484 
z
M 1172 3481 
Q 1172 3119 1398 2916 
Q 1625 2713 2034 2713 
Q 2441 2713 2670 2916 
Q 2900 3119 2900 3481 
Q 2900 3844 2670 4047 
Q 2441 4250 2034 4250 
Q 1625 4250 1398 4047 
Q 1172 3844 1172 3481 
z
" transform="scale(0.015625)"/>
       </defs>
       <use xlink:href="#DejaVuSans-38"/>
       <use xlink:href="#DejaVuSans-30" x="63.623047"/>
      </g>
     </g>
    </g>
    <g id="text_6">
     <!-- Epoques -->
     <g transform="translate(214.742812 335.860562) scale(0.1 -0.1)">
      <defs>
       <path id="DejaVuSans-45" d="M 628 4666 
L 3578 4666 
L 3578 4134 
L 1259 4134 
L 1259 2753 
L 3481 2753 
L 3481 2222 
L 1259 2222 
L 1259 531 
L 3634 531 
L 3634 0 
L 628 0 
L 628 4666 
z
" transform="scale(0.015625)"/>
       <path id="DejaVuSans-70" d="M 1159 525 
L 1159 -1331 
L 581 -1331 
L 581 3500 
L 1159 3500 
L 1159 2969 
Q 1341 3281 1617 3432 
Q 1894 3584 2278 3584 
Q 2916 3584 3314 3078 
Q 3713 2572 3713 1747 
Q 3713 922 3314 415 
Q 2916 -91 2278 -91 
Q 1894 -91 1617 61 
Q 1341 213 1159 525 
z
M 3116 1747 
Q 3116 2381 2855 2742 
Q 2594 3103 2138 3103 
Q 1681 3103 1420 2742 
Q 1159 2381 1159 1747 
Q 1159 1113 1420 752 
Q 1681 391 2138 391 
Q 2594 391 2855 752 
Q 3116 1113 3116 1747 
z
" transform="scale(0.015625)"/>
       <path id="DejaVuSans-6f" d="M 1959 3097 
Q 1497 3097 1228 2736 
Q 959 2375 959 1747 
Q 959 1119 1226 758 
Q 1494 397 1959 397 
Q 2419 397 2687 759 
Q 2956 1122 2956 1747 
Q 2956 2369 2687 2733 
Q 2419 3097 1959 3097 
z
M 1959 3584 
Q 2709 3584 3137 3096 
Q 3566 2609 3566 1747 
Q 3566 888 3137 398 
Q 2709 -91 1959 -91 
Q 1206 -91 779 398 
Q 353 888 353 1747 
Q 353 2609 779 3096 
Q 1206 3584 1959 3584 
z
" transform="scale(0.015625)"/>
       <path id="DejaVuSans-71" d="M 947 1747 
Q 947 1113 1208 752 
Q 1469 391 1925 391 
Q 2381 391 2643 752 
Q 2906 1113 2906 1747 
Q 2906 2381 2643 2742 
Q 2381 3103 1925 3103 
Q 1469 3103 1208 2742 
Q 947 2381 947 1747 
z
M 2906 525 
Q 2725 213 2448 61 
Q 2172 -91 1784 -91 
Q 1150 -91 751 415 
Q 353 922 353 1747 
Q 353 2572 751 3078 
Q 1150 3584 1784 3584 
Q 2172 3584 2448 3432 
Q 2725 3281 2906 2969 
L 2906 3500 
L 3481 3500 
L 3481 -1331 
L 2906 -1331 
L 2906 525 
z
" transform="scale(0.015625)"/>
       <path id="DejaVuSans-75" d="M 544 1381 
L 544 3500 
L 1119 3500 
L 1119 1403 
Q 1119 906 1312 657 
Q 1506 409 1894 409 
Q 2359 409 2629 706 
Q 2900 1003 2900 1516 
L 2900 3500 
L 3475 3500 
L 3475 0 
L 2900 0 
L 2900 538 
Q 2691 219 2414 64 
Q 2138 -91 1772 -91 
Q 1169 -91 856 284 
Q 544 659 544 1381 
z
M 1991 3584 
L 1991 3584 
z
" transform="scale(0.015625)"/>
       <path id="DejaVuSans-65" d="M 3597 1894 
L 3597 1613 
L 953 1613 
Q 991 1019 1311 708 
Q 1631 397 2203 397 
Q 2534 397 2845 478 
Q 3156 559 3463 722 
L 3463 178 
Q 3153 47 2828 -22 
Q 2503 -91 2169 -91 
Q 1331 -91 842 396 
Q 353 884 353 1716 
Q 353 2575 817 3079 
Q 1281 3584 2069 3584 
Q 2775 3584 3186 3129 
Q 3597 2675 3597 1894 
z
M 3022 2063 
Q 3016 2534 2758 2815 
Q 2500 3097 2075 3097 
Q 1594 3097 1305 2825 
Q 1016 2553 972 2059 
L 3022 2063 
z
" transform="scale(0.015625)"/>
       <path id="DejaVuSans-73" d="M 2834 3397 
L 2834 2853 
Q 2591 2978 2328 3040 
Q 2066 3103 1784 3103 
Q 1356 3103 1142 2972 
Q 928 2841 928 2578 
Q 928 2378 1081 2264 
Q 1234 2150 1697 2047 
L 1894 2003 
Q 2506 1872 2764 1633 
Q 3022 1394 3022 966 
Q 3022 478 2636 193 
Q 2250 -91 1575 -91 
Q 1294 -91 989 -36 
Q 684 19 347 128 
L 347 722 
Q 666 556 975 473 
Q 1284 391 1588 391 
Q 1994 391 2212 530 
Q 2431 669 2431 922 
Q 2431 1156 2273 1281 
Q 2116 1406 1581 1522 
L 1381 1569 
Q 847 1681 609 1914 
Q 372 2147 372 2553 
Q 372 3047 722 3315 
Q 1072 3584 1716 3584 
Q 2034 3584 2315 3537 
Q 2597 3491 2834 3397 
z
" transform="scale(0.015625)"/>
      </defs>
      <use xlink:href="#DejaVuSans-45"/>
      <use xlink:href="#DejaVuSans-70" x="63.183594"/>
      <use xlink:href="#DejaVuSans-6f" x="126.660156"/>
      <use xlink:href="#DejaVuSans-71" x="187.841797"/>
      <use xlink:href="#DejaVuSans-75" x="251.318359"/>
      <use xlink:href="#DejaVuSans-65" x="314.697266"/>
      <use xlink:href="#DejaVuSans-73" x="376.220703"/>
     </g>
    </g>
   </g>
   <g id="matplotlib.axis_2">
    <g id="ytick_1">
     <g id="line2d_16">
      <defs>
       <path id="m6e77c623a7" d="M 0 0 
L -3.5 0 
" style="stroke: #000000; stroke-width: 0.8"/>
      </defs>
      <g>
       <use xlink:href="#m6e77c623a7" x="57.6" y="295.552853" style="stroke: #000000; stroke-width: 0.8"/>
      </g>
     </g>
     <g id="text_7">
      <!-- 0 -->
      <g transform="translate(44.2375 299.352072) scale(0.1 -0.1)">
       <use xlink:href="#DejaVuSans-30"/>
      </g>
     </g>
    </g>
    <g id="ytick_2">
     <g id="line2d_17">
      <g>
       <use xlink:href="#m6e77c623a7" x="57.6" y="264.99764" style="stroke: #000000; stroke-width: 0.8"/>
      </g>
     </g>
     <g id="text_8">
      <!-- 5 -->
      <g transform="translate(44.2375 268.796859) scale(0.1 -0.1)">
       <defs>
        <path id="DejaVuSans-35" d="M 691 4666 
L 3169 4666 
L 3169 4134 
L 1269 4134 
L 1269 2991 
Q 1406 3038 1543 3061 
Q 1681 3084 1819 3084 
Q 2600 3084 3056 2656 
Q 3513 2228 3513 1497 
Q 3513 744 3044 326 
Q 2575 -91 1722 -91 
Q 1428 -91 1123 -41 
Q 819 9 494 109 
L 494 744 
Q 775 591 1075 516 
Q 1375 441 1709 441 
Q 2250 441 2565 725 
Q 2881 1009 2881 1497 
Q 2881 1984 2565 2268 
Q 2250 2553 1709 2553 
Q 1456 2553 1204 2497 
Q 953 2441 691 2322 
L 691 4666 
z
" transform="scale(0.015625)"/>
       </defs>
       <use xlink:href="#DejaVuSans-35"/>
      </g>
     </g>
    </g>
    <g id="ytick_3">
     <g id="line2d_18">
      <g>
       <use xlink:href="#m6e77c623a7" x="57.6" y="234.442427" style="stroke: #000000; stroke-width: 0.8"/>
      </g>
     </g>
     <g id="text_9">
      <!-- 10 -->
      <g transform="translate(37.875 238.241646) scale(0.1 -0.1)">
       <defs>
        <path id="DejaVuSans-31" d="M 794 531 
L 1825 531 
L 1825 4091 
L 703 3866 
L 703 4441 
L 1819 4666 
L 2450 4666 
L 2450 531 
L 3481 531 
L 3481 0 
L 794 0 
L 794 531 
z
" transform="scale(0.015625)"/>
       </defs>
       <use xlink:href="#DejaVuSans-31"/>
       <use xlink:href="#DejaVuSans-30" x="63.623047"/>
      </g>
     </g>
    </g>
    <g id="ytick_4">
     <g id="line2d_19">
      <g>
       <use xlink:href="#m6e77c623a7" x="57.6" y="203.887214" style="stroke: #000000; stroke-width: 0.8"/>
      </g>
     </g>
     <g id="text_10">
      <!-- 15 -->
      <g transform="translate(37.875 207.686433) scale(0.1 -0.1)">
       <use xlink:href="#DejaVuSans-31"/>
       <use xlink:href="#DejaVuSans-35" x="63.623047"/>
      </g>
     </g>
    </g>
    <g id="ytick_5">
     <g id="line2d_20">
      <g>
       <use xlink:href="#m6e77c623a7" x="57.6" y="173.332001" style="stroke: #000000; stroke-width: 0.8"/>
      </g>
     </g>
     <g id="text_11">
      <!-- 20 -->
      <g transform="translate(37.875 177.13122) scale(0.1 -0.1)">
       <use xlink:href="#DejaVuSans-32"/>
       <use xlink:href="#DejaVuSans-30" x="63.623047"/>
      </g>
     </g>
    </g>
    <g id="ytick_6">
     <g id="line2d_21">
      <g>
       <use xlink:href="#m6e77c623a7" x="57.6" y="142.776788" style="stroke: #000000; stroke-width: 0.8"/>
      </g>
     </g>
     <g id="text_12">
      <!-- 25 -->
      <g transform="translate(37.875 146.576006) scale(0.1 -0.1)">
       <use xlink:href="#DejaVuSans-32"/>
       <use xlink:href="#DejaVuSans-35" x="63.623047"/>
      </g>
     </g>
    </g>
    <g id="ytick_7">
     <g id="line2d_22">
      <g>
       <use xlink:href="#m6e77c623a7" x="57.6" y="112.221575" style="stroke: #000000; stroke-width: 0.8"/>
      </g>
     </g>
     <g id="text_13">
      <!-- 30 -->
      <g transform="translate(37.875 116.020793) scale(0.1 -0.1)">
       <defs>
        <path id="DejaVuSans-33" d="M 2597 2516 
Q 3050 2419 3304 2112 
Q 3559 1806 3559 1356 
Q 3559 666 3084 287 
Q 2609 -91 1734 -91 
Q 1441 -91 1130 -33 
Q 819 25 488 141 
L 488 750 
Q 750 597 1062 519 
Q 1375 441 1716 441 
Q 2309 441 2620 675 
Q 2931 909 2931 1356 
Q 2931 1769 2642 2001 
Q 2353 2234 1838 2234 
L 1294 2234 
L 1294 2753 
L 1863 2753 
Q 2328 2753 2575 2939 
Q 2822 3125 2822 3475 
Q 2822 3834 2567 4026 
Q 2313 4219 1838 4219 
Q 1578 4219 1281 4162 
Q 984 4106 628 3988 
L 628 4550 
Q 988 4650 1302 4700 
Q 1616 4750 1894 4750 
Q 2613 4750 3031 4423 
Q 3450 4097 3450 3541 
Q 3450 3153 3228 2886 
Q 3006 2619 2597 2516 
z
" transform="scale(0.015625)"/>
       </defs>
       <use xlink:href="#DejaVuSans-33"/>
       <use xlink:href="#DejaVuSans-30" x="63.623047"/>
      </g>
     </g>
    </g>
    <g id="ytick_8">
     <g id="line2d_23">
      <g>
       <use xlink:href="#m6e77c623a7" x="57.6" y="81.666362" style="stroke: #000000; stroke-width: 0.8"/>
      </g>
     </g>
     <g id="text_14">
      <!-- 35 -->
      <g transform="translate(37.875 85.46558) scale(0.1 -0.1)">
       <use xlink:href="#DejaVuSans-33"/>
       <use xlink:href="#DejaVuSans-35" x="63.623047"/>
      </g>
     </g>
    </g>
    <g id="ytick_9">
     <g id="line2d_24">
      <g>
       <use xlink:href="#m6e77c623a7" x="57.6" y="51.111148" style="stroke: #000000; stroke-width: 0.8"/>
      </g>
     </g>
     <g id="text_15">
      <!-- 40 -->
      <g transform="translate(37.875 54.910367) scale(0.1 -0.1)">
       <use xlink:href="#DejaVuSans-34"/>
       <use xlink:href="#DejaVuSans-30" x="63.623047"/>
      </g>
     </g>
    </g>
    <g id="text_16">
     <!-- Fonction de co没t -->
     <g transform="translate(31.795312 216.143625) rotate(-90) scale(0.1 -0.1)">
      <defs>
       <path id="DejaVuSans-46" d="M 628 4666 
L 3309 4666 
L 3309 4134 
L 1259 4134 
L 1259 2759 
L 3109 2759 
L 3109 2228 
L 1259 2228 
L 1259 0 
L 628 0 
L 628 4666 
z
" transform="scale(0.015625)"/>
       <path id="DejaVuSans-6e" d="M 3513 2113 
L 3513 0 
L 2938 0 
L 2938 2094 
Q 2938 2591 2744 2837 
Q 2550 3084 2163 3084 
Q 1697 3084 1428 2787 
Q 1159 2491 1159 1978 
L 1159 0 
L 581 0 
L 581 3500 
L 1159 3500 
L 1159 2956 
Q 1366 3272 1645 3428 
Q 1925 3584 2291 3584 
Q 2894 3584 3203 3211 
Q 3513 2838 3513 2113 
z
" transform="scale(0.015625)"/>
       <path id="DejaVuSans-63" d="M 3122 3366 
L 3122 2828 
Q 2878 2963 2633 3030 
Q 2388 3097 2138 3097 
Q 1578 3097 1268 2742 
Q 959 2388 959 1747 
Q 959 1106 1268 751 
Q 1578 397 2138 397 
Q 2388 397 2633 464 
Q 2878 531 3122 666 
L 3122 134 
Q 2881 22 2623 -34 
Q 2366 -91 2075 -91 
Q 1284 -91 818 406 
Q 353 903 353 1747 
Q 353 2603 823 3093 
Q 1294 3584 2113 3584 
Q 2378 3584 2631 3529 
Q 2884 3475 3122 3366 
z
" transform="scale(0.015625)"/>
       <path id="DejaVuSans-74" d="M 1172 4494 
L 1172 3500 
L 2356 3500 
L 2356 3053 
L 1172 3053 
L 1172 1153 
Q 1172 725 1289 603 
Q 1406 481 1766 481 
L 2356 481 
L 2356 0 
L 1766 0 
Q 1100 0 847 248 
Q 594 497 594 1153 
L 594 3053 
L 172 3053 
L 172 3500 
L 594 3500 
L 594 4494 
L 1172 4494 
z
" transform="scale(0.015625)"/>
       <path id="DejaVuSans-69" d="M 603 3500 
L 1178 3500 
L 1178 0 
L 603 0 
L 603 3500 
z
M 603 4863 
L 1178 4863 
L 1178 4134 
L 603 4134 
L 603 4863 
z
" transform="scale(0.015625)"/>
       <path id="DejaVuSans-20" transform="scale(0.015625)"/>
       <path id="DejaVuSans-64" d="M 2906 2969 
L 2906 4863 
L 3481 4863 
L 3481 0 
L 2906 0 
L 2906 525 
Q 2725 213 2448 61 
Q 2172 -91 1784 -91 
Q 1150 -91 751 415 
Q 353 922 353 1747 
Q 353 2572 751 3078 
Q 1150 3584 1784 3584 
Q 2172 3584 2448 3432 
Q 2725 3281 2906 2969 
z
M 947 1747 
Q 947 1113 1208 752 
Q 1469 391 1925 391 
Q 2381 391 2643 752 
Q 2906 1113 2906 1747 
Q 2906 2381 2643 2742 
Q 2381 3103 1925 3103 
Q 1469 3103 1208 2742 
Q 947 2381 947 1747 
z
" transform="scale(0.015625)"/>
       <path id="DejaVuSans-fb" d="M 544 1381 
L 544 3500 
L 1119 3500 
L 1119 1403 
Q 1119 906 1312 657 
Q 1506 409 1894 409 
Q 2359 409 2629 706 
Q 2900 1003 2900 1516 
L 2900 3500 
L 3475 3500 
L 3475 0 
L 2900 0 
L 2900 538 
Q 2691 219 2414 64 
Q 2138 -91 1772 -91 
Q 1169 -91 856 284 
Q 544 659 544 1381 
z
M 1991 3584 
L 1991 3584 
z
M 1753 5119 
L 2215 5119 
L 2981 3944 
L 2547 3944 
L 1984 4709 
L 1422 3944 
L 987 3944 
L 1753 5119 
z
" transform="scale(0.015625)"/>
      </defs>
      <use xlink:href="#DejaVuSans-46"/>
      <use xlink:href="#DejaVuSans-6f" x="53.894531"/>
      <use xlink:href="#DejaVuSans-6e" x="115.076172"/>
      <use xlink:href="#DejaVuSans-63" x="178.455078"/>
      <use xlink:href="#DejaVuSans-74" x="233.435547"/>
      <use xlink:href="#DejaVuSans-69" x="272.644531"/>
      <use xlink:href="#DejaVuSans-6f" x="300.427734"/>
      <use xlink:href="#DejaVuSans-6e" x="361.609375"/>
      <use xlink:href="#DejaVuSans-20" x="424.988281"/>
      <use xlink:href="#DejaVuSans-64" x="456.775391"/>
      <use xlink:href="#DejaVuSans-65" x="520.251953"/>
      <use xlink:href="#DejaVuSans-20" x="581.775391"/>
      <use xlink:href="#DejaVuSans-63" x="613.5625"/>
      <use xlink:href="#DejaVuSans-6f" x="668.542969"/>
      <use xlink:href="#DejaVuSans-fb" x="729.724609"/>
      <use xlink:href="#DejaVuSans-74" x="793.103516"/>
     </g>
    </g>
   </g>
   <g id="patch_3">
    <path d="M 57.6 307.584 
L 57.6 41.472 
" style="fill: none; stroke: #000000; stroke-width: 0.8; stroke-linejoin: miter; stroke-linecap: square"/>
   </g>
   <g id="patch_4">
    <path d="M 414.72 307.584 
L 414.72 41.472 
" style="fill: none; stroke: #000000; stroke-width: 0.8; stroke-linejoin: miter; stroke-linecap: square"/>
   </g>
   <g id="patch_5">
    <path d="M 57.6 307.584 
L 414.72 307.584 
" style="fill: none; stroke: #000000; stroke-width: 0.8; stroke-linejoin: miter; stroke-linecap: square"/>
   </g>
   <g id="patch_6">
    <path d="M 57.6 41.472 
L 414.72 41.472 
" style="fill: none; stroke: #000000; stroke-width: 0.8; stroke-linejoin: miter; stroke-linecap: square"/>
   </g>
   <g id="line2d_25">
    <path d="M 73.832727 53.568 
L 77.480531 165.035561 
L 81.128335 207.308491 
L 84.776139 229.185452 
L 88.423943 236.826592 
L 92.071747 238.917601 
L 95.719551 240.545584 
L 99.367354 241.740179 
L 103.015158 243.358133 
L 106.662962 246.230971 
L 110.310766 249.444179 
L 113.95857 251.725741 
L 117.606374 253.603572 
L 121.254178 255.231853 
L 124.901982 257.017905 
L 128.549785 258.727151 
L 132.197589 260.545787 
L 135.845393 262.484628 
L 139.493197 264.23693 
L 143.141001 265.566911 
L 146.788805 266.688589 
L 150.436609 267.851351 
L 154.084413 268.955718 
L 157.732217 270.006336 
L 161.38002 270.982904 
L 165.027824 271.953215 
L 168.675628 273.090558 
L 172.323432 274.153249 
L 175.971236 275.304285 
L 179.61904 276.327107 
L 183.266844 285.315881 
L 186.914648 285.401469 
L 190.562451 285.545691 
L 194.210255 285.682223 
L 197.858059 285.820289 
L 201.505863 285.960122 
L 205.153667 286.101288 
L 208.801471 286.238695 
L 212.449275 286.369398 
L 216.097079 286.491184 
L 219.744883 286.60676 
L 223.392686 286.719197 
L 227.04049 286.829633 
L 230.688294 286.939622 
L 234.336098 287.047863 
L 237.983902 287.152094 
L 241.631706 287.251811 
L 245.27951 287.348391 
L 248.927314 287.442635 
L 252.575117 287.534877 
L 256.222921 287.625347 
L 259.870725 287.714033 
L 263.518529 287.80105 
L 267.166333 287.886783 
L 270.814137 287.971513 
L 274.461941 288.055386 
L 278.109745 288.138417 
L 281.757549 288.220609 
L 285.405352 288.301918 
L 289.053156 288.382527 
L 292.70096 288.496474 
L 296.348764 288.517257 
L 299.996568 288.537033 
L 303.644372 288.555872 
L 307.292176 288.573871 
L 310.93998 288.59113 
L 314.587783 288.607684 
L 318.235587 288.623599 
L 321.883391 288.638925 
L 325.531195 288.6537 
L 329.178999 288.667978 
L 332.826803 288.681769 
L 336.474607 288.695116 
L 340.122411 288.70807 
L 343.770215 288.720628 
L 347.418018 288.732814 
L 351.065822 288.744657 
L 354.713626 288.756178 
L 358.36143 288.767389 
L 362.009234 288.778329 
L 365.657038 288.788994 
L 369.304842 288.799416 
L 372.952646 288.8096 
L 376.600449 288.819571 
L 380.248253 288.829349 
L 383.896057 288.83893 
L 387.543861 288.848331 
L 391.191665 288.857564 
L 394.839469 288.866643 
L 398.487273 288.875549 
" clip-path="url(#pea99e44b79)" style="fill: none; stroke-dasharray: 5.55,2.4; stroke-dashoffset: 0; stroke: #000000; stroke-width: 1.5"/>
   </g>
   <g id="legend_1">
    <g id="patch_7">
     <path d="M 339.618594 151.620594 
L 410.17 151.620594 
Q 411.47 151.620594 411.47 150.320594 
L 411.47 46.022 
Q 411.47 44.722 410.17 44.722 
L 339.618594 44.722 
Q 338.318594 44.722 338.318594 46.022 
L 338.318594 150.320594 
Q 338.318594 151.620594 339.618594 151.620594 
z
" style="fill: #ffffff; opacity: 0.8; stroke: #cccccc; stroke-linejoin: miter"/>
    </g>
    <g id="line2d_26">
     <path d="M 340.918594 49.985984 
L 347.418594 49.985984 
L 353.918594 49.985984 
" style="fill: none; stroke-dasharray: 5.55,2.4; stroke-dashoffset: 0; stroke: #000000; stroke-width: 1.5"/>
    </g>
    <g id="text_17">
     <!-- 位 = 0.000e+00 -->
     <g transform="translate(359.118594 52.260984) scale(0.065 -0.065)">
      <defs>
       <path id="DejaVuSans-3bb" d="M 1981 4316 
L 3597 0 
L 2988 0 
L 2006 2588 
L 800 0 
L 191 0 
L 1725 3356 
L 1494 3975 
Q 1347 4369 1013 4369 
L 713 4369 
L 713 4863 
L 1078 4856 
Q 1784 4847 1981 4316 
z
" transform="scale(0.015625)"/>
       <path id="DejaVuSans-3d" d="M 678 2906 
L 4684 2906 
L 4684 2381 
L 678 2381 
L 678 2906 
z
M 678 1631 
L 4684 1631 
L 4684 1100 
L 678 1100 
L 678 1631 
z
" transform="scale(0.015625)"/>
       <path id="DejaVuSans-2e" d="M 684 794 
L 1344 794 
L 1344 0 
L 684 0 
L 684 794 
z
" transform="scale(0.015625)"/>
       <path id="DejaVuSans-2b" d="M 2944 4013 
L 2944 2272 
L 4684 2272 
L 4684 1741 
L 2944 1741 
L 2944 0 
L 2419 0 
L 2419 1741 
L 678 1741 
L 678 2272 
L 2419 2272 
L 2419 4013 
L 2944 4013 
z
" transform="scale(0.015625)"/>
      </defs>
      <use xlink:href="#DejaVuSans-3bb"/>
      <use xlink:href="#DejaVuSans-20" x="59.179688"/>
      <use xlink:href="#DejaVuSans-3d" x="90.966797"/>
      <use xlink:href="#DejaVuSans-20" x="174.755859"/>
      <use xlink:href="#DejaVuSans-30" x="206.542969"/>
      <use xlink:href="#DejaVuSans-2e" x="270.166016"/>
      <use xlink:href="#DejaVuSans-30" x="301.953125"/>
      <use xlink:href="#DejaVuSans-30" x="365.576172"/>
      <use xlink:href="#DejaVuSans-30" x="429.199219"/>
      <use xlink:href="#DejaVuSans-65" x="492.822266"/>
      <use xlink:href="#DejaVuSans-2b" x="554.345703"/>
      <use xlink:href="#DejaVuSans-30" x="638.134766"/>
      <use xlink:href="#DejaVuSans-30" x="701.757812"/>
     </g>
    </g>
    <g id="line2d_27">
     <path d="M 340.918594 59.526766 
L 347.418594 59.526766 
L 353.918594 59.526766 
" style="fill: none; stroke: #1f77b4; stroke-width: 1.5; stroke-linecap: square"/>
    </g>
    <g id="text_18">
     <!-- 位 = 1.000e-07 -->
     <g transform="translate(359.118594 61.801766) scale(0.065 -0.065)">
      <defs>
       <path id="DejaVuSans-2d" d="M 313 2009 
L 1997 2009 
L 1997 1497 
L 313 1497 
L 313 2009 
z
" transform="scale(0.015625)"/>
       <path id="DejaVuSans-37" d="M 525 4666 
L 3525 4666 
L 3525 4397 
L 1831 0 
L 1172 0 
L 2766 4134 
L 525 4134 
L 525 4666 
z
" transform="scale(0.015625)"/>
      </defs>
      <use xlink:href="#DejaVuSans-3bb"/>
      <use xlink:href="#DejaVuSans-20" x="59.179688"/>
      <use xlink:href="#DejaVuSans-3d" x="90.966797"/>
      <use xlink:href="#DejaVuSans-20" x="174.755859"/>
      <use xlink:href="#DejaVuSans-31" x="206.542969"/>
      <use xlink:href="#DejaVuSans-2e" x="270.166016"/>
      <use xlink:href="#DejaVuSans-30" x="301.953125"/>
      <use xlink:href="#DejaVuSans-30" x="365.576172"/>
      <use xlink:href="#DejaVuSans-30" x="429.199219"/>
      <use xlink:href="#DejaVuSans-65" x="492.822266"/>
      <use xlink:href="#DejaVuSans-2d" x="554.345703"/>
      <use xlink:href="#DejaVuSans-30" x="590.429688"/>
      <use xlink:href="#DejaVuSans-37" x="654.052734"/>
     </g>
    </g>
    <g id="line2d_28">
     <path d="M 340.918594 69.067547 
L 347.418594 69.067547 
L 353.918594 69.067547 
" style="fill: none; stroke: #ff7f0e; stroke-width: 1.5; stroke-linecap: square"/>
    </g>
    <g id="text_19">
     <!-- 位 = 1.000e-06 -->
     <g transform="translate(359.118594 71.342547) scale(0.065 -0.065)">
      <use xlink:href="#DejaVuSans-3bb"/>
      <use xlink:href="#DejaVuSans-20" x="59.179688"/>
      <use xlink:href="#DejaVuSans-3d" x="90.966797"/>
      <use xlink:href="#DejaVuSans-20" x="174.755859"/>
      <use xlink:href="#DejaVuSans-31" x="206.542969"/>
      <use xlink:href="#DejaVuSans-2e" x="270.166016"/>
      <use xlink:href="#DejaVuSans-30" x="301.953125"/>
      <use xlink:href="#DejaVuSans-30" x="365.576172"/>
      <use xlink:href="#DejaVuSans-30" x="429.199219"/>
      <use xlink:href="#DejaVuSans-65" x="492.822266"/>
      <use xlink:href="#DejaVuSans-2d" x="554.345703"/>
      <use xlink:href="#DejaVuSans-30" x="590.429688"/>
      <use xlink:href="#DejaVuSans-36" x="654.052734"/>
     </g>
    </g>
    <g id="line2d_29">
     <path d="M 340.918594 78.608328 
L 347.418594 78.608328 
L 353.918594 78.608328 
" style="fill: none; stroke: #2ca02c; stroke-width: 1.5; stroke-linecap: square"/>
    </g>
    <g id="text_20">
     <!-- 位 = 3.162e-06 -->
     <g transform="translate(359.118594 80.883328) scale(0.065 -0.065)">
      <use xlink:href="#DejaVuSans-3bb"/>
      <use xlink:href="#DejaVuSans-20" x="59.179688"/>
      <use xlink:href="#DejaVuSans-3d" x="90.966797"/>
      <use xlink:href="#DejaVuSans-20" x="174.755859"/>
      <use xlink:href="#DejaVuSans-33" x="206.542969"/>
      <use xlink:href="#DejaVuSans-2e" x="270.166016"/>
      <use xlink:href="#DejaVuSans-31" x="301.953125"/>
      <use xlink:href="#DejaVuSans-36" x="365.576172"/>
      <use xlink:href="#DejaVuSans-32" x="429.199219"/>
      <use xlink:href="#DejaVuSans-65" x="492.822266"/>
      <use xlink:href="#DejaVuSans-2d" x="554.345703"/>
      <use xlink:href="#DejaVuSans-30" x="590.429688"/>
      <use xlink:href="#DejaVuSans-36" x="654.052734"/>
     </g>
    </g>
    <g id="line2d_30">
     <path d="M 340.918594 88.149109 
L 347.418594 88.149109 
L 353.918594 88.149109 
" style="fill: none; stroke: #d62728; stroke-width: 1.5; stroke-linecap: square"/>
    </g>
    <g id="text_21">
     <!-- 位 = 1.000e-05 -->
     <g transform="translate(359.118594 90.424109) scale(0.065 -0.065)">
      <use xlink:href="#DejaVuSans-3bb"/>
      <use xlink:href="#DejaVuSans-20" x="59.179688"/>
      <use xlink:href="#DejaVuSans-3d" x="90.966797"/>
      <use xlink:href="#DejaVuSans-20" x="174.755859"/>
      <use xlink:href="#DejaVuSans-31" x="206.542969"/>
      <use xlink:href="#DejaVuSans-2e" x="270.166016"/>
      <use xlink:href="#DejaVuSans-30" x="301.953125"/>
      <use xlink:href="#DejaVuSans-30" x="365.576172"/>
      <use xlink:href="#DejaVuSans-30" x="429.199219"/>
      <use xlink:href="#DejaVuSans-65" x="492.822266"/>
      <use xlink:href="#DejaVuSans-2d" x="554.345703"/>
      <use xlink:href="#DejaVuSans-30" x="590.429688"/>
      <use xlink:href="#DejaVuSans-35" x="654.052734"/>
     </g>
    </g>
    <g id="line2d_31">
     <path d="M 340.918594 97.689891 
L 347.418594 97.689891 
L 353.918594 97.689891 
" style="fill: none; stroke: #9467bd; stroke-width: 1.5; stroke-linecap: square"/>
    </g>
    <g id="text_22">
     <!-- 位 = 3.162e-05 -->
     <g transform="translate(359.118594 99.964891) scale(0.065 -0.065)">
      <use xlink:href="#DejaVuSans-3bb"/>
      <use xlink:href="#DejaVuSans-20" x="59.179688"/>
      <use xlink:href="#DejaVuSans-3d" x="90.966797"/>
      <use xlink:href="#DejaVuSans-20" x="174.755859"/>
      <use xlink:href="#DejaVuSans-33" x="206.542969"/>
      <use xlink:href="#DejaVuSans-2e" x="270.166016"/>
      <use xlink:href="#DejaVuSans-31" x="301.953125"/>
      <use xlink:href="#DejaVuSans-36" x="365.576172"/>
      <use xlink:href="#DejaVuSans-32" x="429.199219"/>
      <use xlink:href="#DejaVuSans-65" x="492.822266"/>
      <use xlink:href="#DejaVuSans-2d" x="554.345703"/>
      <use xlink:href="#DejaVuSans-30" x="590.429688"/>
      <use xlink:href="#DejaVuSans-35" x="654.052734"/>
     </g>
    </g>
    <g id="line2d_32">
     <path d="M 340.918594 107.230672 
L 347.418594 107.230672 
L 353.918594 107.230672 
" style="fill: none; stroke: #8c564b; stroke-width: 1.5; stroke-linecap: square"/>
    </g>
    <g id="text_23">
     <!-- 位 = 1.000e-04 -->
     <g transform="translate(359.118594 109.505672) scale(0.065 -0.065)">
      <use xlink:href="#DejaVuSans-3bb"/>
      <use xlink:href="#DejaVuSans-20" x="59.179688"/>
      <use xlink:href="#DejaVuSans-3d" x="90.966797"/>
      <use xlink:href="#DejaVuSans-20" x="174.755859"/>
      <use xlink:href="#DejaVuSans-31" x="206.542969"/>
      <use xlink:href="#DejaVuSans-2e" x="270.166016"/>
      <use xlink:href="#DejaVuSans-30" x="301.953125"/>
      <use xlink:href="#DejaVuSans-30" x="365.576172"/>
      <use xlink:href="#DejaVuSans-30" x="429.199219"/>
      <use xlink:href="#DejaVuSans-65" x="492.822266"/>
      <use xlink:href="#DejaVuSans-2d" x="554.345703"/>
      <use xlink:href="#DejaVuSans-30" x="590.429688"/>
      <use xlink:href="#DejaVuSans-34" x="654.052734"/>
     </g>
    </g>
    <g id="line2d_33">
     <path d="M 340.918594 116.771453 
L 347.418594 116.771453 
L 353.918594 116.771453 
" style="fill: none; stroke: #e377c2; stroke-width: 1.5; stroke-linecap: square"/>
    </g>
    <g id="text_24">
     <!-- 位 = 3.162e-04 -->
     <g transform="translate(359.118594 119.046453) scale(0.065 -0.065)">
      <use xlink:href="#DejaVuSans-3bb"/>
      <use xlink:href="#DejaVuSans-20" x="59.179688"/>
      <use xlink:href="#DejaVuSans-3d" x="90.966797"/>
      <use xlink:href="#DejaVuSans-20" x="174.755859"/>
      <use xlink:href="#DejaVuSans-33" x="206.542969"/>
      <use xlink:href="#DejaVuSans-2e" x="270.166016"/>
      <use xlink:href="#DejaVuSans-31" x="301.953125"/>
      <use xlink:href="#DejaVuSans-36" x="365.576172"/>
      <use xlink:href="#DejaVuSans-32" x="429.199219"/>
      <use xlink:href="#DejaVuSans-65" x="492.822266"/>
      <use xlink:href="#DejaVuSans-2d" x="554.345703"/>
      <use xlink:href="#DejaVuSans-30" x="590.429688"/>
      <use xlink:href="#DejaVuSans-34" x="654.052734"/>
     </g>
    </g>
    <g id="line2d_34">
     <path d="M 340.918594 126.312234 
L 347.418594 126.312234 
L 353.918594 126.312234 
" style="fill: none; stroke: #7f7f7f; stroke-width: 1.5; stroke-linecap: square"/>
    </g>
    <g id="text_25">
     <!-- 位 = 1.000e-03 -->
     <g transform="translate(359.118594 128.587234) scale(0.065 -0.065)">
      <use xlink:href="#DejaVuSans-3bb"/>
      <use xlink:href="#DejaVuSans-20" x="59.179688"/>
      <use xlink:href="#DejaVuSans-3d" x="90.966797"/>
      <use xlink:href="#DejaVuSans-20" x="174.755859"/>
      <use xlink:href="#DejaVuSans-31" x="206.542969"/>
      <use xlink:href="#DejaVuSans-2e" x="270.166016"/>
      <use xlink:href="#DejaVuSans-30" x="301.953125"/>
      <use xlink:href="#DejaVuSans-30" x="365.576172"/>
      <use xlink:href="#DejaVuSans-30" x="429.199219"/>
      <use xlink:href="#DejaVuSans-65" x="492.822266"/>
      <use xlink:href="#DejaVuSans-2d" x="554.345703"/>
      <use xlink:href="#DejaVuSans-30" x="590.429688"/>
      <use xlink:href="#DejaVuSans-33" x="654.052734"/>
     </g>
    </g>
    <g id="line2d_35">
     <path d="M 340.918594 135.853016 
L 347.418594 135.853016 
L 353.918594 135.853016 
" style="fill: none; stroke: #bcbd22; stroke-width: 1.5; stroke-linecap: square"/>
    </g>
    <g id="text_26">
     <!-- 位 = 3.162e-03 -->
     <g transform="translate(359.118594 138.128016) scale(0.065 -0.065)">
      <use xlink:href="#DejaVuSans-3bb"/>
      <use xlink:href="#DejaVuSans-20" x="59.179688"/>
      <use xlink:href="#DejaVuSans-3d" x="90.966797"/>
      <use xlink:href="#DejaVuSans-20" x="174.755859"/>
      <use xlink:href="#DejaVuSans-33" x="206.542969"/>
      <use xlink:href="#DejaVuSans-2e" x="270.166016"/>
      <use xlink:href="#DejaVuSans-31" x="301.953125"/>
      <use xlink:href="#DejaVuSans-36" x="365.576172"/>
      <use xlink:href="#DejaVuSans-32" x="429.199219"/>
      <use xlink:href="#DejaVuSans-65" x="492.822266"/>
      <use xlink:href="#DejaVuSans-2d" x="554.345703"/>
      <use xlink:href="#DejaVuSans-30" x="590.429688"/>
      <use xlink:href="#DejaVuSans-33" x="654.052734"/>
     </g>
    </g>
    <g id="line2d_36">
     <path d="M 340.918594 145.393797 
L 347.418594 145.393797 
L 353.918594 145.393797 
" style="fill: none; stroke: #17becf; stroke-width: 1.5; stroke-linecap: square"/>
    </g>
    <g id="text_27">
     <!-- 位 = 1.000e-02 -->
     <g transform="translate(359.118594 147.668797) scale(0.065 -0.065)">
      <use xlink:href="#DejaVuSans-3bb"/>
      <use xlink:href="#DejaVuSans-20" x="59.179688"/>
      <use xlink:href="#DejaVuSans-3d" x="90.966797"/>
      <use xlink:href="#DejaVuSans-20" x="174.755859"/>
      <use xlink:href="#DejaVuSans-31" x="206.542969"/>
      <use xlink:href="#DejaVuSans-2e" x="270.166016"/>
      <use xlink:href="#DejaVuSans-30" x="301.953125"/>
      <use xlink:href="#DejaVuSans-30" x="365.576172"/>
      <use xlink:href="#DejaVuSans-30" x="429.199219"/>
      <use xlink:href="#DejaVuSans-65" x="492.822266"/>
      <use xlink:href="#DejaVuSans-2d" x="554.345703"/>
      <use xlink:href="#DejaVuSans-30" x="590.429688"/>
      <use xlink:href="#DejaVuSans-32" x="654.052734"/>
     </g>
    </g>
   </g>
  </g>
 </g>
 <defs>
  <clipPath id="pea99e44b79">
   <rect x="57.6" y="41.472" width="357.12" height="266.112"/>
  </clipPath>
 </defs>
</svg>
