<?xml version="1.0" encoding="utf-8" standalone="no"?>
<!DOCTYPE svg PUBLIC "-//W3C//DTD SVG 1.1//EN"
  "http://www.w3.org/Graphics/SVG/1.1/DTD/svg11.dtd">
<svg xmlns:xlink="http://www.w3.org/1999/xlink" width="460.8pt" height="345.6pt" viewBox="0 0 460.8 345.6" xmlns="http://www.w3.org/2000/svg" version="1.1">
 <metadata>
  <rdf:RDF xmlns:dc="http://purl.org/dc/elements/1.1/" xmlns:cc="http://creativecommons.org/ns#" xmlns:rdf="http://www.w3.org/1999/02/22-rdf-syntax-ns#">
   <cc:Work>
    <dc:type rdf:resource="http://purl.org/dc/dcmitype/StillImage"/>
    <dc:date>2024-03-20T01:31:28.773072</dc:date>
    <dc:format>image/svg+xml</dc:format>
    <dc:creator>
     <cc:Agent>
      <dc:title>Matplotlib v3.8.2, https://matplotlib.org/</dc:title>
     </cc:Agent>
    </dc:creator>
   </cc:Work>
  </rdf:RDF>
 </metadata>
 <defs>
  <style type="text/css">*{stroke-linejoin: round; stroke-linecap: butt}</style>
 </defs>
 <g id="figure_1">
  <g id="patch_1">
   <path d="M 0 345.6 
L 460.8 345.6 
L 460.8 0 
L 0 0 
z
" style="fill: #ffffff"/>
  </g>
  <g id="axes_1">
   <g id="patch_2">
    <path d="M 57.6 307.584 
L 414.72 307.584 
L 414.72 41.472 
L 57.6 41.472 
z
" style="fill: #ffffff"/>
   </g>
   <g id="line2d_1">
    <path d="M 73.832727 91.201327 
L 77.480531 187.098556 
L 81.128335 223.287621 
L 84.776139 242.202341 
L 88.423943 248.738029 
L 92.071747 250.50113 
L 95.719551 251.921423 
L 99.367354 252.947457 
L 103.015158 254.351557 
L 106.662962 256.756337 
L 110.310766 259.471284 
L 113.95857 261.50587 
L 117.606374 263.127299 
L 121.254178 264.538478 
L 124.901982 266.070871 
L 128.549785 267.569288 
L 132.197589 269.049501 
L 135.845393 270.666432 
L 139.493197 272.161779 
L 143.141001 273.33531 
L 146.788805 274.305981 
L 150.436609 275.284559 
L 154.084413 276.220107 
L 157.732217 277.112271 
L 161.38002 277.956683 
L 165.027824 278.771008 
L 168.675628 279.737372 
L 172.323432 280.626449 
L 175.971236 281.583101 
L 179.61904 282.449067 
L 183.266844 290.365132 
L 186.914648 290.438965 
L 190.562451 290.567406 
L 194.210255 290.688575 
L 197.858059 290.811508 
L 201.505863 290.934262 
L 205.153667 291.057102 
L 208.801471 291.176269 
L 212.449275 291.289211 
L 216.097079 291.394314 
L 219.744883 291.493725 
L 223.392686 291.590611 
L 227.04049 291.686184 
L 230.688294 291.781732 
L 234.336098 291.876489 
L 237.983902 291.968108 
L 241.631706 292.055792 
L 245.27951 292.140461 
L 248.927314 292.222755 
L 252.575117 292.303135 
L 256.222921 292.381892 
L 259.870725 292.459146 
L 263.518529 292.534971 
L 267.166333 292.609657 
L 270.814137 292.683518 
L 274.461941 292.756717 
L 278.109745 292.829284 
L 281.757549 292.901212 
L 285.405352 292.972484 
L 289.053156 293.043265 
L 292.70096 293.143227 
L 296.348764 293.161593 
L 299.996568 293.179061 
L 303.644372 293.195731 
L 307.292176 293.211657 
L 310.93998 293.226923 
L 314.587783 293.241571 
L 318.235587 293.25565 
L 321.883391 293.26921 
L 325.531195 293.282284 
L 329.178999 293.294912 
L 332.826803 293.307108 
L 336.474607 293.318903 
L 340.122411 293.330327 
L 343.770215 293.34139 
L 347.418018 293.352123 
L 351.065822 293.362567 
L 354.713626 293.37272 
L 358.36143 293.382616 
L 362.009234 293.39226 
L 365.657038 293.401669 
L 369.304842 293.410863 
L 372.952646 293.419848 
L 376.600449 293.428636 
L 380.248253 293.43724 
L 383.896057 293.445678 
L 387.543861 293.453952 
L 391.191665 293.462083 
L 394.839469 293.470071 
L 398.487273 293.477921 
" clip-path="url(#p6308af5ca5)" style="fill: none; stroke: #1f77b4; stroke-width: 1.5; stroke-linecap: square"/>
   </g>
   <g id="line2d_2">
    <path d="M 73.832727 90.429669 
L 77.480531 186.410101 
L 81.128335 222.337108 
L 84.776139 241.169844 
L 88.423943 247.422859 
L 92.071747 248.949613 
L 95.719551 250.541634 
L 99.367354 251.774222 
L 103.015158 253.120132 
L 106.662962 255.225144 
L 110.310766 257.80288 
L 113.95857 259.96596 
L 117.606374 261.567551 
L 121.254178 262.902201 
L 124.901982 264.22916 
L 128.549785 265.728853 
L 132.197589 267.200463 
L 135.845393 268.549023 
L 139.493197 269.798446 
L 143.141001 270.918319 
L 146.788805 271.957055 
L 150.436609 272.927366 
L 154.084413 273.842126 
L 157.732217 274.665958 
L 161.38002 275.421848 
L 165.027824 276.11531 
L 168.675628 276.864875 
L 172.323432 277.522274 
L 175.971236 278.267957 
L 179.61904 279.010864 
L 183.266844 288.385954 
L 186.914648 288.453932 
L 190.562451 288.638506 
L 194.210255 288.85266 
L 197.858059 289.070153 
L 201.505863 289.268165 
L 205.153667 289.445209 
L 208.801471 289.605504 
L 212.449275 289.74633 
L 216.097079 289.872443 
L 219.744883 289.98638 
L 223.392686 290.093348 
L 227.04049 290.196562 
L 230.688294 290.297937 
L 234.336098 290.399475 
L 237.983902 290.499265 
L 241.631706 290.595819 
L 245.27951 290.690632 
L 248.927314 290.784081 
L 252.575117 290.875943 
L 256.222921 290.966292 
L 259.870725 291.055182 
L 263.518529 291.142564 
L 267.166333 291.22853 
L 270.814137 291.313211 
L 274.461941 291.39682 
L 278.109745 291.479296 
L 281.757549 291.560647 
L 285.405352 291.64104 
L 289.053156 291.7209 
L 292.70096 291.829694 
L 296.348764 291.850759 
L 299.996568 291.870728 
L 303.644372 291.889704 
L 307.292176 291.907732 
L 310.93998 291.924919 
L 314.587783 291.941307 
L 318.235587 291.956973 
L 321.883391 291.971965 
L 325.531195 291.986345 
L 329.178999 292.000154 
L 332.826803 292.013444 
L 336.474607 292.026258 
L 340.122411 292.038627 
L 343.770215 292.050589 
L 347.418018 292.062176 
L 351.065822 292.073407 
L 354.713626 292.084313 
L 358.36143 292.094923 
L 362.009234 292.105269 
L 365.657038 292.115364 
L 369.304842 292.125217 
L 372.952646 292.13485 
L 376.600449 292.144281 
L 380.248253 292.153521 
L 383.896057 292.162583 
L 387.543861 292.171491 
L 391.191665 292.180237 
L 394.839469 292.188838 
L 398.487273 292.197291 
" clip-path="url(#p6308af5ca5)" style="fill: none; stroke: #ff7f0e; stroke-width: 1.5; stroke-linecap: square"/>
   </g>
   <g id="line2d_3">
    <path d="M 73.832727 88.906349 
L 77.480531 185.200379 
L 81.128335 220.124982 
L 84.776139 238.691088 
L 88.423943 244.497911 
L 92.071747 245.710561 
L 95.719551 246.8338 
L 99.367354 248.780543 
L 103.015158 250.215519 
L 106.662962 252.089866 
L 110.310766 254.319889 
L 113.95857 256.775568 
L 117.606374 258.955432 
L 121.254178 260.506154 
L 124.901982 261.711976 
L 128.549785 262.797863 
L 132.197589 263.943592 
L 135.845393 265.064227 
L 139.493197 266.050236 
L 143.141001 266.799028 
L 146.788805 267.462871 
L 150.436609 268.066115 
L 154.084413 268.669306 
L 157.732217 269.23538 
L 161.38002 269.793256 
L 165.027824 270.313411 
L 168.675628 270.857744 
L 172.323432 271.392833 
L 175.971236 271.931415 
L 179.61904 272.42768 
L 183.266844 284.730994 
L 186.914648 284.728624 
L 190.562451 284.91395 
L 194.210255 285.166941 
L 197.858059 285.451441 
L 201.505863 285.759157 
L 205.153667 286.073468 
L 208.801471 286.376066 
L 212.449275 286.658967 
L 216.097079 286.915957 
L 219.744883 287.145293 
L 223.392686 287.348818 
L 227.04049 287.532679 
L 230.688294 287.70235 
L 234.336098 287.86105 
L 237.983902 288.012692 
L 241.631706 288.161046 
L 245.27951 288.305411 
L 248.927314 288.444431 
L 252.575117 288.577156 
L 256.222921 288.704767 
L 259.870725 288.828848 
L 263.518529 288.950601 
L 267.166333 289.070569 
L 270.814137 289.188907 
L 274.461941 289.305895 
L 278.109745 289.421571 
L 281.757549 289.535816 
L 285.405352 289.648537 
L 289.053156 289.759655 
L 292.70096 289.897688 
L 296.348764 289.928121 
L 299.996568 289.956637 
L 303.644372 289.983562 
L 307.292176 290.009063 
L 310.93998 290.033195 
L 314.587783 290.056144 
L 318.235587 290.077975 
L 321.883391 290.098809 
L 325.531195 290.11872 
L 329.178999 290.137796 
L 332.826803 290.156076 
L 336.474607 290.173667 
L 340.122411 290.190595 
L 343.770215 290.206926 
L 347.418018 290.222786 
L 351.065822 290.238133 
L 354.713626 290.25302 
L 358.36143 290.267444 
L 362.009234 290.28148 
L 365.657038 290.295151 
L 369.304842 290.308478 
L 372.952646 290.321492 
L 376.600449 290.334211 
L 380.248253 290.346664 
L 383.896057 290.358857 
L 387.543861 290.370796 
L 391.191665 290.382504 
L 394.839469 290.394005 
L 398.487273 290.405315 
" clip-path="url(#p6308af5ca5)" style="fill: none; stroke: #2ca02c; stroke-width: 1.5; stroke-linecap: square"/>
   </g>
   <g id="line2d_4">
    <path d="M 73.832727 83.648778 
L 77.480531 182.029748 
L 81.128335 215.116847 
L 84.776139 232.968164 
L 88.423943 237.708025 
L 92.071747 238.45802 
L 95.719551 239.679767 
L 99.367354 241.805555 
L 103.015158 243.796413 
L 106.662962 245.866538 
L 110.310766 247.670975 
L 113.95857 249.161293 
L 117.606374 250.389188 
L 121.254178 251.551565 
L 124.901982 252.533154 
L 128.549785 253.359036 
L 132.197589 254.124507 
L 135.845393 254.808344 
L 139.493197 255.420301 
L 143.141001 255.884585 
L 146.788805 256.269155 
L 150.436609 256.542817 
L 154.084413 256.93684 
L 157.732217 257.184375 
L 161.38002 257.293439 
L 165.027824 257.33832 
L 168.675628 257.414368 
L 172.323432 257.544043 
L 175.971236 257.657226 
L 179.61904 257.63117 
L 183.266844 277.587593 
L 186.914648 277.589245 
L 190.562451 277.88391 
L 194.210255 278.328066 
L 197.858059 278.837042 
L 201.505863 279.367379 
L 205.153667 279.889203 
L 208.801471 280.403494 
L 212.449275 280.906002 
L 216.097079 281.384824 
L 219.744883 281.833159 
L 223.392686 282.250295 
L 227.04049 282.634696 
L 230.688294 282.984731 
L 234.336098 283.308071 
L 237.983902 283.611623 
L 241.631706 283.899187 
L 245.27951 284.174391 
L 248.927314 284.440291 
L 252.575117 284.696699 
L 256.222921 284.945888 
L 259.870725 285.188862 
L 263.518529 285.427032 
L 267.166333 285.660892 
L 270.814137 285.890451 
L 274.461941 286.115349 
L 278.109745 286.336173 
L 281.757549 286.553254 
L 285.405352 286.766215 
L 289.053156 286.976248 
L 292.70096 287.214728 
L 296.348764 287.273929 
L 299.996568 287.328975 
L 303.644372 287.380389 
L 307.292176 287.42858 
L 310.93998 287.473949 
L 314.587783 287.516817 
L 318.235587 287.557441 
L 321.883391 287.596085 
L 325.531195 287.632904 
L 329.178999 287.668113 
L 332.826803 287.701874 
L 336.474607 287.734326 
L 340.122411 287.765603 
L 343.770215 287.795801 
L 347.418018 287.825029 
L 351.065822 287.85337 
L 354.713626 287.880912 
L 358.36143 287.907734 
L 362.009234 287.933881 
L 365.657038 287.959406 
L 369.304842 287.984376 
L 372.952646 288.008849 
L 376.600449 288.032857 
L 380.248253 288.056452 
L 383.896057 288.07967 
L 387.543861 288.102527 
L 391.191665 288.125048 
L 394.839469 288.147263 
L 398.487273 288.169213 
" clip-path="url(#p6308af5ca5)" style="fill: none; stroke: #d62728; stroke-width: 1.5; stroke-linecap: square"/>
   </g>
   <g id="line2d_5">
    <path d="M 73.832727 72.120029 
L 77.480531 176.488376 
L 81.128335 209.301342 
L 84.776139 225.710328 
L 88.423943 232.989527 
L 92.071747 237.384222 
L 95.719551 237.996188 
L 99.367354 240.35543 
L 103.015158 239.994604 
L 106.662962 240.921938 
L 110.310766 240.266665 
L 113.95857 240.885201 
L 117.606374 239.62446 
L 121.254178 240.413936 
L 124.901982 240.629071 
L 128.549785 241.288481 
L 132.197589 241.348046 
L 135.845393 241.935144 
L 139.493197 241.599366 
L 143.141001 241.475138 
L 146.788805 240.510855 
L 150.436609 240.824834 
L 154.084413 241.235265 
L 157.732217 241.584016 
L 161.38002 241.973486 
L 165.027824 242.21897 
L 168.675628 241.965313 
L 172.323432 241.707107 
L 175.971236 241.002193 
L 179.61904 240.986788 
L 183.266844 269.584414 
L 186.914648 269.774621 
L 190.562451 270.78524 
L 194.210255 271.883394 
L 197.858059 272.95801 
L 201.505863 274.009145 
L 205.153667 275.033957 
L 208.801471 276.024076 
L 212.449275 276.95645 
L 216.097079 277.812514 
L 219.744883 278.603577 
L 223.392686 279.35264 
L 227.04049 280.072848 
L 230.688294 280.763655 
L 234.336098 281.426423 
L 237.983902 282.06163 
L 241.631706 282.673554 
L 245.27951 283.2661 
L 248.927314 283.839289 
L 252.575117 284.390666 
L 256.222921 284.920542 
L 259.870725 285.430091 
L 263.518529 285.920286 
L 267.166333 286.391769 
L 270.814137 286.845053 
L 274.461941 287.280559 
L 278.109745 287.699046 
L 281.757549 288.101138 
L 285.405352 288.487713 
L 289.053156 288.859224 
L 292.70096 289.347439 
L 296.348764 289.472277 
L 299.996568 289.579322 
L 303.644372 289.672284 
L 307.292176 289.754118 
L 310.93998 289.82712 
L 314.587783 289.893031 
L 318.235587 289.953339 
L 321.883391 290.008963 
L 325.531195 290.060805 
L 329.178999 290.109556 
L 332.826803 290.155787 
L 336.474607 290.199915 
L 340.122411 290.242282 
L 343.770215 290.283207 
L 347.418018 290.322898 
L 351.065822 290.361554 
L 354.713626 290.399412 
L 358.36143 290.436537 
L 362.009234 290.473764 
L 365.657038 290.510421 
L 369.304842 290.546565 
L 372.952646 290.582139 
L 376.600449 290.61728 
L 380.248253 290.652018 
L 383.896057 290.686407 
L 387.543861 290.72046 
L 391.191665 290.754252 
L 394.839469 290.787783 
L 398.487273 290.821044 
" clip-path="url(#p6308af5ca5)" style="fill: none; stroke: #9467bd; stroke-width: 1.5; stroke-linecap: square"/>
   </g>
   <g id="line2d_6">
    <path d="M 73.832727 53.568 
L 77.480531 187.59164 
L 81.128335 216.348653 
L 84.776139 222.157222 
L 88.423943 221.110848 
L 92.071747 220.821491 
L 95.719551 221.107012 
L 99.367354 221.628709 
L 103.015158 220.833231 
L 106.662962 221.008393 
L 110.310766 220.241579 
L 113.95857 221.00047 
L 117.606374 221.274472 
L 121.254178 221.343073 
L 124.901982 221.450834 
L 128.549785 221.229651 
L 132.197589 221.204287 
L 135.845393 220.861559 
L 139.493197 221.333605 
L 143.141001 221.018353 
L 146.788805 219.566608 
L 150.436609 221.678846 
L 154.084413 221.359261 
L 157.732217 221.520583 
L 161.38002 221.418765 
L 165.027824 220.945284 
L 168.675628 220.953247 
L 172.323432 220.909278 
L 175.971236 221.693755 
L 179.61904 221.155549 
L 183.266844 253.586783 
L 186.914648 256.45529 
L 190.562451 260.530668 
L 194.210255 264.479345 
L 197.858059 267.97405 
L 201.505863 271.046043 
L 205.153667 273.770258 
L 208.801471 276.180526 
L 212.449275 278.309927 
L 216.097079 280.195764 
L 219.744883 281.867257 
L 223.392686 283.366523 
L 227.04049 284.704422 
L 230.688294 285.900427 
L 234.336098 286.959231 
L 237.983902 287.889049 
L 241.631706 288.697475 
L 245.27951 289.388034 
L 248.927314 289.967123 
L 252.575117 290.438462 
L 256.222921 290.814263 
L 259.870725 291.107233 
L 263.518529 291.335422 
L 267.166333 291.512821 
L 270.814137 291.656326 
L 274.461941 291.776219 
L 278.109745 291.882991 
L 281.757549 291.978702 
L 285.405352 292.068112 
L 289.053156 292.146882 
L 292.70096 294.54419 
L 296.348764 294.685245 
L 299.996568 294.77018 
L 303.644372 294.836668 
L 307.292176 294.893298 
L 310.93998 294.943469 
L 314.587783 294.98897 
L 318.235587 295.030569 
L 321.883391 295.068751 
L 325.531195 295.103864 
L 329.178999 295.136259 
L 332.826803 295.166275 
L 336.474607 295.19408 
L 340.122411 295.219908 
L 343.770215 295.243956 
L 347.418018 295.266467 
L 351.065822 295.287632 
L 354.713626 295.307562 
L 358.36143 295.326433 
L 362.009234 295.344343 
L 365.657038 295.361377 
L 369.304842 295.377622 
L 372.952646 295.393179 
L 376.600449 295.408121 
L 380.248253 295.422547 
L 383.896057 295.436505 
L 387.543861 295.450015 
L 391.191665 295.463096 
L 394.839469 295.475752 
L 398.487273 295.488 
" clip-path="url(#p6308af5ca5)" style="fill: none; stroke: #8c564b; stroke-width: 1.5; stroke-linecap: square"/>
   </g>
   <g id="line2d_7">
    <path d="M 73.832727 67.104467 
L 77.480531 155.956732 
L 81.128335 148.080284 
L 84.776139 151.396231 
L 88.423943 150.518392 
L 92.071747 150.610752 
L 95.719551 150.821379 
L 99.367354 150.567034 
L 103.015158 150.806876 
L 106.662962 150.626528 
L 110.310766 150.746901 
L 113.95857 150.661751 
L 117.606374 150.762887 
L 121.254178 150.648101 
L 124.901982 150.773278 
L 128.549785 150.639988 
L 132.197589 150.782645 
L 135.845393 150.632616 
L 139.493197 150.78783 
L 143.141001 150.630239 
L 146.788805 150.7877 
L 150.436609 150.632345 
L 154.084413 150.783698 
L 157.732217 150.636979 
L 161.38002 150.778433 
L 165.027824 150.641532 
L 168.675628 150.774612 
L 172.323432 150.643839 
L 175.971236 150.773749 
L 179.61904 150.643147 
L 183.266844 200.415701 
L 186.914648 230.163023 
L 190.562451 250.429445 
L 194.210255 263.934638 
L 197.858059 272.915737 
L 201.505863 278.872066 
L 205.153667 282.608198 
L 208.801471 284.816974 
L 212.449275 286.168812 
L 216.097079 287.122483 
L 219.744883 287.762908 
L 223.392686 288.105589 
L 227.04049 288.231936 
L 230.688294 288.257245 
L 234.336098 288.242424 
L 237.983902 288.245021 
L 241.631706 288.260504 
L 245.27951 288.289492 
L 248.927314 288.310897 
L 252.575117 288.332624 
L 256.222921 288.34117 
L 259.870725 288.354397 
L 263.518529 288.360368 
L 267.166333 288.373192 
L 270.814137 288.377745 
L 274.461941 288.388173 
L 278.109745 288.388704 
L 281.757549 288.395209 
L 285.405352 288.393214 
L 289.053156 288.399398 
L 292.70096 292.747702 
L 296.348764 292.808351 
L 299.996568 292.836426 
L 303.644372 292.880558 
L 307.292176 292.93784 
L 310.93998 292.999896 
L 314.587783 293.060527 
L 318.235587 293.116078 
L 321.883391 293.165104 
L 325.531195 293.207284 
L 329.178999 293.243065 
L 332.826803 293.272999 
L 336.474607 293.297981 
L 340.122411 293.318665 
L 343.770215 293.335595 
L 347.418018 293.349549 
L 351.065822 293.360964 
L 354.713626 293.370071 
L 358.36143 293.377372 
L 362.009234 293.383339 
L 365.657038 293.388006 
L 369.304842 293.391547 
L 372.952646 293.394124 
L 376.600449 293.396087 
L 380.248253 293.397452 
L 383.896057 293.398312 
L 387.543861 293.398702 
L 391.191665 293.398741 
L 394.839469 293.398485 
L 398.487273 293.397972 
" clip-path="url(#p6308af5ca5)" style="fill: none; stroke: #e377c2; stroke-width: 1.5; stroke-linecap: square"/>
   </g>
   <g id="line2d_8">
    <path d="M 73.832727 132.534466 
L 77.480531 134.736261 
L 81.128335 134.719372 
L 84.776139 134.719542 
L 88.423943 134.719532 
L 92.071747 134.719532 
L 95.719551 134.719532 
L 99.367354 134.719532 
L 103.015158 134.719532 
L 106.662962 134.719542 
L 110.310766 134.719542 
L 113.95857 134.719532 
L 117.606374 134.719532 
L 121.254178 134.719532 
L 124.901982 134.719542 
L 128.549785 134.719532 
L 132.197589 134.719542 
L 135.845393 134.719542 
L 139.493197 134.719532 
L 143.141001 134.719542 
L 146.788805 134.719532 
L 150.436609 134.719532 
L 154.084413 134.719542 
L 157.732217 134.719542 
L 161.38002 134.719542 
L 165.027824 134.719542 
L 168.675628 134.719532 
L 172.323432 134.719532 
L 175.971236 134.719542 
L 179.61904 134.719532 
L 183.266844 237.75244 
L 186.914648 273.129432 
L 190.562451 281.231914 
L 194.210255 282.127606 
L 197.858059 281.321496 
L 201.505863 281.068148 
L 205.153667 280.991633 
L 208.801471 281.050357 
L 212.449275 281.0271 
L 216.097079 281.07377 
L 219.744883 281.053686 
L 223.392686 281.101585 
L 227.04049 281.081754 
L 230.688294 281.105481 
L 234.336098 281.0822 
L 237.983902 281.088767 
L 241.631706 281.065884 
L 245.27951 281.090822 
L 248.927314 281.082386 
L 252.575117 281.10608 
L 256.222921 281.083281 
L 259.870725 281.101112 
L 263.518529 281.074616 
L 267.166333 281.092503 
L 270.814137 281.065389 
L 274.461941 281.0974 
L 278.109745 281.078597 
L 281.757549 281.105072 
L 285.405352 281.082416 
L 289.053156 281.102164 
L 292.70096 287.316022 
L 296.348764 287.325285 
L 299.996568 287.49658 
L 303.644372 287.710209 
L 307.292176 287.890092 
L 310.93998 288.020208 
L 314.587783 288.107938 
L 318.235587 288.164896 
L 321.883391 288.201006 
L 325.531195 288.223808 
L 329.178999 288.238407 
L 332.826803 288.248223 
L 336.474607 288.255283 
L 340.122411 288.260908 
L 343.770215 288.265734 
L 347.418018 288.270151 
L 351.065822 288.274427 
L 354.713626 288.278561 
L 358.36143 288.282578 
L 362.009234 288.286508 
L 365.657038 288.290316 
L 369.304842 288.294005 
L 372.952646 288.297574 
L 376.600449 288.300955 
L 380.248253 288.304186 
L 383.896057 288.307279 
L 387.543861 288.310196 
L 391.191665 288.312965 
L 394.839469 288.315553 
L 398.487273 288.318005 
" clip-path="url(#p6308af5ca5)" style="fill: none; stroke: #7f7f7f; stroke-width: 1.5; stroke-linecap: square"/>
   </g>
   <g id="line2d_9">
    <path d="M 73.832727 177.527468 
L 77.480531 177.527508 
L 81.128335 177.527508 
L 84.776139 177.527508 
L 88.423943 177.527508 
L 92.071747 177.527508 
L 95.719551 177.527508 
L 99.367354 177.527508 
L 103.015158 177.527508 
L 106.662962 177.527508 
L 110.310766 177.527508 
L 113.95857 177.527508 
L 117.606374 177.527508 
L 121.254178 177.527508 
L 124.901982 177.527508 
L 128.549785 177.527508 
L 132.197589 177.527508 
L 135.845393 177.527508 
L 139.493197 177.527508 
L 143.141001 177.527508 
L 146.788805 177.527508 
L 150.436609 177.527508 
L 154.084413 177.527508 
L 157.732217 177.527508 
L 161.38002 177.527508 
L 165.027824 177.527508 
L 168.675628 177.527508 
L 172.323432 177.527508 
L 175.971236 177.527508 
L 179.61904 177.527508 
L 183.266844 273.493262 
L 186.914648 267.062351 
L 190.562451 266.6485 
L 194.210255 266.630813 
L 197.858059 266.628627 
L 201.505863 266.628835 
L 205.153667 266.628672 
L 208.801471 266.628722 
L 212.449275 266.628692 
L 216.097079 266.628702 
L 219.744883 266.628697 
L 223.392686 266.628702 
L 227.04049 266.628697 
L 230.688294 266.628699 
L 234.336098 266.628697 
L 237.983902 266.628699 
L 241.631706 266.628699 
L 245.27951 266.628699 
L 248.927314 266.628699 
L 252.575117 266.628699 
L 256.222921 266.628699 
L 259.870725 266.628699 
L 263.518529 266.628699 
L 267.166333 266.628702 
L 270.814137 266.628699 
L 274.461941 266.628702 
L 278.109745 266.628699 
L 281.757549 266.628699 
L 285.405352 266.628699 
L 289.053156 266.628702 
L 292.70096 276.694777 
L 296.348764 276.683471 
L 299.996568 277.120252 
L 303.644372 277.455138 
L 307.292176 277.664799 
L 310.93998 277.794361 
L 314.587783 277.879485 
L 318.235587 277.939343 
L 321.883391 277.983474 
L 325.531195 278.016857 
L 329.178999 278.042477 
L 332.826803 278.06228 
L 336.474607 278.077617 
L 340.122411 278.089547 
L 343.770215 278.09887 
L 347.418018 278.106189 
L 351.065822 278.11194 
L 354.713626 278.116469 
L 358.36143 278.120077 
L 362.009234 278.12293 
L 365.657038 278.125204 
L 369.304842 278.127035 
L 372.952646 278.128496 
L 376.600449 278.129665 
L 380.248253 278.130605 
L 383.896057 278.131375 
L 387.543861 278.131997 
L 391.191665 278.132491 
L 394.839469 278.132894 
L 398.487273 278.13323 
" clip-path="url(#p6308af5ca5)" style="fill: none; stroke: #bcbd22; stroke-width: 1.5; stroke-linecap: square"/>
   </g>
   <g id="line2d_10">
    <path d="M 73.832727 216.256177 
L 77.480531 216.256177 
L 81.128335 216.256177 
L 84.776139 216.256177 
L 88.423943 216.256177 
L 92.071747 216.256177 
L 95.719551 216.256177 
L 99.367354 216.256177 
L 103.015158 216.256177 
L 106.662962 216.256177 
L 110.310766 216.256177 
L 113.95857 216.256177 
L 117.606374 216.256177 
L 121.254178 216.256177 
L 124.901982 216.256177 
L 128.549785 216.256177 
L 132.197589 216.256177 
L 135.845393 216.256177 
L 139.493197 216.256177 
L 143.141001 216.256177 
L 146.788805 216.256177 
L 150.436609 216.256177 
L 154.084413 216.256177 
L 157.732217 216.256177 
L 161.38002 216.256177 
L 165.027824 216.256177 
L 168.675628 216.256177 
L 172.323432 216.256177 
L 175.971236 216.256177 
L 179.61904 216.256177 
L 183.266844 261.933969 
L 186.914648 261.493504 
L 190.562451 261.491511 
L 194.210255 261.491498 
L 197.858059 261.491498 
L 201.505863 261.491498 
L 205.153667 261.491498 
L 208.801471 261.491498 
L 212.449275 261.491498 
L 216.097079 261.491498 
L 219.744883 261.491498 
L 223.392686 261.491498 
L 227.04049 261.491498 
L 230.688294 261.491498 
L 234.336098 261.491498 
L 237.983902 261.491498 
L 241.631706 261.491498 
L 245.27951 261.491498 
L 248.927314 261.491498 
L 252.575117 261.491498 
L 256.222921 261.491498 
L 259.870725 261.491498 
L 263.518529 261.491498 
L 267.166333 261.491498 
L 270.814137 261.491498 
L 274.461941 261.491498 
L 278.109745 261.491498 
L 281.757549 261.491498 
L 285.405352 261.491498 
L 289.053156 261.491498 
L 292.70096 270.709039 
L 296.348764 268.881203 
L 299.996568 267.819287 
L 303.644372 267.199267 
L 307.292176 266.837967 
L 310.93998 266.628128 
L 314.587783 266.506587 
L 318.235587 266.436321 
L 321.883391 266.395735 
L 325.531195 266.372274 
L 329.178999 266.358709 
L 332.826803 266.350869 
L 336.474607 266.346305 
L 340.122411 266.343683 
L 343.770215 266.342141 
L 347.418018 266.341255 
L 351.065822 266.340726 
L 354.713626 266.340423 
L 358.36143 266.34025 
L 362.009234 266.34014 
L 365.657038 266.340085 
L 369.304842 266.340052 
L 372.952646 266.340024 
L 376.600449 266.340009 
L 380.248253 266.340002 
L 383.896057 266.339999 
L 387.543861 266.339997 
L 391.191665 266.339992 
L 394.839469 266.339992 
L 398.487273 266.339992 
" clip-path="url(#p6308af5ca5)" style="fill: none; stroke: #17becf; stroke-width: 1.5; stroke-linecap: square"/>
   </g>
   <g id="matplotlib.axis_1">
    <g id="xtick_1">
     <g id="line2d_11">
      <defs>
       <path id="m27ecf0e111" d="M 0 0 
L 0 3.5 
" style="stroke: #000000; stroke-width: 0.8"/>
      </defs>
      <g>
       <use xlink:href="#m27ecf0e111" x="73.832727" y="307.584" style="stroke: #000000; stroke-width: 0.8"/>
      </g>
     </g>
     <g id="text_1">
      <!-- 0 -->
      <g transform="translate(70.651477 322.182437) scale(0.1 -0.1)">
       <defs>
        <path id="DejaVuSans-30" d="M 2034 4250 
Q 1547 4250 1301 3770 
Q 1056 3291 1056 2328 
Q 1056 1369 1301 889 
Q 1547 409 2034 409 
Q 2525 409 2770 889 
Q 3016 1369 3016 2328 
Q 3016 3291 2770 3770 
Q 2525 4250 2034 4250 
z
M 2034 4750 
Q 2819 4750 3233 4129 
Q 3647 3509 3647 2328 
Q 3647 1150 3233 529 
Q 2819 -91 2034 -91 
Q 1250 -91 836 529 
Q 422 1150 422 2328 
Q 422 3509 836 4129 
Q 1250 4750 2034 4750 
z
" transform="scale(0.015625)"/>
       </defs>
       <use xlink:href="#DejaVuSans-30"/>
      </g>
     </g>
    </g>
    <g id="xtick_2">
     <g id="line2d_12">
      <g>
       <use xlink:href="#m27ecf0e111" x="146.788805" y="307.584" style="stroke: #000000; stroke-width: 0.8"/>
      </g>
     </g>
     <g id="text_2">
      <!-- 20 -->
      <g transform="translate(140.426305 322.182437) scale(0.1 -0.1)">
       <defs>
        <path id="DejaVuSans-32" d="M 1228 531 
L 3431 531 
L 3431 0 
L 469 0 
L 469 531 
Q 828 903 1448 1529 
Q 2069 2156 2228 2338 
Q 2531 2678 2651 2914 
Q 2772 3150 2772 3378 
Q 2772 3750 2511 3984 
Q 2250 4219 1831 4219 
Q 1534 4219 1204 4116 
Q 875 4013 500 3803 
L 500 4441 
Q 881 4594 1212 4672 
Q 1544 4750 1819 4750 
Q 2544 4750 2975 4387 
Q 3406 4025 3406 3419 
Q 3406 3131 3298 2873 
Q 3191 2616 2906 2266 
Q 2828 2175 2409 1742 
Q 1991 1309 1228 531 
z
" transform="scale(0.015625)"/>
       </defs>
       <use xlink:href="#DejaVuSans-32"/>
       <use xlink:href="#DejaVuSans-30" x="63.623047"/>
      </g>
     </g>
    </g>
    <g id="xtick_3">
     <g id="line2d_13">
      <g>
       <use xlink:href="#m27ecf0e111" x="219.744883" y="307.584" style="stroke: #000000; stroke-width: 0.8"/>
      </g>
     </g>
     <g id="text_3">
      <!-- 40 -->
      <g transform="translate(213.382383 322.182437) scale(0.1 -0.1)">
       <defs>
        <path id="DejaVuSans-34" d="M 2419 4116 
L 825 1625 
L 2419 1625 
L 2419 4116 
z
M 2253 4666 
L 3047 4666 
L 3047 1625 
L 3713 1625 
L 3713 1100 
L 3047 1100 
L 3047 0 
L 2419 0 
L 2419 1100 
L 313 1100 
L 313 1709 
L 2253 4666 
z
" transform="scale(0.015625)"/>
       </defs>
       <use xlink:href="#DejaVuSans-34"/>
       <use xlink:href="#DejaVuSans-30" x="63.623047"/>
      </g>
     </g>
    </g>
    <g id="xtick_4">
     <g id="line2d_14">
      <g>
       <use xlink:href="#m27ecf0e111" x="292.70096" y="307.584" style="stroke: #000000; stroke-width: 0.8"/>
      </g>
     </g>
     <g id="text_4">
      <!-- 60 -->
      <g transform="translate(286.33846 322.182437) scale(0.1 -0.1)">
       <defs>
        <path id="DejaVuSans-36" d="M 2113 2584 
Q 1688 2584 1439 2293 
Q 1191 2003 1191 1497 
Q 1191 994 1439 701 
Q 1688 409 2113 409 
Q 2538 409 2786 701 
Q 3034 994 3034 1497 
Q 3034 2003 2786 2293 
Q 2538 2584 2113 2584 
z
M 3366 4563 
L 3366 3988 
Q 3128 4100 2886 4159 
Q 2644 4219 2406 4219 
Q 1781 4219 1451 3797 
Q 1122 3375 1075 2522 
Q 1259 2794 1537 2939 
Q 1816 3084 2150 3084 
Q 2853 3084 3261 2657 
Q 3669 2231 3669 1497 
Q 3669 778 3244 343 
Q 2819 -91 2113 -91 
Q 1303 -91 875 529 
Q 447 1150 447 2328 
Q 447 3434 972 4092 
Q 1497 4750 2381 4750 
Q 2619 4750 2861 4703 
Q 3103 4656 3366 4563 
z
" transform="scale(0.015625)"/>
       </defs>
       <use xlink:href="#DejaVuSans-36"/>
       <use xlink:href="#DejaVuSans-30" x="63.623047"/>
      </g>
     </g>
    </g>
    <g id="xtick_5">
     <g id="line2d_15">
      <g>
       <use xlink:href="#m27ecf0e111" x="365.657038" y="307.584" style="stroke: #000000; stroke-width: 0.8"/>
      </g>
     </g>
     <g id="text_5">
      <!-- 80 -->
      <g transform="translate(359.294538 322.182437) scale(0.1 -0.1)">
       <defs>
        <path id="DejaVuSans-38" d="M 2034 2216 
Q 1584 2216 1326 1975 
Q 1069 1734 1069 1313 
Q 1069 891 1326 650 
Q 1584 409 2034 409 
Q 2484 409 2743 651 
Q 3003 894 3003 1313 
Q 3003 1734 2745 1975 
Q 2488 2216 2034 2216 
z
M 1403 2484 
Q 997 2584 770 2862 
Q 544 3141 544 3541 
Q 544 4100 942 4425 
Q 1341 4750 2034 4750 
Q 2731 4750 3128 4425 
Q 3525 4100 3525 3541 
Q 3525 3141 3298 2862 
Q 3072 2584 2669 2484 
Q 3125 2378 3379 2068 
Q 3634 1759 3634 1313 
Q 3634 634 3220 271 
Q 2806 -91 2034 -91 
Q 1263 -91 848 271 
Q 434 634 434 1313 
Q 434 1759 690 2068 
Q 947 2378 1403 2484 
z
M 1172 3481 
Q 1172 3119 1398 2916 
Q 1625 2713 2034 2713 
Q 2441 2713 2670 2916 
Q 2900 3119 2900 3481 
Q 2900 3844 2670 4047 
Q 2441 4250 2034 4250 
Q 1625 4250 1398 4047 
Q 1172 3844 1172 3481 
z
" transform="scale(0.015625)"/>
       </defs>
       <use xlink:href="#DejaVuSans-38"/>
       <use xlink:href="#DejaVuSans-30" x="63.623047"/>
      </g>
     </g>
    </g>
    <g id="text_6">
     <!-- Epoques -->
     <g transform="translate(214.742812 335.860562) scale(0.1 -0.1)">
      <defs>
       <path id="DejaVuSans-45" d="M 628 4666 
L 3578 4666 
L 3578 4134 
L 1259 4134 
L 1259 2753 
L 3481 2753 
L 3481 2222 
L 1259 2222 
L 1259 531 
L 3634 531 
L 3634 0 
L 628 0 
L 628 4666 
z
" transform="scale(0.015625)"/>
       <path id="DejaVuSans-70" d="M 1159 525 
L 1159 -1331 
L 581 -1331 
L 581 3500 
L 1159 3500 
L 1159 2969 
Q 1341 3281 1617 3432 
Q 1894 3584 2278 3584 
Q 2916 3584 3314 3078 
Q 3713 2572 3713 1747 
Q 3713 922 3314 415 
Q 2916 -91 2278 -91 
Q 1894 -91 1617 61 
Q 1341 213 1159 525 
z
M 3116 1747 
Q 3116 2381 2855 2742 
Q 2594 3103 2138 3103 
Q 1681 3103 1420 2742 
Q 1159 2381 1159 1747 
Q 1159 1113 1420 752 
Q 1681 391 2138 391 
Q 2594 391 2855 752 
Q 3116 1113 3116 1747 
z
" transform="scale(0.015625)"/>
       <path id="DejaVuSans-6f" d="M 1959 3097 
Q 1497 3097 1228 2736 
Q 959 2375 959 1747 
Q 959 1119 1226 758 
Q 1494 397 1959 397 
Q 2419 397 2687 759 
Q 2956 1122 2956 1747 
Q 2956 2369 2687 2733 
Q 2419 3097 1959 3097 
z
M 1959 3584 
Q 2709 3584 3137 3096 
Q 3566 2609 3566 1747 
Q 3566 888 3137 398 
Q 2709 -91 1959 -91 
Q 1206 -91 779 398 
Q 353 888 353 1747 
Q 353 2609 779 3096 
Q 1206 3584 1959 3584 
z
" transform="scale(0.015625)"/>
       <path id="DejaVuSans-71" d="M 947 1747 
Q 947 1113 1208 752 
Q 1469 391 1925 391 
Q 2381 391 2643 752 
Q 2906 1113 2906 1747 
Q 2906 2381 2643 2742 
Q 2381 3103 1925 3103 
Q 1469 3103 1208 2742 
Q 947 2381 947 1747 
z
M 2906 525 
Q 2725 213 2448 61 
Q 2172 -91 1784 -91 
Q 1150 -91 751 415 
Q 353 922 353 1747 
Q 353 2572 751 3078 
Q 1150 3584 1784 3584 
Q 2172 3584 2448 3432 
Q 2725 3281 2906 2969 
L 2906 3500 
L 3481 3500 
L 3481 -1331 
L 2906 -1331 
L 2906 525 
z
" transform="scale(0.015625)"/>
       <path id="DejaVuSans-75" d="M 544 1381 
L 544 3500 
L 1119 3500 
L 1119 1403 
Q 1119 906 1312 657 
Q 1506 409 1894 409 
Q 2359 409 2629 706 
Q 2900 1003 2900 1516 
L 2900 3500 
L 3475 3500 
L 3475 0 
L 2900 0 
L 2900 538 
Q 2691 219 2414 64 
Q 2138 -91 1772 -91 
Q 1169 -91 856 284 
Q 544 659 544 1381 
z
M 1991 3584 
L 1991 3584 
z
" transform="scale(0.015625)"/>
       <path id="DejaVuSans-65" d="M 3597 1894 
L 3597 1613 
L 953 1613 
Q 991 1019 1311 708 
Q 1631 397 2203 397 
Q 2534 397 2845 478 
Q 3156 559 3463 722 
L 3463 178 
Q 3153 47 2828 -22 
Q 2503 -91 2169 -91 
Q 1331 -91 842 396 
Q 353 884 353 1716 
Q 353 2575 817 3079 
Q 1281 3584 2069 3584 
Q 2775 3584 3186 3129 
Q 3597 2675 3597 1894 
z
M 3022 2063 
Q 3016 2534 2758 2815 
Q 2500 3097 2075 3097 
Q 1594 3097 1305 2825 
Q 1016 2553 972 2059 
L 3022 2063 
z
" transform="scale(0.015625)"/>
       <path id="DejaVuSans-73" d="M 2834 3397 
L 2834 2853 
Q 2591 2978 2328 3040 
Q 2066 3103 1784 3103 
Q 1356 3103 1142 2972 
Q 928 2841 928 2578 
Q 928 2378 1081 2264 
Q 1234 2150 1697 2047 
L 1894 2003 
Q 2506 1872 2764 1633 
Q 3022 1394 3022 966 
Q 3022 478 2636 193 
Q 2250 -91 1575 -91 
Q 1294 -91 989 -36 
Q 684 19 347 128 
L 347 722 
Q 666 556 975 473 
Q 1284 391 1588 391 
Q 1994 391 2212 530 
Q 2431 669 2431 922 
Q 2431 1156 2273 1281 
Q 2116 1406 1581 1522 
L 1381 1569 
Q 847 1681 609 1914 
Q 372 2147 372 2553 
Q 372 3047 722 3315 
Q 1072 3584 1716 3584 
Q 2034 3584 2315 3537 
Q 2597 3491 2834 3397 
z
" transform="scale(0.015625)"/>
      </defs>
      <use xlink:href="#DejaVuSans-45"/>
      <use xlink:href="#DejaVuSans-70" x="63.183594"/>
      <use xlink:href="#DejaVuSans-6f" x="126.660156"/>
      <use xlink:href="#DejaVuSans-71" x="187.841797"/>
      <use xlink:href="#DejaVuSans-75" x="251.318359"/>
      <use xlink:href="#DejaVuSans-65" x="314.697266"/>
      <use xlink:href="#DejaVuSans-73" x="376.220703"/>
     </g>
    </g>
   </g>
   <g id="matplotlib.axis_2">
    <g id="ytick_1">
     <g id="line2d_16">
      <defs>
       <path id="m264905d1e6" d="M 0 0 
L -3.5 0 
" style="stroke: #000000; stroke-width: 0.8"/>
      </defs>
      <g>
       <use xlink:href="#m264905d1e6" x="57.6" y="299.405262" style="stroke: #000000; stroke-width: 0.8"/>
      </g>
     </g>
     <g id="text_7">
      <!-- 0 -->
      <g transform="translate(44.2375 303.20448) scale(0.1 -0.1)">
       <use xlink:href="#DejaVuSans-30"/>
      </g>
     </g>
    </g>
    <g id="ytick_2">
     <g id="line2d_17">
      <g>
       <use xlink:href="#m264905d1e6" x="57.6" y="246.822532" style="stroke: #000000; stroke-width: 0.8"/>
      </g>
     </g>
     <g id="text_8">
      <!-- 10 -->
      <g transform="translate(37.875 250.62175) scale(0.1 -0.1)">
       <defs>
        <path id="DejaVuSans-31" d="M 794 531 
L 1825 531 
L 1825 4091 
L 703 3866 
L 703 4441 
L 1819 4666 
L 2450 4666 
L 2450 531 
L 3481 531 
L 3481 0 
L 794 0 
L 794 531 
z
" transform="scale(0.015625)"/>
       </defs>
       <use xlink:href="#DejaVuSans-31"/>
       <use xlink:href="#DejaVuSans-30" x="63.623047"/>
      </g>
     </g>
    </g>
    <g id="ytick_3">
     <g id="line2d_18">
      <g>
       <use xlink:href="#m264905d1e6" x="57.6" y="194.239801" style="stroke: #000000; stroke-width: 0.8"/>
      </g>
     </g>
     <g id="text_9">
      <!-- 20 -->
      <g transform="translate(37.875 198.03902) scale(0.1 -0.1)">
       <use xlink:href="#DejaVuSans-32"/>
       <use xlink:href="#DejaVuSans-30" x="63.623047"/>
      </g>
     </g>
    </g>
    <g id="ytick_4">
     <g id="line2d_19">
      <g>
       <use xlink:href="#m264905d1e6" x="57.6" y="141.657071" style="stroke: #000000; stroke-width: 0.8"/>
      </g>
     </g>
     <g id="text_10">
      <!-- 30 -->
      <g transform="translate(37.875 145.45629) scale(0.1 -0.1)">
       <defs>
        <path id="DejaVuSans-33" d="M 2597 2516 
Q 3050 2419 3304 2112 
Q 3559 1806 3559 1356 
Q 3559 666 3084 287 
Q 2609 -91 1734 -91 
Q 1441 -91 1130 -33 
Q 819 25 488 141 
L 488 750 
Q 750 597 1062 519 
Q 1375 441 1716 441 
Q 2309 441 2620 675 
Q 2931 909 2931 1356 
Q 2931 1769 2642 2001 
Q 2353 2234 1838 2234 
L 1294 2234 
L 1294 2753 
L 1863 2753 
Q 2328 2753 2575 2939 
Q 2822 3125 2822 3475 
Q 2822 3834 2567 4026 
Q 2313 4219 1838 4219 
Q 1578 4219 1281 4162 
Q 984 4106 628 3988 
L 628 4550 
Q 988 4650 1302 4700 
Q 1616 4750 1894 4750 
Q 2613 4750 3031 4423 
Q 3450 4097 3450 3541 
Q 3450 3153 3228 2886 
Q 3006 2619 2597 2516 
z
" transform="scale(0.015625)"/>
       </defs>
       <use xlink:href="#DejaVuSans-33"/>
       <use xlink:href="#DejaVuSans-30" x="63.623047"/>
      </g>
     </g>
    </g>
    <g id="ytick_5">
     <g id="line2d_20">
      <g>
       <use xlink:href="#m264905d1e6" x="57.6" y="89.074341" style="stroke: #000000; stroke-width: 0.8"/>
      </g>
     </g>
     <g id="text_11">
      <!-- 40 -->
      <g transform="translate(37.875 92.87356) scale(0.1 -0.1)">
       <use xlink:href="#DejaVuSans-34"/>
       <use xlink:href="#DejaVuSans-30" x="63.623047"/>
      </g>
     </g>
    </g>
    <g id="text_12">
     <!-- L2 Régularisation -->
     <g transform="translate(31.795312 217.89675) rotate(-90) scale(0.1 -0.1)">
      <defs>
       <path id="DejaVuSans-4c" d="M 628 4666 
L 1259 4666 
L 1259 531 
L 3531 531 
L 3531 0 
L 628 0 
L 628 4666 
z
" transform="scale(0.015625)"/>
       <path id="DejaVuSans-20" transform="scale(0.015625)"/>
       <path id="DejaVuSans-52" d="M 2841 2188 
Q 3044 2119 3236 1894 
Q 3428 1669 3622 1275 
L 4263 0 
L 3584 0 
L 2988 1197 
Q 2756 1666 2539 1819 
Q 2322 1972 1947 1972 
L 1259 1972 
L 1259 0 
L 628 0 
L 628 4666 
L 2053 4666 
Q 2853 4666 3247 4331 
Q 3641 3997 3641 3322 
Q 3641 2881 3436 2590 
Q 3231 2300 2841 2188 
z
M 1259 4147 
L 1259 2491 
L 2053 2491 
Q 2509 2491 2742 2702 
Q 2975 2913 2975 3322 
Q 2975 3731 2742 3939 
Q 2509 4147 2053 4147 
L 1259 4147 
z
" transform="scale(0.015625)"/>
       <path id="DejaVuSans-e9" d="M 3597 1894 
L 3597 1613 
L 953 1613 
Q 991 1019 1311 708 
Q 1631 397 2203 397 
Q 2534 397 2845 478 
Q 3156 559 3463 722 
L 3463 178 
Q 3153 47 2828 -22 
Q 2503 -91 2169 -91 
Q 1331 -91 842 396 
Q 353 884 353 1716 
Q 353 2575 817 3079 
Q 1281 3584 2069 3584 
Q 2775 3584 3186 3129 
Q 3597 2675 3597 1894 
z
M 3022 2063 
Q 3016 2534 2758 2815 
Q 2500 3097 2075 3097 
Q 1594 3097 1305 2825 
Q 1016 2553 972 2059 
L 3022 2063 
z
M 2466 5119 
L 3088 5119 
L 2070 3944 
L 1591 3944 
L 2466 5119 
z
" transform="scale(0.015625)"/>
       <path id="DejaVuSans-67" d="M 2906 1791 
Q 2906 2416 2648 2759 
Q 2391 3103 1925 3103 
Q 1463 3103 1205 2759 
Q 947 2416 947 1791 
Q 947 1169 1205 825 
Q 1463 481 1925 481 
Q 2391 481 2648 825 
Q 2906 1169 2906 1791 
z
M 3481 434 
Q 3481 -459 3084 -895 
Q 2688 -1331 1869 -1331 
Q 1566 -1331 1297 -1286 
Q 1028 -1241 775 -1147 
L 775 -588 
Q 1028 -725 1275 -790 
Q 1522 -856 1778 -856 
Q 2344 -856 2625 -561 
Q 2906 -266 2906 331 
L 2906 616 
Q 2728 306 2450 153 
Q 2172 0 1784 0 
Q 1141 0 747 490 
Q 353 981 353 1791 
Q 353 2603 747 3093 
Q 1141 3584 1784 3584 
Q 2172 3584 2450 3431 
Q 2728 3278 2906 2969 
L 2906 3500 
L 3481 3500 
L 3481 434 
z
" transform="scale(0.015625)"/>
       <path id="DejaVuSans-6c" d="M 603 4863 
L 1178 4863 
L 1178 0 
L 603 0 
L 603 4863 
z
" transform="scale(0.015625)"/>
       <path id="DejaVuSans-61" d="M 2194 1759 
Q 1497 1759 1228 1600 
Q 959 1441 959 1056 
Q 959 750 1161 570 
Q 1363 391 1709 391 
Q 2188 391 2477 730 
Q 2766 1069 2766 1631 
L 2766 1759 
L 2194 1759 
z
M 3341 1997 
L 3341 0 
L 2766 0 
L 2766 531 
Q 2569 213 2275 61 
Q 1981 -91 1556 -91 
Q 1019 -91 701 211 
Q 384 513 384 1019 
Q 384 1609 779 1909 
Q 1175 2209 1959 2209 
L 2766 2209 
L 2766 2266 
Q 2766 2663 2505 2880 
Q 2244 3097 1772 3097 
Q 1472 3097 1187 3025 
Q 903 2953 641 2809 
L 641 3341 
Q 956 3463 1253 3523 
Q 1550 3584 1831 3584 
Q 2591 3584 2966 3190 
Q 3341 2797 3341 1997 
z
" transform="scale(0.015625)"/>
       <path id="DejaVuSans-72" d="M 2631 2963 
Q 2534 3019 2420 3045 
Q 2306 3072 2169 3072 
Q 1681 3072 1420 2755 
Q 1159 2438 1159 1844 
L 1159 0 
L 581 0 
L 581 3500 
L 1159 3500 
L 1159 2956 
Q 1341 3275 1631 3429 
Q 1922 3584 2338 3584 
Q 2397 3584 2469 3576 
Q 2541 3569 2628 3553 
L 2631 2963 
z
" transform="scale(0.015625)"/>
       <path id="DejaVuSans-69" d="M 603 3500 
L 1178 3500 
L 1178 0 
L 603 0 
L 603 3500 
z
M 603 4863 
L 1178 4863 
L 1178 4134 
L 603 4134 
L 603 4863 
z
" transform="scale(0.015625)"/>
       <path id="DejaVuSans-74" d="M 1172 4494 
L 1172 3500 
L 2356 3500 
L 2356 3053 
L 1172 3053 
L 1172 1153 
Q 1172 725 1289 603 
Q 1406 481 1766 481 
L 2356 481 
L 2356 0 
L 1766 0 
Q 1100 0 847 248 
Q 594 497 594 1153 
L 594 3053 
L 172 3053 
L 172 3500 
L 594 3500 
L 594 4494 
L 1172 4494 
z
" transform="scale(0.015625)"/>
       <path id="DejaVuSans-6e" d="M 3513 2113 
L 3513 0 
L 2938 0 
L 2938 2094 
Q 2938 2591 2744 2837 
Q 2550 3084 2163 3084 
Q 1697 3084 1428 2787 
Q 1159 2491 1159 1978 
L 1159 0 
L 581 0 
L 581 3500 
L 1159 3500 
L 1159 2956 
Q 1366 3272 1645 3428 
Q 1925 3584 2291 3584 
Q 2894 3584 3203 3211 
Q 3513 2838 3513 2113 
z
" transform="scale(0.015625)"/>
      </defs>
      <use xlink:href="#DejaVuSans-4c"/>
      <use xlink:href="#DejaVuSans-32" x="55.712891"/>
      <use xlink:href="#DejaVuSans-20" x="119.335938"/>
      <use xlink:href="#DejaVuSans-52" x="151.123047"/>
      <use xlink:href="#DejaVuSans-e9" x="216.105469"/>
      <use xlink:href="#DejaVuSans-67" x="277.628906"/>
      <use xlink:href="#DejaVuSans-75" x="341.105469"/>
      <use xlink:href="#DejaVuSans-6c" x="404.484375"/>
      <use xlink:href="#DejaVuSans-61" x="432.267578"/>
      <use xlink:href="#DejaVuSans-72" x="493.546875"/>
      <use xlink:href="#DejaVuSans-69" x="534.660156"/>
      <use xlink:href="#DejaVuSans-73" x="562.443359"/>
      <use xlink:href="#DejaVuSans-61" x="614.542969"/>
      <use xlink:href="#DejaVuSans-74" x="675.822266"/>
      <use xlink:href="#DejaVuSans-69" x="715.03125"/>
      <use xlink:href="#DejaVuSans-6f" x="742.814453"/>
      <use xlink:href="#DejaVuSans-6e" x="803.996094"/>
     </g>
    </g>
   </g>
   <g id="patch_3">
    <path d="M 57.6 307.584 
L 57.6 41.472 
" style="fill: none; stroke: #000000; stroke-width: 0.8; stroke-linejoin: miter; stroke-linecap: square"/>
   </g>
   <g id="patch_4">
    <path d="M 414.72 307.584 
L 414.72 41.472 
" style="fill: none; stroke: #000000; stroke-width: 0.8; stroke-linejoin: miter; stroke-linecap: square"/>
   </g>
   <g id="patch_5">
    <path d="M 57.6 307.584 
L 414.72 307.584 
" style="fill: none; stroke: #000000; stroke-width: 0.8; stroke-linejoin: miter; stroke-linecap: square"/>
   </g>
   <g id="patch_6">
    <path d="M 57.6 41.472 
L 414.72 41.472 
" style="fill: none; stroke: #000000; stroke-width: 0.8; stroke-linejoin: miter; stroke-linecap: square"/>
   </g>
   <g id="line2d_21">
    <path d="M 73.832727 91.188349 
L 77.480531 187.101094 
L 81.128335 223.475019 
L 84.776139 242.299145 
L 88.423943 248.873997 
L 92.071747 250.673214 
L 95.719551 252.07402 
L 99.367354 253.101914 
L 103.015158 254.494089 
L 106.662962 256.966036 
L 110.310766 259.730854 
L 113.95857 261.694034 
L 117.606374 263.309821 
L 121.254178 264.710883 
L 124.901982 266.247699 
L 128.549785 267.718427 
L 132.197589 269.28328 
L 135.845393 270.951564 
L 139.493197 272.45934 
L 143.141001 273.603728 
L 146.788805 274.568881 
L 150.436609 275.569385 
L 154.084413 276.519642 
L 157.732217 277.42365 
L 161.38002 278.263943 
L 165.027824 279.098851 
L 168.675628 280.077483 
L 172.323432 280.99188 
L 175.971236 281.982294 
L 179.61904 282.862386 
L 183.266844 290.596815 
L 186.914648 290.67046 
L 190.562451 290.794555 
L 194.210255 290.912035 
L 197.858059 291.030835 
L 201.505863 291.151154 
L 205.153667 291.272622 
L 208.801471 291.390854 
L 212.449275 291.503318 
L 216.097079 291.60811 
L 219.744883 291.707557 
L 223.392686 291.804305 
L 227.04049 291.899329 
L 230.688294 291.99397 
L 234.336098 292.087106 
L 237.983902 292.176792 
L 241.631706 292.262594 
L 245.27951 292.345697 
L 248.927314 292.426789 
L 252.575117 292.506159 
L 256.222921 292.584005 
L 259.870725 292.660315 
L 263.518529 292.73519 
L 267.166333 292.808959 
L 270.814137 292.881865 
L 274.461941 292.954033 
L 278.109745 293.025478 
L 281.757549 293.096201 
L 285.405352 293.166163 
L 289.053156 293.235524 
L 292.70096 293.33357 
L 296.348764 293.351453 
L 299.996568 293.368469 
L 303.644372 293.384679 
L 307.292176 293.400166 
L 310.93998 293.415017 
L 314.587783 293.429261 
L 318.235587 293.442955 
L 321.883391 293.456142 
L 325.531195 293.468855 
L 329.178999 293.481141 
L 332.826803 293.493007 
L 336.474607 293.504492 
L 340.122411 293.515639 
L 343.770215 293.526444 
L 347.418018 293.53693 
L 351.065822 293.54712 
L 354.713626 293.557033 
L 358.36143 293.56668 
L 362.009234 293.576093 
L 365.657038 293.58527 
L 369.304842 293.594237 
L 372.952646 293.603 
L 376.600449 293.61158 
L 380.248253 293.619993 
L 383.896057 293.628238 
L 387.543861 293.636326 
L 391.191665 293.644271 
L 394.839469 293.652083 
L 398.487273 293.659746 
" clip-path="url(#p6308af5ca5)" style="fill: none; stroke-dasharray: 5.55,2.4; stroke-dashoffset: 0; stroke: #000000; stroke-width: 1.5"/>
   </g>
   <g id="legend_1">
    <g id="patch_7">
     <path d="M 322.2875 177.0395 
L 409.12 177.0395 
Q 410.72 177.0395 410.72 175.4395 
L 410.72 47.072 
Q 410.72 45.472 409.12 45.472 
L 322.2875 45.472 
Q 320.6875 45.472 320.6875 47.072 
L 320.6875 175.4395 
Q 320.6875 177.0395 322.2875 177.0395 
z
" style="fill: #ffffff; opacity: 0.8; stroke: #cccccc; stroke-linejoin: miter"/>
    </g>
    <g id="line2d_22">
     <path d="M 323.8875 51.95075 
L 331.8875 51.95075 
L 339.8875 51.95075 
" style="fill: none; stroke-dasharray: 5.55,2.4; stroke-dashoffset: 0; stroke: #000000; stroke-width: 1.5"/>
    </g>
    <g id="text_13">
     <!-- λ = 0.000e+00 -->
     <g transform="translate(346.2875 54.75075) scale(0.08 -0.08)">
      <defs>
       <path id="DejaVuSans-3bb" d="M 1981 4316 
L 3597 0 
L 2988 0 
L 2006 2588 
L 800 0 
L 191 0 
L 1725 3356 
L 1494 3975 
Q 1347 4369 1013 4369 
L 713 4369 
L 713 4863 
L 1078 4856 
Q 1784 4847 1981 4316 
z
" transform="scale(0.015625)"/>
       <path id="DejaVuSans-3d" d="M 678 2906 
L 4684 2906 
L 4684 2381 
L 678 2381 
L 678 2906 
z
M 678 1631 
L 4684 1631 
L 4684 1100 
L 678 1100 
L 678 1631 
z
" transform="scale(0.015625)"/>
       <path id="DejaVuSans-2e" d="M 684 794 
L 1344 794 
L 1344 0 
L 684 0 
L 684 794 
z
" transform="scale(0.015625)"/>
       <path id="DejaVuSans-2b" d="M 2944 4013 
L 2944 2272 
L 4684 2272 
L 4684 1741 
L 2944 1741 
L 2944 0 
L 2419 0 
L 2419 1741 
L 678 1741 
L 678 2272 
L 2419 2272 
L 2419 4013 
L 2944 4013 
z
" transform="scale(0.015625)"/>
      </defs>
      <use xlink:href="#DejaVuSans-3bb"/>
      <use xlink:href="#DejaVuSans-20" x="59.179688"/>
      <use xlink:href="#DejaVuSans-3d" x="90.966797"/>
      <use xlink:href="#DejaVuSans-20" x="174.755859"/>
      <use xlink:href="#DejaVuSans-30" x="206.542969"/>
      <use xlink:href="#DejaVuSans-2e" x="270.166016"/>
      <use xlink:href="#DejaVuSans-30" x="301.953125"/>
      <use xlink:href="#DejaVuSans-30" x="365.576172"/>
      <use xlink:href="#DejaVuSans-30" x="429.199219"/>
      <use xlink:href="#DejaVuSans-65" x="492.822266"/>
      <use xlink:href="#DejaVuSans-2b" x="554.345703"/>
      <use xlink:href="#DejaVuSans-30" x="638.134766"/>
      <use xlink:href="#DejaVuSans-30" x="701.757812"/>
     </g>
    </g>
    <g id="line2d_23">
     <path d="M 323.8875 63.69325 
L 331.8875 63.69325 
L 339.8875 63.69325 
" style="fill: none; stroke: #1f77b4; stroke-width: 1.5; stroke-linecap: square"/>
    </g>
    <g id="text_14">
     <!-- λ = 1.000e-07 -->
     <g transform="translate(346.2875 66.49325) scale(0.08 -0.08)">
      <defs>
       <path id="DejaVuSans-2d" d="M 313 2009 
L 1997 2009 
L 1997 1497 
L 313 1497 
L 313 2009 
z
" transform="scale(0.015625)"/>
       <path id="DejaVuSans-37" d="M 525 4666 
L 3525 4666 
L 3525 4397 
L 1831 0 
L 1172 0 
L 2766 4134 
L 525 4134 
L 525 4666 
z
" transform="scale(0.015625)"/>
      </defs>
      <use xlink:href="#DejaVuSans-3bb"/>
      <use xlink:href="#DejaVuSans-20" x="59.179688"/>
      <use xlink:href="#DejaVuSans-3d" x="90.966797"/>
      <use xlink:href="#DejaVuSans-20" x="174.755859"/>
      <use xlink:href="#DejaVuSans-31" x="206.542969"/>
      <use xlink:href="#DejaVuSans-2e" x="270.166016"/>
      <use xlink:href="#DejaVuSans-30" x="301.953125"/>
      <use xlink:href="#DejaVuSans-30" x="365.576172"/>
      <use xlink:href="#DejaVuSans-30" x="429.199219"/>
      <use xlink:href="#DejaVuSans-65" x="492.822266"/>
      <use xlink:href="#DejaVuSans-2d" x="554.345703"/>
      <use xlink:href="#DejaVuSans-30" x="590.429688"/>
      <use xlink:href="#DejaVuSans-37" x="654.052734"/>
     </g>
    </g>
    <g id="line2d_24">
     <path d="M 323.8875 75.43575 
L 331.8875 75.43575 
L 339.8875 75.43575 
" style="fill: none; stroke: #ff7f0e; stroke-width: 1.5; stroke-linecap: square"/>
    </g>
    <g id="text_15">
     <!-- λ = 1.000e-06 -->
     <g transform="translate(346.2875 78.23575) scale(0.08 -0.08)">
      <use xlink:href="#DejaVuSans-3bb"/>
      <use xlink:href="#DejaVuSans-20" x="59.179688"/>
      <use xlink:href="#DejaVuSans-3d" x="90.966797"/>
      <use xlink:href="#DejaVuSans-20" x="174.755859"/>
      <use xlink:href="#DejaVuSans-31" x="206.542969"/>
      <use xlink:href="#DejaVuSans-2e" x="270.166016"/>
      <use xlink:href="#DejaVuSans-30" x="301.953125"/>
      <use xlink:href="#DejaVuSans-30" x="365.576172"/>
      <use xlink:href="#DejaVuSans-30" x="429.199219"/>
      <use xlink:href="#DejaVuSans-65" x="492.822266"/>
      <use xlink:href="#DejaVuSans-2d" x="554.345703"/>
      <use xlink:href="#DejaVuSans-30" x="590.429688"/>
      <use xlink:href="#DejaVuSans-36" x="654.052734"/>
     </g>
    </g>
    <g id="line2d_25">
     <path d="M 323.8875 87.17825 
L 331.8875 87.17825 
L 339.8875 87.17825 
" style="fill: none; stroke: #2ca02c; stroke-width: 1.5; stroke-linecap: square"/>
    </g>
    <g id="text_16">
     <!-- λ = 3.162e-06 -->
     <g transform="translate(346.2875 89.97825) scale(0.08 -0.08)">
      <use xlink:href="#DejaVuSans-3bb"/>
      <use xlink:href="#DejaVuSans-20" x="59.179688"/>
      <use xlink:href="#DejaVuSans-3d" x="90.966797"/>
      <use xlink:href="#DejaVuSans-20" x="174.755859"/>
      <use xlink:href="#DejaVuSans-33" x="206.542969"/>
      <use xlink:href="#DejaVuSans-2e" x="270.166016"/>
      <use xlink:href="#DejaVuSans-31" x="301.953125"/>
      <use xlink:href="#DejaVuSans-36" x="365.576172"/>
      <use xlink:href="#DejaVuSans-32" x="429.199219"/>
      <use xlink:href="#DejaVuSans-65" x="492.822266"/>
      <use xlink:href="#DejaVuSans-2d" x="554.345703"/>
      <use xlink:href="#DejaVuSans-30" x="590.429688"/>
      <use xlink:href="#DejaVuSans-36" x="654.052734"/>
     </g>
    </g>
    <g id="line2d_26">
     <path d="M 323.8875 98.92075 
L 331.8875 98.92075 
L 339.8875 98.92075 
" style="fill: none; stroke: #d62728; stroke-width: 1.5; stroke-linecap: square"/>
    </g>
    <g id="text_17">
     <!-- λ = 1.000e-05 -->
     <g transform="translate(346.2875 101.72075) scale(0.08 -0.08)">
      <defs>
       <path id="DejaVuSans-35" d="M 691 4666 
L 3169 4666 
L 3169 4134 
L 1269 4134 
L 1269 2991 
Q 1406 3038 1543 3061 
Q 1681 3084 1819 3084 
Q 2600 3084 3056 2656 
Q 3513 2228 3513 1497 
Q 3513 744 3044 326 
Q 2575 -91 1722 -91 
Q 1428 -91 1123 -41 
Q 819 9 494 109 
L 494 744 
Q 775 591 1075 516 
Q 1375 441 1709 441 
Q 2250 441 2565 725 
Q 2881 1009 2881 1497 
Q 2881 1984 2565 2268 
Q 2250 2553 1709 2553 
Q 1456 2553 1204 2497 
Q 953 2441 691 2322 
L 691 4666 
z
" transform="scale(0.015625)"/>
      </defs>
      <use xlink:href="#DejaVuSans-3bb"/>
      <use xlink:href="#DejaVuSans-20" x="59.179688"/>
      <use xlink:href="#DejaVuSans-3d" x="90.966797"/>
      <use xlink:href="#DejaVuSans-20" x="174.755859"/>
      <use xlink:href="#DejaVuSans-31" x="206.542969"/>
      <use xlink:href="#DejaVuSans-2e" x="270.166016"/>
      <use xlink:href="#DejaVuSans-30" x="301.953125"/>
      <use xlink:href="#DejaVuSans-30" x="365.576172"/>
      <use xlink:href="#DejaVuSans-30" x="429.199219"/>
      <use xlink:href="#DejaVuSans-65" x="492.822266"/>
      <use xlink:href="#DejaVuSans-2d" x="554.345703"/>
      <use xlink:href="#DejaVuSans-30" x="590.429688"/>
      <use xlink:href="#DejaVuSans-35" x="654.052734"/>
     </g>
    </g>
    <g id="line2d_27">
     <path d="M 323.8875 110.66325 
L 331.8875 110.66325 
L 339.8875 110.66325 
" style="fill: none; stroke: #9467bd; stroke-width: 1.5; stroke-linecap: square"/>
    </g>
    <g id="text_18">
     <!-- λ = 3.162e-05 -->
     <g transform="translate(346.2875 113.46325) scale(0.08 -0.08)">
      <use xlink:href="#DejaVuSans-3bb"/>
      <use xlink:href="#DejaVuSans-20" x="59.179688"/>
      <use xlink:href="#DejaVuSans-3d" x="90.966797"/>
      <use xlink:href="#DejaVuSans-20" x="174.755859"/>
      <use xlink:href="#DejaVuSans-33" x="206.542969"/>
      <use xlink:href="#DejaVuSans-2e" x="270.166016"/>
      <use xlink:href="#DejaVuSans-31" x="301.953125"/>
      <use xlink:href="#DejaVuSans-36" x="365.576172"/>
      <use xlink:href="#DejaVuSans-32" x="429.199219"/>
      <use xlink:href="#DejaVuSans-65" x="492.822266"/>
      <use xlink:href="#DejaVuSans-2d" x="554.345703"/>
      <use xlink:href="#DejaVuSans-30" x="590.429688"/>
      <use xlink:href="#DejaVuSans-35" x="654.052734"/>
     </g>
    </g>
    <g id="line2d_28">
     <path d="M 323.8875 122.40575 
L 331.8875 122.40575 
L 339.8875 122.40575 
" style="fill: none; stroke: #8c564b; stroke-width: 1.5; stroke-linecap: square"/>
    </g>
    <g id="text_19">
     <!-- λ = 1.000e-04 -->
     <g transform="translate(346.2875 125.20575) scale(0.08 -0.08)">
      <use xlink:href="#DejaVuSans-3bb"/>
      <use xlink:href="#DejaVuSans-20" x="59.179688"/>
      <use xlink:href="#DejaVuSans-3d" x="90.966797"/>
      <use xlink:href="#DejaVuSans-20" x="174.755859"/>
      <use xlink:href="#DejaVuSans-31" x="206.542969"/>
      <use xlink:href="#DejaVuSans-2e" x="270.166016"/>
      <use xlink:href="#DejaVuSans-30" x="301.953125"/>
      <use xlink:href="#DejaVuSans-30" x="365.576172"/>
      <use xlink:href="#DejaVuSans-30" x="429.199219"/>
      <use xlink:href="#DejaVuSans-65" x="492.822266"/>
      <use xlink:href="#DejaVuSans-2d" x="554.345703"/>
      <use xlink:href="#DejaVuSans-30" x="590.429688"/>
      <use xlink:href="#DejaVuSans-34" x="654.052734"/>
     </g>
    </g>
    <g id="line2d_29">
     <path d="M 323.8875 134.14825 
L 331.8875 134.14825 
L 339.8875 134.14825 
" style="fill: none; stroke: #e377c2; stroke-width: 1.5; stroke-linecap: square"/>
    </g>
    <g id="text_20">
     <!-- λ = 3.162e-04 -->
     <g transform="translate(346.2875 136.94825) scale(0.08 -0.08)">
      <use xlink:href="#DejaVuSans-3bb"/>
      <use xlink:href="#DejaVuSans-20" x="59.179688"/>
      <use xlink:href="#DejaVuSans-3d" x="90.966797"/>
      <use xlink:href="#DejaVuSans-20" x="174.755859"/>
      <use xlink:href="#DejaVuSans-33" x="206.542969"/>
      <use xlink:href="#DejaVuSans-2e" x="270.166016"/>
      <use xlink:href="#DejaVuSans-31" x="301.953125"/>
      <use xlink:href="#DejaVuSans-36" x="365.576172"/>
      <use xlink:href="#DejaVuSans-32" x="429.199219"/>
      <use xlink:href="#DejaVuSans-65" x="492.822266"/>
      <use xlink:href="#DejaVuSans-2d" x="554.345703"/>
      <use xlink:href="#DejaVuSans-30" x="590.429688"/>
      <use xlink:href="#DejaVuSans-34" x="654.052734"/>
     </g>
    </g>
    <g id="line2d_30">
     <path d="M 323.8875 145.89075 
L 331.8875 145.89075 
L 339.8875 145.89075 
" style="fill: none; stroke: #7f7f7f; stroke-width: 1.5; stroke-linecap: square"/>
    </g>
    <g id="text_21">
     <!-- λ = 1.000e-03 -->
     <g transform="translate(346.2875 148.69075) scale(0.08 -0.08)">
      <use xlink:href="#DejaVuSans-3bb"/>
      <use xlink:href="#DejaVuSans-20" x="59.179688"/>
      <use xlink:href="#DejaVuSans-3d" x="90.966797"/>
      <use xlink:href="#DejaVuSans-20" x="174.755859"/>
      <use xlink:href="#DejaVuSans-31" x="206.542969"/>
      <use xlink:href="#DejaVuSans-2e" x="270.166016"/>
      <use xlink:href="#DejaVuSans-30" x="301.953125"/>
      <use xlink:href="#DejaVuSans-30" x="365.576172"/>
      <use xlink:href="#DejaVuSans-30" x="429.199219"/>
      <use xlink:href="#DejaVuSans-65" x="492.822266"/>
      <use xlink:href="#DejaVuSans-2d" x="554.345703"/>
      <use xlink:href="#DejaVuSans-30" x="590.429688"/>
      <use xlink:href="#DejaVuSans-33" x="654.052734"/>
     </g>
    </g>
    <g id="line2d_31">
     <path d="M 323.8875 157.63325 
L 331.8875 157.63325 
L 339.8875 157.63325 
" style="fill: none; stroke: #bcbd22; stroke-width: 1.5; stroke-linecap: square"/>
    </g>
    <g id="text_22">
     <!-- λ = 3.162e-03 -->
     <g transform="translate(346.2875 160.43325) scale(0.08 -0.08)">
      <use xlink:href="#DejaVuSans-3bb"/>
      <use xlink:href="#DejaVuSans-20" x="59.179688"/>
      <use xlink:href="#DejaVuSans-3d" x="90.966797"/>
      <use xlink:href="#DejaVuSans-20" x="174.755859"/>
      <use xlink:href="#DejaVuSans-33" x="206.542969"/>
      <use xlink:href="#DejaVuSans-2e" x="270.166016"/>
      <use xlink:href="#DejaVuSans-31" x="301.953125"/>
      <use xlink:href="#DejaVuSans-36" x="365.576172"/>
      <use xlink:href="#DejaVuSans-32" x="429.199219"/>
      <use xlink:href="#DejaVuSans-65" x="492.822266"/>
      <use xlink:href="#DejaVuSans-2d" x="554.345703"/>
      <use xlink:href="#DejaVuSans-30" x="590.429688"/>
      <use xlink:href="#DejaVuSans-33" x="654.052734"/>
     </g>
    </g>
    <g id="line2d_32">
     <path d="M 323.8875 169.37575 
L 331.8875 169.37575 
L 339.8875 169.37575 
" style="fill: none; stroke: #17becf; stroke-width: 1.5; stroke-linecap: square"/>
    </g>
    <g id="text_23">
     <!-- λ = 1.000e-02 -->
     <g transform="translate(346.2875 172.17575) scale(0.08 -0.08)">
      <use xlink:href="#DejaVuSans-3bb"/>
      <use xlink:href="#DejaVuSans-20" x="59.179688"/>
      <use xlink:href="#DejaVuSans-3d" x="90.966797"/>
      <use xlink:href="#DejaVuSans-20" x="174.755859"/>
      <use xlink:href="#DejaVuSans-31" x="206.542969"/>
      <use xlink:href="#DejaVuSans-2e" x="270.166016"/>
      <use xlink:href="#DejaVuSans-30" x="301.953125"/>
      <use xlink:href="#DejaVuSans-30" x="365.576172"/>
      <use xlink:href="#DejaVuSans-30" x="429.199219"/>
      <use xlink:href="#DejaVuSans-65" x="492.822266"/>
      <use xlink:href="#DejaVuSans-2d" x="554.345703"/>
      <use xlink:href="#DejaVuSans-30" x="590.429688"/>
      <use xlink:href="#DejaVuSans-32" x="654.052734"/>
     </g>
    </g>
   </g>
  </g>
 </g>
 <defs>
  <clipPath id="p6308af5ca5">
   <rect x="57.6" y="41.472" width="357.12" height="266.112"/>
  </clipPath>
 </defs>
</svg>
