<?xml version="1.0" encoding="utf-8" standalone="no"?>
<!DOCTYPE svg PUBLIC "-//W3C//DTD SVG 1.1//EN"
  "http://www.w3.org/Graphics/SVG/1.1/DTD/svg11.dtd">
<svg xmlns:xlink="http://www.w3.org/1999/xlink" width="460.8pt" height="345.6pt" viewBox="0 0 460.8 345.6" xmlns="http://www.w3.org/2000/svg" version="1.1">
 <metadata>
  <rdf:RDF xmlns:dc="http://purl.org/dc/elements/1.1/" xmlns:cc="http://creativecommons.org/ns#" xmlns:rdf="http://www.w3.org/1999/02/22-rdf-syntax-ns#">
   <cc:Work>
    <dc:type rdf:resource="http://purl.org/dc/dcmitype/StillImage"/>
    <dc:date>2024-03-20T01:35:33.834158</dc:date>
    <dc:format>image/svg+xml</dc:format>
    <dc:creator>
     <cc:Agent>
      <dc:title>Matplotlib v3.8.2, https://matplotlib.org/</dc:title>
     </cc:Agent>
    </dc:creator>
   </cc:Work>
  </rdf:RDF>
 </metadata>
 <defs>
  <style type="text/css">*{stroke-linejoin: round; stroke-linecap: butt}</style>
 </defs>
 <g id="figure_1">
  <g id="patch_1">
   <path d="M 0 345.6 
L 460.8 345.6 
L 460.8 0 
L 0 0 
z
" style="fill: #ffffff"/>
  </g>
  <g id="axes_1">
   <g id="patch_2">
    <path d="M 57.6 307.584 
L 414.72 307.584 
L 414.72 41.472 
L 57.6 41.472 
z
" style="fill: #ffffff"/>
   </g>
   <g id="line2d_1">
    <path d="M 73.832727 281.521085 
L 77.480531 136.406349 
L 81.128335 108.648887 
L 84.776139 96.781656 
L 88.423943 92.170904 
L 92.071747 88.84575 
L 95.719551 87.478637 
L 99.367354 86.000156 
L 103.015158 85.220158 
L 106.662962 84.104998 
L 110.310766 83.936041 
L 113.95857 82.796321 
L 117.606374 82.700198 
L 121.254178 81.964239 
L 124.901982 81.831063 
L 128.549785 81.04175 
L 132.197589 81.269778 
L 135.845393 80.290547 
L 139.493197 80.520269 
L 143.141001 79.841476 
L 146.788805 79.904359 
L 150.436609 79.345614 
L 154.084413 79.409979 
L 157.732217 78.746219 
L 161.38002 78.997537 
L 165.027824 78.147882 
L 168.675628 78.57832 
L 172.323432 77.793876 
L 175.971236 78.079706 
L 179.61904 77.317493 
L 183.266844 70.92528 
L 186.914648 62.011413 
L 190.562451 59.387071 
L 194.210255 58.172401 
L 197.858059 57.502289 
L 201.505863 57.111654 
L 205.153667 56.84361 
L 208.801471 56.628285 
L 212.449275 56.468432 
L 216.097079 56.33822 
L 219.744883 56.220077 
L 223.392686 56.120354 
L 227.04049 56.033123 
L 230.688294 55.959231 
L 234.336098 55.892114 
L 237.983902 55.818433 
L 241.631706 55.754069 
L 245.27951 55.6806 
L 248.927314 55.617506 
L 252.575117 55.563727 
L 256.222921 55.517148 
L 259.870725 55.465486 
L 263.518529 55.411496 
L 267.166333 55.34565 
L 270.814137 55.295894 
L 274.461941 55.24995 
L 278.109745 55.215438 
L 281.757549 55.174152 
L 285.405352 55.133077 
L 289.053156 55.08565 
L 292.70096 53.80598 
L 296.348764 53.782902 
L 299.996568 53.766175 
L 303.644372 53.752625 
L 307.292176 53.736534 
L 310.93998 53.723195 
L 314.587783 53.718749 
L 318.235587 53.707527 
L 321.883391 53.698423 
L 325.531195 53.687837 
L 329.178999 53.682967 
L 332.826803 53.68085 
L 336.474607 53.666876 
L 340.122411 53.653114 
L 343.770215 53.64655 
L 347.418018 53.642316 
L 351.065822 53.637023 
L 354.713626 53.629612 
L 358.36143 53.624531 
L 362.009234 53.619873 
L 365.657038 53.610133 
L 369.304842 53.606746 
L 372.952646 53.605687 
L 376.600449 53.601029 
L 380.248253 53.599759 
L 383.896057 53.594042 
L 387.543861 53.59129 
L 391.191665 53.584726 
L 394.839469 53.579221 
L 398.487273 53.576046 
" clip-path="url(#p5c941a75bc)" style="fill: none; stroke: #1f77b4; stroke-width: 1.5; stroke-linecap: square"/>
   </g>
   <g id="line2d_2">
    <path d="M 73.832727 281.493349 
L 77.480531 136.51687 
L 81.128335 108.854472 
L 84.776139 97.038268 
L 88.423943 92.523216 
L 92.071747 89.249511 
L 95.719551 88.005199 
L 99.367354 86.644649 
L 103.015158 85.950189 
L 106.662962 84.935599 
L 110.310766 84.824443 
L 113.95857 83.826367 
L 117.606374 83.836954 
L 121.254178 83.186532 
L 124.901982 83.152867 
L 128.549785 82.426648 
L 132.197589 82.736615 
L 135.845393 81.827464 
L 139.493197 82.157333 
L 143.141001 81.517286 
L 146.788805 81.700852 
L 150.436609 81.195886 
L 154.084413 81.286716 
L 157.732217 80.605595 
L 161.38002 80.987971 
L 165.027824 80.267892 
L 168.675628 80.730089 
L 172.323432 79.92172 
L 175.971236 80.359993 
L 179.61904 79.512666 
L 183.266844 73.084459 
L 186.914648 62.872925 
L 190.562451 60.024154 
L 194.210255 58.746389 
L 197.858059 58.050023 
L 201.505863 57.630594 
L 205.153667 57.308771 
L 208.801471 57.092599 
L 212.449275 56.907763 
L 216.097079 56.756802 
L 219.744883 56.620239 
L 223.392686 56.510353 
L 227.04049 56.405761 
L 230.688294 56.314295 
L 234.336098 56.232781 
L 237.983902 56.152748 
L 241.631706 56.066364 
L 245.27951 55.999459 
L 248.927314 55.928107 
L 252.575117 55.864378 
L 256.222921 55.808906 
L 259.870725 55.742636 
L 263.518529 55.681447 
L 267.166333 55.620258 
L 270.814137 55.566691 
L 274.461941 55.508255 
L 278.109745 55.459346 
L 281.757549 55.414461 
L 285.405352 55.374868 
L 289.053156 55.334428 
L 292.70096 53.944025 
L 296.348764 53.91396 
L 299.996568 53.901468 
L 303.644372 53.879025 
L 307.292176 53.860817 
L 310.93998 53.84409 
L 314.587783 53.835621 
L 318.235587 53.825882 
L 321.883391 53.818895 
L 325.531195 53.808944 
L 329.178999 53.798993 
L 332.826803 53.784595 
L 336.474607 53.777609 
L 340.122411 53.777185 
L 343.770215 53.774433 
L 347.418018 53.769139 
L 351.065822 53.760247 
L 354.713626 53.751778 
L 358.36143 53.740557 
L 362.009234 53.736534 
L 365.657038 53.727853 
L 369.304842 53.720231 
L 372.952646 53.715361 
L 376.600449 53.709856 
L 380.248253 53.701599 
L 383.896057 53.698211 
L 387.543861 53.69313 
L 391.191665 53.687413 
L 394.839469 53.683391 
L 398.487273 53.677039 
" clip-path="url(#p5c941a75bc)" style="fill: none; stroke: #ff7f0e; stroke-width: 1.5; stroke-linecap: square"/>
   </g>
   <g id="line2d_3">
    <path d="M 73.832727 281.46773 
L 77.480531 136.804393 
L 81.128335 109.336149 
L 84.776139 97.719602 
L 88.423943 93.363555 
L 92.071747 90.280404 
L 95.719551 89.242313 
L 99.367354 88.181567 
L 103.015158 87.773783 
L 106.662962 86.994208 
L 110.310766 87.146016 
L 113.95857 86.327484 
L 117.606374 86.632793 
L 121.254178 86.215904 
L 124.901982 86.398836 
L 128.549785 85.859146 
L 132.197589 86.362207 
L 135.845393 85.689554 
L 139.493197 86.255497 
L 143.141001 85.748414 
L 146.788805 86.059651 
L 150.436609 85.64361 
L 154.084413 85.805368 
L 157.732217 85.317975 
L 161.38002 85.566541 
L 165.027824 85.222487 
L 168.675628 85.476135 
L 172.323432 84.923742 
L 175.971236 85.29765 
L 179.61904 84.747374 
L 183.266844 77.184318 
L 186.914648 64.8659 
L 190.562451 61.486121 
L 194.210255 60.066711 
L 197.858059 59.258977 
L 201.505863 58.759516 
L 205.153667 58.423931 
L 208.801471 58.151228 
L 212.449275 57.92574 
L 216.097079 57.754666 
L 219.744883 57.596507 
L 223.392686 57.460155 
L 227.04049 57.335237 
L 230.688294 57.22768 
L 234.336098 57.129228 
L 237.983902 57.036915 
L 241.631706 56.934228 
L 245.27951 56.835564 
L 248.927314 56.756379 
L 252.575117 56.674652 
L 256.222921 56.596526 
L 259.870725 56.51607 
L 263.518529 56.445565 
L 267.166333 56.373155 
L 270.814137 56.309425 
L 274.461941 56.252471 
L 278.109745 56.187895 
L 281.757549 56.131364 
L 285.405352 56.071234 
L 289.053156 56.017879 
L 292.70096 54.378275 
L 296.348764 54.33847 
L 299.996568 54.304382 
L 303.644372 54.284057 
L 307.292176 54.26119 
L 310.93998 54.242135 
L 314.587783 54.229855 
L 318.235587 54.213128 
L 321.883391 54.200637 
L 325.531195 54.198519 
L 329.178999 54.184334 
L 332.826803 54.178405 
L 336.474607 54.171842 
L 340.122411 54.164008 
L 343.770215 54.150669 
L 347.418018 54.143047 
L 351.065822 54.135849 
L 354.713626 54.124204 
L 358.36143 54.114253 
L 362.009234 54.105572 
L 365.657038 54.09922 
L 369.304842 54.09181 
L 372.952646 54.080588 
L 376.600449 54.076565 
L 380.248253 54.073389 
L 383.896057 54.066614 
L 387.543861 54.062803 
L 391.191665 54.05878 
L 394.839469 54.055181 
L 398.487273 54.050523 
" clip-path="url(#p5c941a75bc)" style="fill: none; stroke: #2ca02c; stroke-width: 1.5; stroke-linecap: square"/>
   </g>
   <g id="line2d_4">
    <path d="M 73.832727 281.327356 
L 77.480531 137.702958 
L 81.128335 110.893815 
L 84.776139 99.860361 
L 88.423943 96.035111 
L 92.071747 93.85243 
L 95.719551 93.634564 
L 99.367354 93.320787 
L 103.015158 94.303829 
L 106.662962 94.165149 
L 110.310766 95.056515 
L 113.95857 95.275227 
L 117.606374 96.220795 
L 121.254178 96.132929 
L 124.901982 96.868252 
L 128.549785 96.177814 
L 132.197589 96.947861 
L 135.845393 96.57353 
L 139.493197 97.158952 
L 143.141001 96.722797 
L 146.788805 97.668999 
L 150.436609 97.186899 
L 154.084413 97.920106 
L 157.732217 97.168903 
L 161.38002 97.795188 
L 165.027824 97.097128 
L 168.675628 97.682761 
L 172.323432 96.876298 
L 175.971236 97.550644 
L 179.61904 97.071085 
L 183.266844 86.457695 
L 186.914648 69.746814 
L 190.562451 65.559513 
L 194.210255 63.822303 
L 197.858059 62.796915 
L 201.505863 62.108595 
L 205.153667 61.671381 
L 208.801471 61.33262 
L 212.449275 61.041073 
L 216.097079 60.8014 
L 219.744883 60.561303 
L 223.392686 60.36715 
L 227.04049 60.153307 
L 230.688294 59.957249 
L 234.336098 59.814969 
L 237.983902 59.66909 
L 241.631706 59.540361 
L 245.27951 59.408668 
L 248.927314 59.279727 
L 252.575117 59.169206 
L 256.222921 59.07287 
L 259.870725 58.979923 
L 263.518529 58.880835 
L 267.166333 58.803132 
L 270.814137 58.726275 
L 274.461941 58.645184 
L 278.109745 58.566211 
L 281.757549 58.477074 
L 285.405352 58.402123 
L 289.053156 58.323361 
L 292.70096 55.95669 
L 296.348764 55.885974 
L 299.996568 55.805095 
L 303.644372 55.744541 
L 307.292176 55.709183 
L 310.93998 55.656675 
L 314.587783 55.612212 
L 318.235587 55.583841 
L 321.883391 55.56775 
L 325.531195 55.546789 
L 329.178999 55.525617 
L 332.826803 55.511643 
L 336.474607 55.498516 
L 340.122411 55.488988 
L 343.770215 55.480731 
L 347.418018 55.476285 
L 351.065822 55.465486 
L 354.713626 55.455535 
L 358.36143 55.440291 
L 362.009234 55.433092 
L 365.657038 55.424623 
L 369.304842 55.415943 
L 372.952646 55.401545 
L 376.600449 55.390536 
L 380.248253 55.3899 
L 383.896057 55.380373 
L 387.543861 55.370422 
L 391.191665 55.364705 
L 394.839469 55.357718 
L 398.487273 55.350096 
" clip-path="url(#p5c941a75bc)" style="fill: none; stroke: #d62728; stroke-width: 1.5; stroke-linecap: square"/>
   </g>
   <g id="line2d_5">
    <path d="M 73.832727 280.976526 
L 77.480531 140.673682 
L 81.128335 116.189077 
L 84.776139 107.596821 
L 88.423943 106.477003 
L 92.071747 107.798596 
L 95.719551 111.675295 
L 99.367354 114.214311 
L 103.015158 117.207901 
L 106.662962 116.784662 
L 110.310766 116.604695 
L 113.95857 116.352741 
L 117.606374 117.617591 
L 121.254178 117.244107 
L 124.901982 117.664594 
L 128.549785 117.147983 
L 132.197589 117.606158 
L 135.845393 117.063505 
L 139.493197 117.579269 
L 143.141001 116.518099 
L 146.788805 117.634741 
L 150.436609 117.815131 
L 154.084413 117.957199 
L 157.732217 116.432985 
L 161.38002 116.750786 
L 165.027824 116.704841 
L 168.675628 117.732346 
L 172.323432 117.713503 
L 175.971236 118.175065 
L 179.61904 116.891795 
L 183.266844 98.658605 
L 186.914648 77.00922 
L 190.562451 71.926531 
L 194.210255 69.741098 
L 197.858059 68.255418 
L 201.505863 67.458058 
L 205.153667 66.673403 
L 208.801471 66.295472 
L 212.449275 65.823747 
L 216.097079 65.610328 
L 219.744883 65.174384 
L 223.392686 65.068521 
L 227.04049 64.699483 
L 230.688294 64.688897 
L 234.336098 64.34082 
L 237.983902 64.379566 
L 241.631706 64.081456 
L 245.27951 64.131211 
L 248.927314 63.850251 
L 252.575117 63.95315 
L 256.222921 63.669861 
L 259.870725 63.778688 
L 263.518529 63.530757 
L 267.166333 63.671766 
L 270.814137 63.446278 
L 274.461941 63.607402 
L 278.109745 63.38636 
L 281.757549 63.574372 
L 285.405352 63.374927 
L 289.053156 63.567385 
L 292.70096 58.889728 
L 296.348764 58.328654 
L 299.996568 57.981001 
L 303.644372 57.757842 
L 307.292176 57.615985 
L 310.93998 57.504406 
L 314.587783 57.425009 
L 318.235587 57.359585 
L 321.883391 57.312159 
L 325.531195 57.264732 
L 329.178999 57.232973 
L 332.826803 57.207355 
L 336.474607 57.179195 
L 340.122411 57.154 
L 343.770215 57.138332 
L 347.418018 57.11483 
L 351.065822 57.09641 
L 354.713626 57.081166 
L 358.36143 57.061899 
L 362.009234 57.048348 
L 365.657038 57.031834 
L 369.304842 57.018495 
L 372.952646 57.007062 
L 376.600449 56.996687 
L 380.248253 56.984196 
L 383.896057 56.973186 
L 387.543861 56.954766 
L 391.191665 56.942274 
L 394.839469 56.93317 
L 398.487273 56.918984 
" clip-path="url(#p5c941a75bc)" style="fill: none; stroke: #9467bd; stroke-width: 1.5; stroke-linecap: square"/>
   </g>
   <g id="line2d_6">
    <path d="M 73.832727 279.768419 
L 77.480531 153.250617 
L 81.128335 138.978817 
L 84.776139 145.038197 
L 88.423943 153.816984 
L 92.071747 155.132012 
L 95.719551 154.141348 
L 99.367354 151.640866 
L 103.015158 153.658189 
L 106.662962 153.065992 
L 110.310766 154.525206 
L 113.95857 153.941478 
L 117.606374 153.337636 
L 121.254178 152.55658 
L 124.901982 153.378076 
L 128.549785 153.660942 
L 132.197589 153.37363 
L 135.845393 153.860387 
L 139.493197 153.238337 
L 143.141001 153.499183 
L 146.788805 154.520972 
L 150.436609 152.904869 
L 154.084413 152.977279 
L 157.732217 153.544493 
L 161.38002 153.500242 
L 165.027824 153.171855 
L 168.675628 153.782896 
L 172.323432 153.457262 
L 175.971236 153.188158 
L 179.61904 153.496854 
L 183.266844 117.105426 
L 186.914648 85.489473 
L 190.562451 78.777766 
L 194.210255 75.490723 
L 197.858059 73.889441 
L 201.505863 72.772587 
L 205.153667 72.264657 
L 208.801471 71.75948 
L 212.449275 71.57549 
L 216.097079 71.31909 
L 219.744883 71.37922 
L 223.392686 71.308927 
L 227.04049 71.478096 
L 230.688294 71.583747 
L 234.336098 71.929072 
L 237.983902 72.216384 
L 241.631706 72.7042 
L 245.27951 73.144166 
L 248.927314 73.802633 
L 252.575117 74.419602 
L 256.222921 75.250414 
L 259.870725 76.006275 
L 263.518529 76.961794 
L 267.166333 77.812085 
L 270.814137 78.750877 
L 274.461941 79.501656 
L 278.109745 80.495497 
L 281.757549 81.213459 
L 285.405352 82.029027 
L 289.053156 82.590524 
L 292.70096 71.331582 
L 296.348764 64.860607 
L 299.996568 61.911478 
L 303.644372 60.515146 
L 307.292176 59.758862 
L 310.93998 59.330964 
L 314.587783 59.05805 
L 318.235587 58.860721 
L 321.883391 58.723735 
L 325.531195 58.605803 
L 329.178999 58.522172 
L 332.826803 58.451667 
L 336.474607 58.381374 
L 340.122411 58.328019 
L 343.770215 58.288215 
L 347.418018 58.247563 
L 351.065822 58.210935 
L 354.713626 58.156521 
L 358.36143 58.12815 
L 362.009234 58.097661 
L 365.657038 58.067173 
L 369.304842 58.045789 
L 372.952646 58.024616 
L 376.600449 58.009584 
L 380.248253 57.982906 
L 383.896057 57.962369 
L 387.543861 57.947548 
L 391.191665 57.931668 
L 394.839469 57.914519 
L 398.487273 57.909226 
" clip-path="url(#p5c941a75bc)" style="fill: none; stroke: #8c564b; stroke-width: 1.5; stroke-linecap: square"/>
   </g>
   <g id="line2d_7">
    <path d="M 73.832727 276.33952 
L 77.480531 224.188495 
L 81.128335 230.1454 
L 84.776139 231.290413 
L 88.423943 228.824866 
L 92.071747 230.972612 
L 95.719551 229.465548 
L 99.367354 230.395871 
L 103.015158 229.863593 
L 106.662962 230.099455 
L 110.310766 230.017306 
L 113.95857 230.008625 
L 117.606374 230.049488 
L 121.254178 229.996345 
L 124.901982 230.036784 
L 128.549785 230.015188 
L 132.197589 230.013918 
L 135.845393 230.027045 
L 139.493197 229.997192 
L 143.141001 230.040807 
L 146.788805 229.988723 
L 150.436609 230.049065 
L 154.084413 229.989358 
L 157.732217 230.048641 
L 161.38002 229.990628 
L 165.027824 230.044618 
L 168.675628 229.997403 
L 172.323432 230.043983 
L 175.971236 229.995074 
L 179.61904 230.047371 
L 183.266844 148.987095 
L 186.914648 93.81072 
L 190.562451 86.063038 
L 194.210255 83.980292 
L 197.858059 84.165552 
L 201.505863 85.189458 
L 205.153667 87.525852 
L 208.801471 90.390078 
L 212.449275 93.971632 
L 216.097079 97.24089 
L 219.744883 100.053031 
L 223.392686 101.863287 
L 227.04049 103.096801 
L 230.688294 103.661262 
L 234.336098 104.210267 
L 237.983902 104.275267 
L 241.631706 104.46582 
L 245.27951 104.335821 
L 248.927314 104.487205 
L 252.575117 104.369485 
L 256.222921 104.554322 
L 259.870725 104.444859 
L 263.518529 104.590738 
L 267.166333 104.448882 
L 270.814137 104.574012 
L 274.461941 104.429192 
L 278.109745 104.553898 
L 281.757549 104.433003 
L 285.405352 104.572107 
L 289.053156 104.435543 
L 292.70096 84.651039 
L 296.348764 72.740193 
L 299.996568 68.391346 
L 303.644372 66.399006 
L 307.292176 65.358374 
L 310.93998 64.74818 
L 314.587783 64.356699 
L 318.235587 64.096912 
L 321.883391 63.904241 
L 325.531195 63.771066 
L 329.178999 63.666897 
L 332.826803 63.589828 
L 336.474607 63.533933 
L 340.122411 63.473379 
L 343.770215 63.42934 
L 347.418018 63.406262 
L 351.065822 63.404145 
L 354.713626 63.398852 
L 358.36143 63.395041 
L 362.009234 63.420024 
L 365.657038 63.430822 
L 369.304842 63.439715 
L 372.952646 63.454536 
L 376.600449 63.470627 
L 380.248253 63.491164 
L 383.896057 63.515513 
L 387.543861 63.539438 
L 391.191665 63.563786 
L 394.839469 63.58517 
L 398.487273 63.624763 
" clip-path="url(#p5c941a75bc)" style="fill: none; stroke: #e377c2; stroke-width: 1.5; stroke-linecap: square"/>
   </g>
   <g id="line2d_8">
    <path d="M 73.832727 267.842541 
L 77.480531 269.266397 
L 81.128335 269.20182 
L 84.776139 269.203302 
L 88.423943 269.203302 
L 92.071747 269.203302 
L 95.719551 269.203302 
L 99.367354 269.203302 
L 103.015158 269.203302 
L 106.662962 269.203302 
L 110.310766 269.203302 
L 113.95857 269.203302 
L 117.606374 269.203302 
L 121.254178 269.203302 
L 124.901982 269.203302 
L 128.549785 269.203302 
L 132.197589 269.203302 
L 135.845393 269.203302 
L 139.493197 269.203302 
L 143.141001 269.203302 
L 146.788805 269.203302 
L 150.436609 269.203302 
L 154.084413 269.203302 
L 157.732217 269.203302 
L 161.38002 269.203302 
L 165.027824 269.203302 
L 168.675628 269.203302 
L 172.323432 269.203302 
L 175.971236 269.203302 
L 179.61904 269.203302 
L 183.266844 224.579129 
L 186.914648 120.880285 
L 190.562451 137.952159 
L 194.210255 141.297003 
L 197.858059 143.678706 
L 201.505863 143.563527 
L 205.153667 143.990155 
L 208.801471 143.644618 
L 212.449275 144.115708 
L 216.097079 143.820562 
L 219.744883 144.188754 
L 223.392686 143.719146 
L 227.04049 143.989943 
L 230.688294 143.700937 
L 234.336098 144.006034 
L 237.983902 143.886409 
L 241.631706 144.165675 
L 245.27951 143.825432 
L 248.927314 144.004764 
L 252.575117 143.684634 
L 256.222921 144.029747 
L 259.870725 143.758527 
L 263.518529 144.082255 
L 267.166333 143.787321 
L 270.814137 144.135399 
L 274.461941 143.754504 
L 278.109745 144.080562 
L 281.757549 143.712371 
L 285.405352 144.01408 
L 289.053156 143.713217 
L 292.70096 100.122689 
L 296.348764 81.158834 
L 299.996568 74.809601 
L 303.644372 72.26254 
L 307.292176 71.043635 
L 310.93998 70.519402 
L 314.587783 70.265542 
L 318.235587 70.207318 
L 321.883391 70.234207 
L 325.531195 70.318897 
L 329.178999 70.427513 
L 332.826803 70.53888 
L 336.474607 70.659564 
L 340.122411 70.793163 
L 343.770215 70.921257 
L 347.418018 71.048081 
L 351.065822 71.161778 
L 354.713626 71.280556 
L 358.36143 71.399122 
L 362.009234 71.498633 
L 365.657038 71.609154 
L 369.304842 71.710359 
L 372.952646 71.809235 
L 376.600449 71.890538 
L 380.248253 71.963795 
L 383.896057 72.043827 
L 387.543861 72.110733 
L 391.191665 72.177003 
L 394.839469 72.236498 
L 398.487273 72.298745 
" clip-path="url(#p5c941a75bc)" style="fill: none; stroke: #7f7f7f; stroke-width: 1.5; stroke-linecap: square"/>
   </g>
   <g id="line2d_9">
    <path d="M 73.832727 252.127406 
L 77.480531 253.359227 
L 81.128335 253.359227 
L 84.776139 253.359227 
L 88.423943 253.359227 
L 92.071747 253.359227 
L 95.719551 253.359227 
L 99.367354 253.359227 
L 103.015158 253.359227 
L 106.662962 253.359227 
L 110.310766 253.359227 
L 113.95857 253.359227 
L 117.606374 253.359227 
L 121.254178 253.359227 
L 124.901982 253.359227 
L 128.549785 253.359227 
L 132.197589 253.359227 
L 135.845393 253.359227 
L 139.493197 253.359227 
L 143.141001 253.359227 
L 146.788805 253.359227 
L 150.436609 253.359227 
L 154.084413 253.359227 
L 157.732217 253.359227 
L 161.38002 253.359227 
L 165.027824 253.359227 
L 168.675628 253.359227 
L 172.323432 253.359227 
L 175.971236 253.359227 
L 179.61904 253.359227 
L 183.266844 283.124273 
L 186.914648 257.297961 
L 190.562451 254.741796 
L 194.210255 254.377839 
L 197.858059 254.381439 
L 201.505863 254.377839 
L 205.153667 254.378898 
L 208.801471 254.378263 
L 212.449275 254.378051 
L 216.097079 254.378686 
L 219.744883 254.378263 
L 223.392686 254.378263 
L 227.04049 254.378475 
L 230.688294 254.378051 
L 234.336098 254.378475 
L 237.983902 254.378263 
L 241.631706 254.378475 
L 245.27951 254.378475 
L 248.927314 254.378475 
L 252.575117 254.378475 
L 256.222921 254.378475 
L 259.870725 254.378475 
L 263.518529 254.378475 
L 267.166333 254.378475 
L 270.814137 254.378475 
L 274.461941 254.378475 
L 278.109745 254.378475 
L 281.757549 254.378475 
L 285.405352 254.378475 
L 289.053156 254.378475 
L 292.70096 143.733967 
L 296.348764 99.162724 
L 299.996568 89.664917 
L 303.644372 87.033801 
L 307.292176 86.459177 
L 310.93998 86.601669 
L 314.587783 86.847271 
L 318.235587 87.094566 
L 321.883391 87.330429 
L 325.531195 87.573278 
L 329.178999 87.765314 
L 332.826803 87.930883 
L 336.474607 88.072528 
L 340.122411 88.196387 
L 343.770215 88.29484 
L 347.418018 88.378048 
L 351.065822 88.444107 
L 354.713626 88.509953 
L 358.36143 88.549123 
L 362.009234 88.582575 
L 365.657038 88.613064 
L 369.304842 88.638047 
L 372.952646 88.660914 
L 376.600449 88.680604 
L 380.248253 88.695637 
L 383.896057 88.705376 
L 387.543861 88.715539 
L 391.191665 88.717868 
L 394.839469 88.723585 
L 398.487273 88.725702 
" clip-path="url(#p5c941a75bc)" style="fill: none; stroke: #bcbd22; stroke-width: 1.5; stroke-linecap: square"/>
   </g>
   <g id="line2d_10">
    <path d="M 73.832727 229.132927 
L 77.480531 229.504929 
L 81.128335 229.504929 
L 84.776139 229.504929 
L 88.423943 229.504929 
L 92.071747 229.504929 
L 95.719551 229.504929 
L 99.367354 229.504929 
L 103.015158 229.504929 
L 106.662962 229.504929 
L 110.310766 229.504929 
L 113.95857 229.504929 
L 117.606374 229.504929 
L 121.254178 229.504929 
L 124.901982 229.504929 
L 128.549785 229.504929 
L 132.197589 229.504929 
L 135.845393 229.504929 
L 139.493197 229.504929 
L 143.141001 229.504929 
L 146.788805 229.504929 
L 150.436609 229.504929 
L 154.084413 229.504929 
L 157.732217 229.504929 
L 161.38002 229.504929 
L 165.027824 229.504929 
L 168.675628 229.504929 
L 172.323432 229.504929 
L 175.971236 229.504929 
L 179.61904 229.504929 
L 183.266844 295.488 
L 186.914648 294.273117 
L 190.562451 294.270788 
L 194.210255 294.271 
L 197.858059 294.271 
L 201.505863 294.271 
L 205.153667 294.271 
L 208.801471 294.271 
L 212.449275 294.271 
L 216.097079 294.271 
L 219.744883 294.271 
L 223.392686 294.271 
L 227.04049 294.271 
L 230.688294 294.271 
L 234.336098 294.271 
L 237.983902 294.271 
L 241.631706 294.271 
L 245.27951 294.271 
L 248.927314 294.271 
L 252.575117 294.271 
L 256.222921 294.271 
L 259.870725 294.271 
L 263.518529 294.271 
L 267.166333 294.271 
L 270.814137 294.271 
L 274.461941 294.271 
L 278.109745 294.271 
L 281.757549 294.271 
L 285.405352 294.271 
L 289.053156 294.271 
L 292.70096 245.457197 
L 296.348764 196.682139 
L 299.996568 166.988233 
L 303.644372 158.138942 
L 307.292176 154.737779 
L 310.93998 153.318581 
L 314.587783 152.688697 
L 318.235587 152.378095 
L 321.883391 152.214431 
L 325.531195 152.130799 
L 329.178999 152.087607 
L 332.826803 152.047168 
L 336.474607 152.021337 
L 340.122411 152.013292 
L 343.770215 152.012445 
L 347.418018 152.010328 
L 351.065822 152.009481 
L 354.713626 152.007787 
L 358.36143 152.006516 
L 362.009234 152.006516 
L 365.657038 152.006093 
L 369.304842 152.005881 
L 372.952646 152.00567 
L 376.600449 152.005246 
L 380.248253 152.005034 
L 383.896057 152.005034 
L 387.543861 152.005246 
L 391.191665 152.005246 
L 394.839469 152.005246 
L 398.487273 152.005246 
" clip-path="url(#p5c941a75bc)" style="fill: none; stroke: #17becf; stroke-width: 1.5; stroke-linecap: square"/>
   </g>
   <g id="matplotlib.axis_1">
    <g id="xtick_1">
     <g id="line2d_11">
      <defs>
       <path id="mf98454f8e4" d="M 0 0 
L 0 3.5 
" style="stroke: #000000; stroke-width: 0.8"/>
      </defs>
      <g>
       <use xlink:href="#mf98454f8e4" x="73.832727" y="307.584" style="stroke: #000000; stroke-width: 0.8"/>
      </g>
     </g>
     <g id="text_1">
      <!-- 0 -->
      <g transform="translate(70.651477 322.182437) scale(0.1 -0.1)">
       <defs>
        <path id="DejaVuSans-30" d="M 2034 4250 
Q 1547 4250 1301 3770 
Q 1056 3291 1056 2328 
Q 1056 1369 1301 889 
Q 1547 409 2034 409 
Q 2525 409 2770 889 
Q 3016 1369 3016 2328 
Q 3016 3291 2770 3770 
Q 2525 4250 2034 4250 
z
M 2034 4750 
Q 2819 4750 3233 4129 
Q 3647 3509 3647 2328 
Q 3647 1150 3233 529 
Q 2819 -91 2034 -91 
Q 1250 -91 836 529 
Q 422 1150 422 2328 
Q 422 3509 836 4129 
Q 1250 4750 2034 4750 
z
" transform="scale(0.015625)"/>
       </defs>
       <use xlink:href="#DejaVuSans-30"/>
      </g>
     </g>
    </g>
    <g id="xtick_2">
     <g id="line2d_12">
      <g>
       <use xlink:href="#mf98454f8e4" x="146.788805" y="307.584" style="stroke: #000000; stroke-width: 0.8"/>
      </g>
     </g>
     <g id="text_2">
      <!-- 20 -->
      <g transform="translate(140.426305 322.182437) scale(0.1 -0.1)">
       <defs>
        <path id="DejaVuSans-32" d="M 1228 531 
L 3431 531 
L 3431 0 
L 469 0 
L 469 531 
Q 828 903 1448 1529 
Q 2069 2156 2228 2338 
Q 2531 2678 2651 2914 
Q 2772 3150 2772 3378 
Q 2772 3750 2511 3984 
Q 2250 4219 1831 4219 
Q 1534 4219 1204 4116 
Q 875 4013 500 3803 
L 500 4441 
Q 881 4594 1212 4672 
Q 1544 4750 1819 4750 
Q 2544 4750 2975 4387 
Q 3406 4025 3406 3419 
Q 3406 3131 3298 2873 
Q 3191 2616 2906 2266 
Q 2828 2175 2409 1742 
Q 1991 1309 1228 531 
z
" transform="scale(0.015625)"/>
       </defs>
       <use xlink:href="#DejaVuSans-32"/>
       <use xlink:href="#DejaVuSans-30" x="63.623047"/>
      </g>
     </g>
    </g>
    <g id="xtick_3">
     <g id="line2d_13">
      <g>
       <use xlink:href="#mf98454f8e4" x="219.744883" y="307.584" style="stroke: #000000; stroke-width: 0.8"/>
      </g>
     </g>
     <g id="text_3">
      <!-- 40 -->
      <g transform="translate(213.382383 322.182437) scale(0.1 -0.1)">
       <defs>
        <path id="DejaVuSans-34" d="M 2419 4116 
L 825 1625 
L 2419 1625 
L 2419 4116 
z
M 2253 4666 
L 3047 4666 
L 3047 1625 
L 3713 1625 
L 3713 1100 
L 3047 1100 
L 3047 0 
L 2419 0 
L 2419 1100 
L 313 1100 
L 313 1709 
L 2253 4666 
z
" transform="scale(0.015625)"/>
       </defs>
       <use xlink:href="#DejaVuSans-34"/>
       <use xlink:href="#DejaVuSans-30" x="63.623047"/>
      </g>
     </g>
    </g>
    <g id="xtick_4">
     <g id="line2d_14">
      <g>
       <use xlink:href="#mf98454f8e4" x="292.70096" y="307.584" style="stroke: #000000; stroke-width: 0.8"/>
      </g>
     </g>
     <g id="text_4">
      <!-- 60 -->
      <g transform="translate(286.33846 322.182437) scale(0.1 -0.1)">
       <defs>
        <path id="DejaVuSans-36" d="M 2113 2584 
Q 1688 2584 1439 2293 
Q 1191 2003 1191 1497 
Q 1191 994 1439 701 
Q 1688 409 2113 409 
Q 2538 409 2786 701 
Q 3034 994 3034 1497 
Q 3034 2003 2786 2293 
Q 2538 2584 2113 2584 
z
M 3366 4563 
L 3366 3988 
Q 3128 4100 2886 4159 
Q 2644 4219 2406 4219 
Q 1781 4219 1451 3797 
Q 1122 3375 1075 2522 
Q 1259 2794 1537 2939 
Q 1816 3084 2150 3084 
Q 2853 3084 3261 2657 
Q 3669 2231 3669 1497 
Q 3669 778 3244 343 
Q 2819 -91 2113 -91 
Q 1303 -91 875 529 
Q 447 1150 447 2328 
Q 447 3434 972 4092 
Q 1497 4750 2381 4750 
Q 2619 4750 2861 4703 
Q 3103 4656 3366 4563 
z
" transform="scale(0.015625)"/>
       </defs>
       <use xlink:href="#DejaVuSans-36"/>
       <use xlink:href="#DejaVuSans-30" x="63.623047"/>
      </g>
     </g>
    </g>
    <g id="xtick_5">
     <g id="line2d_15">
      <g>
       <use xlink:href="#mf98454f8e4" x="365.657038" y="307.584" style="stroke: #000000; stroke-width: 0.8"/>
      </g>
     </g>
     <g id="text_5">
      <!-- 80 -->
      <g transform="translate(359.294538 322.182437) scale(0.1 -0.1)">
       <defs>
        <path id="DejaVuSans-38" d="M 2034 2216 
Q 1584 2216 1326 1975 
Q 1069 1734 1069 1313 
Q 1069 891 1326 650 
Q 1584 409 2034 409 
Q 2484 409 2743 651 
Q 3003 894 3003 1313 
Q 3003 1734 2745 1975 
Q 2488 2216 2034 2216 
z
M 1403 2484 
Q 997 2584 770 2862 
Q 544 3141 544 3541 
Q 544 4100 942 4425 
Q 1341 4750 2034 4750 
Q 2731 4750 3128 4425 
Q 3525 4100 3525 3541 
Q 3525 3141 3298 2862 
Q 3072 2584 2669 2484 
Q 3125 2378 3379 2068 
Q 3634 1759 3634 1313 
Q 3634 634 3220 271 
Q 2806 -91 2034 -91 
Q 1263 -91 848 271 
Q 434 634 434 1313 
Q 434 1759 690 2068 
Q 947 2378 1403 2484 
z
M 1172 3481 
Q 1172 3119 1398 2916 
Q 1625 2713 2034 2713 
Q 2441 2713 2670 2916 
Q 2900 3119 2900 3481 
Q 2900 3844 2670 4047 
Q 2441 4250 2034 4250 
Q 1625 4250 1398 4047 
Q 1172 3844 1172 3481 
z
" transform="scale(0.015625)"/>
       </defs>
       <use xlink:href="#DejaVuSans-38"/>
       <use xlink:href="#DejaVuSans-30" x="63.623047"/>
      </g>
     </g>
    </g>
    <g id="text_6">
     <!-- Epoques -->
     <g transform="translate(214.742812 335.860562) scale(0.1 -0.1)">
      <defs>
       <path id="DejaVuSans-45" d="M 628 4666 
L 3578 4666 
L 3578 4134 
L 1259 4134 
L 1259 2753 
L 3481 2753 
L 3481 2222 
L 1259 2222 
L 1259 531 
L 3634 531 
L 3634 0 
L 628 0 
L 628 4666 
z
" transform="scale(0.015625)"/>
       <path id="DejaVuSans-70" d="M 1159 525 
L 1159 -1331 
L 581 -1331 
L 581 3500 
L 1159 3500 
L 1159 2969 
Q 1341 3281 1617 3432 
Q 1894 3584 2278 3584 
Q 2916 3584 3314 3078 
Q 3713 2572 3713 1747 
Q 3713 922 3314 415 
Q 2916 -91 2278 -91 
Q 1894 -91 1617 61 
Q 1341 213 1159 525 
z
M 3116 1747 
Q 3116 2381 2855 2742 
Q 2594 3103 2138 3103 
Q 1681 3103 1420 2742 
Q 1159 2381 1159 1747 
Q 1159 1113 1420 752 
Q 1681 391 2138 391 
Q 2594 391 2855 752 
Q 3116 1113 3116 1747 
z
" transform="scale(0.015625)"/>
       <path id="DejaVuSans-6f" d="M 1959 3097 
Q 1497 3097 1228 2736 
Q 959 2375 959 1747 
Q 959 1119 1226 758 
Q 1494 397 1959 397 
Q 2419 397 2687 759 
Q 2956 1122 2956 1747 
Q 2956 2369 2687 2733 
Q 2419 3097 1959 3097 
z
M 1959 3584 
Q 2709 3584 3137 3096 
Q 3566 2609 3566 1747 
Q 3566 888 3137 398 
Q 2709 -91 1959 -91 
Q 1206 -91 779 398 
Q 353 888 353 1747 
Q 353 2609 779 3096 
Q 1206 3584 1959 3584 
z
" transform="scale(0.015625)"/>
       <path id="DejaVuSans-71" d="M 947 1747 
Q 947 1113 1208 752 
Q 1469 391 1925 391 
Q 2381 391 2643 752 
Q 2906 1113 2906 1747 
Q 2906 2381 2643 2742 
Q 2381 3103 1925 3103 
Q 1469 3103 1208 2742 
Q 947 2381 947 1747 
z
M 2906 525 
Q 2725 213 2448 61 
Q 2172 -91 1784 -91 
Q 1150 -91 751 415 
Q 353 922 353 1747 
Q 353 2572 751 3078 
Q 1150 3584 1784 3584 
Q 2172 3584 2448 3432 
Q 2725 3281 2906 2969 
L 2906 3500 
L 3481 3500 
L 3481 -1331 
L 2906 -1331 
L 2906 525 
z
" transform="scale(0.015625)"/>
       <path id="DejaVuSans-75" d="M 544 1381 
L 544 3500 
L 1119 3500 
L 1119 1403 
Q 1119 906 1312 657 
Q 1506 409 1894 409 
Q 2359 409 2629 706 
Q 2900 1003 2900 1516 
L 2900 3500 
L 3475 3500 
L 3475 0 
L 2900 0 
L 2900 538 
Q 2691 219 2414 64 
Q 2138 -91 1772 -91 
Q 1169 -91 856 284 
Q 544 659 544 1381 
z
M 1991 3584 
L 1991 3584 
z
" transform="scale(0.015625)"/>
       <path id="DejaVuSans-65" d="M 3597 1894 
L 3597 1613 
L 953 1613 
Q 991 1019 1311 708 
Q 1631 397 2203 397 
Q 2534 397 2845 478 
Q 3156 559 3463 722 
L 3463 178 
Q 3153 47 2828 -22 
Q 2503 -91 2169 -91 
Q 1331 -91 842 396 
Q 353 884 353 1716 
Q 353 2575 817 3079 
Q 1281 3584 2069 3584 
Q 2775 3584 3186 3129 
Q 3597 2675 3597 1894 
z
M 3022 2063 
Q 3016 2534 2758 2815 
Q 2500 3097 2075 3097 
Q 1594 3097 1305 2825 
Q 1016 2553 972 2059 
L 3022 2063 
z
" transform="scale(0.015625)"/>
       <path id="DejaVuSans-73" d="M 2834 3397 
L 2834 2853 
Q 2591 2978 2328 3040 
Q 2066 3103 1784 3103 
Q 1356 3103 1142 2972 
Q 928 2841 928 2578 
Q 928 2378 1081 2264 
Q 1234 2150 1697 2047 
L 1894 2003 
Q 2506 1872 2764 1633 
Q 3022 1394 3022 966 
Q 3022 478 2636 193 
Q 2250 -91 1575 -91 
Q 1294 -91 989 -36 
Q 684 19 347 128 
L 347 722 
Q 666 556 975 473 
Q 1284 391 1588 391 
Q 1994 391 2212 530 
Q 2431 669 2431 922 
Q 2431 1156 2273 1281 
Q 2116 1406 1581 1522 
L 1381 1569 
Q 847 1681 609 1914 
Q 372 2147 372 2553 
Q 372 3047 722 3315 
Q 1072 3584 1716 3584 
Q 2034 3584 2315 3537 
Q 2597 3491 2834 3397 
z
" transform="scale(0.015625)"/>
      </defs>
      <use xlink:href="#DejaVuSans-45"/>
      <use xlink:href="#DejaVuSans-70" x="63.183594"/>
      <use xlink:href="#DejaVuSans-6f" x="126.660156"/>
      <use xlink:href="#DejaVuSans-71" x="187.841797"/>
      <use xlink:href="#DejaVuSans-75" x="251.318359"/>
      <use xlink:href="#DejaVuSans-65" x="314.697266"/>
      <use xlink:href="#DejaVuSans-73" x="376.220703"/>
     </g>
    </g>
   </g>
   <g id="matplotlib.axis_2">
    <g id="ytick_1">
     <g id="line2d_16">
      <defs>
       <path id="m9653c95dc0" d="M 0 0 
L -3.5 0 
" style="stroke: #000000; stroke-width: 0.8"/>
      </defs>
      <g>
       <use xlink:href="#m9653c95dc0" x="57.6" y="304.427486" style="stroke: #000000; stroke-width: 0.8"/>
      </g>
     </g>
     <g id="text_7">
      <!-- 0 -->
      <g transform="translate(44.2375 308.226705) scale(0.1 -0.1)">
       <use xlink:href="#DejaVuSans-30"/>
      </g>
     </g>
    </g>
    <g id="ytick_2">
     <g id="line2d_17">
      <g>
       <use xlink:href="#m9653c95dc0" x="57.6" y="250.176268" style="stroke: #000000; stroke-width: 0.8"/>
      </g>
     </g>
     <g id="text_8">
      <!-- 20 -->
      <g transform="translate(37.875 253.975487) scale(0.1 -0.1)">
       <use xlink:href="#DejaVuSans-32"/>
       <use xlink:href="#DejaVuSans-30" x="63.623047"/>
      </g>
     </g>
    </g>
    <g id="ytick_3">
     <g id="line2d_18">
      <g>
       <use xlink:href="#m9653c95dc0" x="57.6" y="195.92505" style="stroke: #000000; stroke-width: 0.8"/>
      </g>
     </g>
     <g id="text_9">
      <!-- 40 -->
      <g transform="translate(37.875 199.724269) scale(0.1 -0.1)">
       <use xlink:href="#DejaVuSans-34"/>
       <use xlink:href="#DejaVuSans-30" x="63.623047"/>
      </g>
     </g>
    </g>
    <g id="ytick_4">
     <g id="line2d_19">
      <g>
       <use xlink:href="#m9653c95dc0" x="57.6" y="141.673832" style="stroke: #000000; stroke-width: 0.8"/>
      </g>
     </g>
     <g id="text_10">
      <!-- 60 -->
      <g transform="translate(37.875 145.473051) scale(0.1 -0.1)">
       <use xlink:href="#DejaVuSans-36"/>
       <use xlink:href="#DejaVuSans-30" x="63.623047"/>
      </g>
     </g>
    </g>
    <g id="ytick_5">
     <g id="line2d_20">
      <g>
       <use xlink:href="#m9653c95dc0" x="57.6" y="87.422614" style="stroke: #000000; stroke-width: 0.8"/>
      </g>
     </g>
     <g id="text_11">
      <!-- 80 -->
      <g transform="translate(37.875 91.221833) scale(0.1 -0.1)">
       <use xlink:href="#DejaVuSans-38"/>
       <use xlink:href="#DejaVuSans-30" x="63.623047"/>
      </g>
     </g>
    </g>
    <g id="text_12">
     <!-- Taux de bonnes classifications en % -->
     <g transform="translate(31.795312 264.338937) rotate(-90) scale(0.1 -0.1)">
      <defs>
       <path id="DejaVuSans-54" d="M -19 4666 
L 3928 4666 
L 3928 4134 
L 2272 4134 
L 2272 0 
L 1638 0 
L 1638 4134 
L -19 4134 
L -19 4666 
z
" transform="scale(0.015625)"/>
       <path id="DejaVuSans-61" d="M 2194 1759 
Q 1497 1759 1228 1600 
Q 959 1441 959 1056 
Q 959 750 1161 570 
Q 1363 391 1709 391 
Q 2188 391 2477 730 
Q 2766 1069 2766 1631 
L 2766 1759 
L 2194 1759 
z
M 3341 1997 
L 3341 0 
L 2766 0 
L 2766 531 
Q 2569 213 2275 61 
Q 1981 -91 1556 -91 
Q 1019 -91 701 211 
Q 384 513 384 1019 
Q 384 1609 779 1909 
Q 1175 2209 1959 2209 
L 2766 2209 
L 2766 2266 
Q 2766 2663 2505 2880 
Q 2244 3097 1772 3097 
Q 1472 3097 1187 3025 
Q 903 2953 641 2809 
L 641 3341 
Q 956 3463 1253 3523 
Q 1550 3584 1831 3584 
Q 2591 3584 2966 3190 
Q 3341 2797 3341 1997 
z
" transform="scale(0.015625)"/>
       <path id="DejaVuSans-78" d="M 3513 3500 
L 2247 1797 
L 3578 0 
L 2900 0 
L 1881 1375 
L 863 0 
L 184 0 
L 1544 1831 
L 300 3500 
L 978 3500 
L 1906 2253 
L 2834 3500 
L 3513 3500 
z
" transform="scale(0.015625)"/>
       <path id="DejaVuSans-20" transform="scale(0.015625)"/>
       <path id="DejaVuSans-64" d="M 2906 2969 
L 2906 4863 
L 3481 4863 
L 3481 0 
L 2906 0 
L 2906 525 
Q 2725 213 2448 61 
Q 2172 -91 1784 -91 
Q 1150 -91 751 415 
Q 353 922 353 1747 
Q 353 2572 751 3078 
Q 1150 3584 1784 3584 
Q 2172 3584 2448 3432 
Q 2725 3281 2906 2969 
z
M 947 1747 
Q 947 1113 1208 752 
Q 1469 391 1925 391 
Q 2381 391 2643 752 
Q 2906 1113 2906 1747 
Q 2906 2381 2643 2742 
Q 2381 3103 1925 3103 
Q 1469 3103 1208 2742 
Q 947 2381 947 1747 
z
" transform="scale(0.015625)"/>
       <path id="DejaVuSans-62" d="M 3116 1747 
Q 3116 2381 2855 2742 
Q 2594 3103 2138 3103 
Q 1681 3103 1420 2742 
Q 1159 2381 1159 1747 
Q 1159 1113 1420 752 
Q 1681 391 2138 391 
Q 2594 391 2855 752 
Q 3116 1113 3116 1747 
z
M 1159 2969 
Q 1341 3281 1617 3432 
Q 1894 3584 2278 3584 
Q 2916 3584 3314 3078 
Q 3713 2572 3713 1747 
Q 3713 922 3314 415 
Q 2916 -91 2278 -91 
Q 1894 -91 1617 61 
Q 1341 213 1159 525 
L 1159 0 
L 581 0 
L 581 4863 
L 1159 4863 
L 1159 2969 
z
" transform="scale(0.015625)"/>
       <path id="DejaVuSans-6e" d="M 3513 2113 
L 3513 0 
L 2938 0 
L 2938 2094 
Q 2938 2591 2744 2837 
Q 2550 3084 2163 3084 
Q 1697 3084 1428 2787 
Q 1159 2491 1159 1978 
L 1159 0 
L 581 0 
L 581 3500 
L 1159 3500 
L 1159 2956 
Q 1366 3272 1645 3428 
Q 1925 3584 2291 3584 
Q 2894 3584 3203 3211 
Q 3513 2838 3513 2113 
z
" transform="scale(0.015625)"/>
       <path id="DejaVuSans-63" d="M 3122 3366 
L 3122 2828 
Q 2878 2963 2633 3030 
Q 2388 3097 2138 3097 
Q 1578 3097 1268 2742 
Q 959 2388 959 1747 
Q 959 1106 1268 751 
Q 1578 397 2138 397 
Q 2388 397 2633 464 
Q 2878 531 3122 666 
L 3122 134 
Q 2881 22 2623 -34 
Q 2366 -91 2075 -91 
Q 1284 -91 818 406 
Q 353 903 353 1747 
Q 353 2603 823 3093 
Q 1294 3584 2113 3584 
Q 2378 3584 2631 3529 
Q 2884 3475 3122 3366 
z
" transform="scale(0.015625)"/>
       <path id="DejaVuSans-6c" d="M 603 4863 
L 1178 4863 
L 1178 0 
L 603 0 
L 603 4863 
z
" transform="scale(0.015625)"/>
       <path id="DejaVuSans-69" d="M 603 3500 
L 1178 3500 
L 1178 0 
L 603 0 
L 603 3500 
z
M 603 4863 
L 1178 4863 
L 1178 4134 
L 603 4134 
L 603 4863 
z
" transform="scale(0.015625)"/>
       <path id="DejaVuSans-66" d="M 2375 4863 
L 2375 4384 
L 1825 4384 
Q 1516 4384 1395 4259 
Q 1275 4134 1275 3809 
L 1275 3500 
L 2222 3500 
L 2222 3053 
L 1275 3053 
L 1275 0 
L 697 0 
L 697 3053 
L 147 3053 
L 147 3500 
L 697 3500 
L 697 3744 
Q 697 4328 969 4595 
Q 1241 4863 1831 4863 
L 2375 4863 
z
" transform="scale(0.015625)"/>
       <path id="DejaVuSans-74" d="M 1172 4494 
L 1172 3500 
L 2356 3500 
L 2356 3053 
L 1172 3053 
L 1172 1153 
Q 1172 725 1289 603 
Q 1406 481 1766 481 
L 2356 481 
L 2356 0 
L 1766 0 
Q 1100 0 847 248 
Q 594 497 594 1153 
L 594 3053 
L 172 3053 
L 172 3500 
L 594 3500 
L 594 4494 
L 1172 4494 
z
" transform="scale(0.015625)"/>
       <path id="DejaVuSans-25" d="M 4653 2053 
Q 4381 2053 4226 1822 
Q 4072 1591 4072 1178 
Q 4072 772 4226 539 
Q 4381 306 4653 306 
Q 4919 306 5073 539 
Q 5228 772 5228 1178 
Q 5228 1588 5073 1820 
Q 4919 2053 4653 2053 
z
M 4653 2450 
Q 5147 2450 5437 2106 
Q 5728 1763 5728 1178 
Q 5728 594 5436 251 
Q 5144 -91 4653 -91 
Q 4153 -91 3862 251 
Q 3572 594 3572 1178 
Q 3572 1766 3864 2108 
Q 4156 2450 4653 2450 
z
M 1428 4353 
Q 1159 4353 1004 4120 
Q 850 3888 850 3481 
Q 850 3069 1003 2837 
Q 1156 2606 1428 2606 
Q 1700 2606 1854 2837 
Q 2009 3069 2009 3481 
Q 2009 3884 1853 4118 
Q 1697 4353 1428 4353 
z
M 4250 4750 
L 4750 4750 
L 1831 -91 
L 1331 -91 
L 4250 4750 
z
M 1428 4750 
Q 1922 4750 2215 4408 
Q 2509 4066 2509 3481 
Q 2509 2891 2217 2550 
Q 1925 2209 1428 2209 
Q 931 2209 642 2551 
Q 353 2894 353 3481 
Q 353 4063 643 4406 
Q 934 4750 1428 4750 
z
" transform="scale(0.015625)"/>
      </defs>
      <use xlink:href="#DejaVuSans-54"/>
      <use xlink:href="#DejaVuSans-61" x="44.583984"/>
      <use xlink:href="#DejaVuSans-75" x="105.863281"/>
      <use xlink:href="#DejaVuSans-78" x="169.242188"/>
      <use xlink:href="#DejaVuSans-20" x="228.421875"/>
      <use xlink:href="#DejaVuSans-64" x="260.208984"/>
      <use xlink:href="#DejaVuSans-65" x="323.685547"/>
      <use xlink:href="#DejaVuSans-20" x="385.208984"/>
      <use xlink:href="#DejaVuSans-62" x="416.996094"/>
      <use xlink:href="#DejaVuSans-6f" x="480.472656"/>
      <use xlink:href="#DejaVuSans-6e" x="541.654297"/>
      <use xlink:href="#DejaVuSans-6e" x="605.033203"/>
      <use xlink:href="#DejaVuSans-65" x="668.412109"/>
      <use xlink:href="#DejaVuSans-73" x="729.935547"/>
      <use xlink:href="#DejaVuSans-20" x="782.035156"/>
      <use xlink:href="#DejaVuSans-63" x="813.822266"/>
      <use xlink:href="#DejaVuSans-6c" x="868.802734"/>
      <use xlink:href="#DejaVuSans-61" x="896.585938"/>
      <use xlink:href="#DejaVuSans-73" x="957.865234"/>
      <use xlink:href="#DejaVuSans-73" x="1009.964844"/>
      <use xlink:href="#DejaVuSans-69" x="1062.064453"/>
      <use xlink:href="#DejaVuSans-66" x="1089.847656"/>
      <use xlink:href="#DejaVuSans-69" x="1125.052734"/>
      <use xlink:href="#DejaVuSans-63" x="1152.835938"/>
      <use xlink:href="#DejaVuSans-61" x="1207.816406"/>
      <use xlink:href="#DejaVuSans-74" x="1269.095703"/>
      <use xlink:href="#DejaVuSans-69" x="1308.304688"/>
      <use xlink:href="#DejaVuSans-6f" x="1336.087891"/>
      <use xlink:href="#DejaVuSans-6e" x="1397.269531"/>
      <use xlink:href="#DejaVuSans-73" x="1460.648438"/>
      <use xlink:href="#DejaVuSans-20" x="1512.748047"/>
      <use xlink:href="#DejaVuSans-65" x="1544.535156"/>
      <use xlink:href="#DejaVuSans-6e" x="1606.058594"/>
      <use xlink:href="#DejaVuSans-20" x="1669.4375"/>
      <use xlink:href="#DejaVuSans-25" x="1701.224609"/>
     </g>
    </g>
   </g>
   <g id="patch_3">
    <path d="M 57.6 307.584 
L 57.6 41.472 
" style="fill: none; stroke: #000000; stroke-width: 0.8; stroke-linejoin: miter; stroke-linecap: square"/>
   </g>
   <g id="patch_4">
    <path d="M 414.72 307.584 
L 414.72 41.472 
" style="fill: none; stroke: #000000; stroke-width: 0.8; stroke-linejoin: miter; stroke-linecap: square"/>
   </g>
   <g id="patch_5">
    <path d="M 57.6 307.584 
L 414.72 307.584 
" style="fill: none; stroke: #000000; stroke-width: 0.8; stroke-linejoin: miter; stroke-linecap: square"/>
   </g>
   <g id="patch_6">
    <path d="M 57.6 41.472 
L 414.72 41.472 
" style="fill: none; stroke: #000000; stroke-width: 0.8; stroke-linejoin: miter; stroke-linecap: square"/>
   </g>
   <g id="line2d_21">
    <path d="M 73.832727 281.512616 
L 77.480531 136.38814 
L 81.128335 108.623268 
L 84.776139 96.74651 
L 88.423943 92.141262 
L 92.071747 88.795995 
L 95.719551 87.420201 
L 99.367354 85.937485 
L 103.015158 85.148595 
L 106.662962 84.014803 
L 110.310766 83.836954 
L 113.95857 82.690458 
L 117.606374 82.586713 
L 121.254178 81.839744 
L 124.901982 81.684126 
L 128.549785 80.896718 
L 132.197589 81.111831 
L 135.845393 80.118625 
L 139.493197 80.359993 
L 143.141001 79.669343 
L 146.788805 79.73392 
L 150.436609 79.145322 
L 154.084413 79.250338 
L 157.732217 78.545714 
L 161.38002 78.783694 
L 165.027824 77.892752 
L 168.675628 78.311757 
L 172.323432 77.594642 
L 175.971236 77.833892 
L 179.61904 77.117201 
L 183.266844 70.711013 
L 186.914648 61.919947 
L 190.562451 59.31445 
L 194.210255 58.105707 
L 197.858059 57.449992 
L 201.505863 57.05216 
L 205.153667 56.782421 
L 208.801471 56.578105 
L 212.449275 56.419523 
L 216.097079 56.277031 
L 219.744883 56.170745 
L 223.392686 56.073775 
L 227.04049 55.986544 
L 230.688294 55.906723 
L 234.336098 55.849134 
L 237.983902 55.778205 
L 241.631706 55.717652 
L 245.27951 55.653287 
L 248.927314 55.582359 
L 252.575117 55.531757 
L 256.222921 55.487718 
L 259.870725 55.436692 
L 263.518529 55.374656 
L 267.166333 55.320243 
L 270.814137 55.272393 
L 274.461941 55.228565 
L 278.109745 55.183044 
L 281.757549 55.153614 
L 285.405352 55.107035 
L 289.053156 55.062784 
L 292.70096 53.800051 
L 296.348764 53.77782 
L 299.996568 53.760035 
L 303.644372 53.742674 
L 307.292176 53.729759 
L 310.93998 53.718749 
L 314.587783 53.713032 
L 318.235587 53.700964 
L 321.883391 53.690589 
L 325.531195 53.677674 
L 329.178999 53.670052 
L 332.826803 53.665817 
L 336.474607 53.659677 
L 340.122411 53.649303 
L 343.770215 53.641257 
L 347.418018 53.634694 
L 351.065822 53.625801 
L 354.713626 53.620931 
L 358.36143 53.617332 
L 362.009234 53.609075 
L 365.657038 53.608651 
L 369.304842 53.602088 
L 372.952646 53.598277 
L 376.600449 53.590443 
L 380.248253 53.586632 
L 383.896057 53.584938 
L 387.543861 53.581127 
L 391.191665 53.576681 
L 394.839469 53.571176 
L 398.487273 53.568 
" clip-path="url(#p5c941a75bc)" style="fill: none; stroke-dasharray: 5.55,2.4; stroke-dashoffset: 0; stroke: #000000; stroke-width: 1.5"/>
   </g>
   <g id="legend_1">
    <g id="patch_7">
     <path d="M 322.2875 303.584 
L 409.12 303.584 
Q 410.72 303.584 410.72 301.984 
L 410.72 173.6165 
Q 410.72 172.0165 409.12 172.0165 
L 322.2875 172.0165 
Q 320.6875 172.0165 320.6875 173.6165 
L 320.6875 301.984 
Q 320.6875 303.584 322.2875 303.584 
z
" style="fill: #ffffff; opacity: 0.8; stroke: #cccccc; stroke-linejoin: miter"/>
    </g>
    <g id="line2d_22">
     <path d="M 323.8875 178.49525 
L 331.8875 178.49525 
L 339.8875 178.49525 
" style="fill: none; stroke-dasharray: 5.55,2.4; stroke-dashoffset: 0; stroke: #000000; stroke-width: 1.5"/>
    </g>
    <g id="text_13">
     <!-- λ = 0.000e+00 -->
     <g transform="translate(346.2875 181.29525) scale(0.08 -0.08)">
      <defs>
       <path id="DejaVuSans-3bb" d="M 1981 4316 
L 3597 0 
L 2988 0 
L 2006 2588 
L 800 0 
L 191 0 
L 1725 3356 
L 1494 3975 
Q 1347 4369 1013 4369 
L 713 4369 
L 713 4863 
L 1078 4856 
Q 1784 4847 1981 4316 
z
" transform="scale(0.015625)"/>
       <path id="DejaVuSans-3d" d="M 678 2906 
L 4684 2906 
L 4684 2381 
L 678 2381 
L 678 2906 
z
M 678 1631 
L 4684 1631 
L 4684 1100 
L 678 1100 
L 678 1631 
z
" transform="scale(0.015625)"/>
       <path id="DejaVuSans-2e" d="M 684 794 
L 1344 794 
L 1344 0 
L 684 0 
L 684 794 
z
" transform="scale(0.015625)"/>
       <path id="DejaVuSans-2b" d="M 2944 4013 
L 2944 2272 
L 4684 2272 
L 4684 1741 
L 2944 1741 
L 2944 0 
L 2419 0 
L 2419 1741 
L 678 1741 
L 678 2272 
L 2419 2272 
L 2419 4013 
L 2944 4013 
z
" transform="scale(0.015625)"/>
      </defs>
      <use xlink:href="#DejaVuSans-3bb"/>
      <use xlink:href="#DejaVuSans-20" x="59.179688"/>
      <use xlink:href="#DejaVuSans-3d" x="90.966797"/>
      <use xlink:href="#DejaVuSans-20" x="174.755859"/>
      <use xlink:href="#DejaVuSans-30" x="206.542969"/>
      <use xlink:href="#DejaVuSans-2e" x="270.166016"/>
      <use xlink:href="#DejaVuSans-30" x="301.953125"/>
      <use xlink:href="#DejaVuSans-30" x="365.576172"/>
      <use xlink:href="#DejaVuSans-30" x="429.199219"/>
      <use xlink:href="#DejaVuSans-65" x="492.822266"/>
      <use xlink:href="#DejaVuSans-2b" x="554.345703"/>
      <use xlink:href="#DejaVuSans-30" x="638.134766"/>
      <use xlink:href="#DejaVuSans-30" x="701.757812"/>
     </g>
    </g>
    <g id="line2d_23">
     <path d="M 323.8875 190.23775 
L 331.8875 190.23775 
L 339.8875 190.23775 
" style="fill: none; stroke: #1f77b4; stroke-width: 1.5; stroke-linecap: square"/>
    </g>
    <g id="text_14">
     <!-- λ = 1.000e-07 -->
     <g transform="translate(346.2875 193.03775) scale(0.08 -0.08)">
      <defs>
       <path id="DejaVuSans-31" d="M 794 531 
L 1825 531 
L 1825 4091 
L 703 3866 
L 703 4441 
L 1819 4666 
L 2450 4666 
L 2450 531 
L 3481 531 
L 3481 0 
L 794 0 
L 794 531 
z
" transform="scale(0.015625)"/>
       <path id="DejaVuSans-2d" d="M 313 2009 
L 1997 2009 
L 1997 1497 
L 313 1497 
L 313 2009 
z
" transform="scale(0.015625)"/>
       <path id="DejaVuSans-37" d="M 525 4666 
L 3525 4666 
L 3525 4397 
L 1831 0 
L 1172 0 
L 2766 4134 
L 525 4134 
L 525 4666 
z
" transform="scale(0.015625)"/>
      </defs>
      <use xlink:href="#DejaVuSans-3bb"/>
      <use xlink:href="#DejaVuSans-20" x="59.179688"/>
      <use xlink:href="#DejaVuSans-3d" x="90.966797"/>
      <use xlink:href="#DejaVuSans-20" x="174.755859"/>
      <use xlink:href="#DejaVuSans-31" x="206.542969"/>
      <use xlink:href="#DejaVuSans-2e" x="270.166016"/>
      <use xlink:href="#DejaVuSans-30" x="301.953125"/>
      <use xlink:href="#DejaVuSans-30" x="365.576172"/>
      <use xlink:href="#DejaVuSans-30" x="429.199219"/>
      <use xlink:href="#DejaVuSans-65" x="492.822266"/>
      <use xlink:href="#DejaVuSans-2d" x="554.345703"/>
      <use xlink:href="#DejaVuSans-30" x="590.429688"/>
      <use xlink:href="#DejaVuSans-37" x="654.052734"/>
     </g>
    </g>
    <g id="line2d_24">
     <path d="M 323.8875 201.98025 
L 331.8875 201.98025 
L 339.8875 201.98025 
" style="fill: none; stroke: #ff7f0e; stroke-width: 1.5; stroke-linecap: square"/>
    </g>
    <g id="text_15">
     <!-- λ = 1.000e-06 -->
     <g transform="translate(346.2875 204.78025) scale(0.08 -0.08)">
      <use xlink:href="#DejaVuSans-3bb"/>
      <use xlink:href="#DejaVuSans-20" x="59.179688"/>
      <use xlink:href="#DejaVuSans-3d" x="90.966797"/>
      <use xlink:href="#DejaVuSans-20" x="174.755859"/>
      <use xlink:href="#DejaVuSans-31" x="206.542969"/>
      <use xlink:href="#DejaVuSans-2e" x="270.166016"/>
      <use xlink:href="#DejaVuSans-30" x="301.953125"/>
      <use xlink:href="#DejaVuSans-30" x="365.576172"/>
      <use xlink:href="#DejaVuSans-30" x="429.199219"/>
      <use xlink:href="#DejaVuSans-65" x="492.822266"/>
      <use xlink:href="#DejaVuSans-2d" x="554.345703"/>
      <use xlink:href="#DejaVuSans-30" x="590.429688"/>
      <use xlink:href="#DejaVuSans-36" x="654.052734"/>
     </g>
    </g>
    <g id="line2d_25">
     <path d="M 323.8875 213.72275 
L 331.8875 213.72275 
L 339.8875 213.72275 
" style="fill: none; stroke: #2ca02c; stroke-width: 1.5; stroke-linecap: square"/>
    </g>
    <g id="text_16">
     <!-- λ = 3.162e-06 -->
     <g transform="translate(346.2875 216.52275) scale(0.08 -0.08)">
      <defs>
       <path id="DejaVuSans-33" d="M 2597 2516 
Q 3050 2419 3304 2112 
Q 3559 1806 3559 1356 
Q 3559 666 3084 287 
Q 2609 -91 1734 -91 
Q 1441 -91 1130 -33 
Q 819 25 488 141 
L 488 750 
Q 750 597 1062 519 
Q 1375 441 1716 441 
Q 2309 441 2620 675 
Q 2931 909 2931 1356 
Q 2931 1769 2642 2001 
Q 2353 2234 1838 2234 
L 1294 2234 
L 1294 2753 
L 1863 2753 
Q 2328 2753 2575 2939 
Q 2822 3125 2822 3475 
Q 2822 3834 2567 4026 
Q 2313 4219 1838 4219 
Q 1578 4219 1281 4162 
Q 984 4106 628 3988 
L 628 4550 
Q 988 4650 1302 4700 
Q 1616 4750 1894 4750 
Q 2613 4750 3031 4423 
Q 3450 4097 3450 3541 
Q 3450 3153 3228 2886 
Q 3006 2619 2597 2516 
z
" transform="scale(0.015625)"/>
      </defs>
      <use xlink:href="#DejaVuSans-3bb"/>
      <use xlink:href="#DejaVuSans-20" x="59.179688"/>
      <use xlink:href="#DejaVuSans-3d" x="90.966797"/>
      <use xlink:href="#DejaVuSans-20" x="174.755859"/>
      <use xlink:href="#DejaVuSans-33" x="206.542969"/>
      <use xlink:href="#DejaVuSans-2e" x="270.166016"/>
      <use xlink:href="#DejaVuSans-31" x="301.953125"/>
      <use xlink:href="#DejaVuSans-36" x="365.576172"/>
      <use xlink:href="#DejaVuSans-32" x="429.199219"/>
      <use xlink:href="#DejaVuSans-65" x="492.822266"/>
      <use xlink:href="#DejaVuSans-2d" x="554.345703"/>
      <use xlink:href="#DejaVuSans-30" x="590.429688"/>
      <use xlink:href="#DejaVuSans-36" x="654.052734"/>
     </g>
    </g>
    <g id="line2d_26">
     <path d="M 323.8875 225.46525 
L 331.8875 225.46525 
L 339.8875 225.46525 
" style="fill: none; stroke: #d62728; stroke-width: 1.5; stroke-linecap: square"/>
    </g>
    <g id="text_17">
     <!-- λ = 1.000e-05 -->
     <g transform="translate(346.2875 228.26525) scale(0.08 -0.08)">
      <defs>
       <path id="DejaVuSans-35" d="M 691 4666 
L 3169 4666 
L 3169 4134 
L 1269 4134 
L 1269 2991 
Q 1406 3038 1543 3061 
Q 1681 3084 1819 3084 
Q 2600 3084 3056 2656 
Q 3513 2228 3513 1497 
Q 3513 744 3044 326 
Q 2575 -91 1722 -91 
Q 1428 -91 1123 -41 
Q 819 9 494 109 
L 494 744 
Q 775 591 1075 516 
Q 1375 441 1709 441 
Q 2250 441 2565 725 
Q 2881 1009 2881 1497 
Q 2881 1984 2565 2268 
Q 2250 2553 1709 2553 
Q 1456 2553 1204 2497 
Q 953 2441 691 2322 
L 691 4666 
z
" transform="scale(0.015625)"/>
      </defs>
      <use xlink:href="#DejaVuSans-3bb"/>
      <use xlink:href="#DejaVuSans-20" x="59.179688"/>
      <use xlink:href="#DejaVuSans-3d" x="90.966797"/>
      <use xlink:href="#DejaVuSans-20" x="174.755859"/>
      <use xlink:href="#DejaVuSans-31" x="206.542969"/>
      <use xlink:href="#DejaVuSans-2e" x="270.166016"/>
      <use xlink:href="#DejaVuSans-30" x="301.953125"/>
      <use xlink:href="#DejaVuSans-30" x="365.576172"/>
      <use xlink:href="#DejaVuSans-30" x="429.199219"/>
      <use xlink:href="#DejaVuSans-65" x="492.822266"/>
      <use xlink:href="#DejaVuSans-2d" x="554.345703"/>
      <use xlink:href="#DejaVuSans-30" x="590.429688"/>
      <use xlink:href="#DejaVuSans-35" x="654.052734"/>
     </g>
    </g>
    <g id="line2d_27">
     <path d="M 323.8875 237.20775 
L 331.8875 237.20775 
L 339.8875 237.20775 
" style="fill: none; stroke: #9467bd; stroke-width: 1.5; stroke-linecap: square"/>
    </g>
    <g id="text_18">
     <!-- λ = 3.162e-05 -->
     <g transform="translate(346.2875 240.00775) scale(0.08 -0.08)">
      <use xlink:href="#DejaVuSans-3bb"/>
      <use xlink:href="#DejaVuSans-20" x="59.179688"/>
      <use xlink:href="#DejaVuSans-3d" x="90.966797"/>
      <use xlink:href="#DejaVuSans-20" x="174.755859"/>
      <use xlink:href="#DejaVuSans-33" x="206.542969"/>
      <use xlink:href="#DejaVuSans-2e" x="270.166016"/>
      <use xlink:href="#DejaVuSans-31" x="301.953125"/>
      <use xlink:href="#DejaVuSans-36" x="365.576172"/>
      <use xlink:href="#DejaVuSans-32" x="429.199219"/>
      <use xlink:href="#DejaVuSans-65" x="492.822266"/>
      <use xlink:href="#DejaVuSans-2d" x="554.345703"/>
      <use xlink:href="#DejaVuSans-30" x="590.429688"/>
      <use xlink:href="#DejaVuSans-35" x="654.052734"/>
     </g>
    </g>
    <g id="line2d_28">
     <path d="M 323.8875 248.95025 
L 331.8875 248.95025 
L 339.8875 248.95025 
" style="fill: none; stroke: #8c564b; stroke-width: 1.5; stroke-linecap: square"/>
    </g>
    <g id="text_19">
     <!-- λ = 1.000e-04 -->
     <g transform="translate(346.2875 251.75025) scale(0.08 -0.08)">
      <use xlink:href="#DejaVuSans-3bb"/>
      <use xlink:href="#DejaVuSans-20" x="59.179688"/>
      <use xlink:href="#DejaVuSans-3d" x="90.966797"/>
      <use xlink:href="#DejaVuSans-20" x="174.755859"/>
      <use xlink:href="#DejaVuSans-31" x="206.542969"/>
      <use xlink:href="#DejaVuSans-2e" x="270.166016"/>
      <use xlink:href="#DejaVuSans-30" x="301.953125"/>
      <use xlink:href="#DejaVuSans-30" x="365.576172"/>
      <use xlink:href="#DejaVuSans-30" x="429.199219"/>
      <use xlink:href="#DejaVuSans-65" x="492.822266"/>
      <use xlink:href="#DejaVuSans-2d" x="554.345703"/>
      <use xlink:href="#DejaVuSans-30" x="590.429688"/>
      <use xlink:href="#DejaVuSans-34" x="654.052734"/>
     </g>
    </g>
    <g id="line2d_29">
     <path d="M 323.8875 260.69275 
L 331.8875 260.69275 
L 339.8875 260.69275 
" style="fill: none; stroke: #e377c2; stroke-width: 1.5; stroke-linecap: square"/>
    </g>
    <g id="text_20">
     <!-- λ = 3.162e-04 -->
     <g transform="translate(346.2875 263.49275) scale(0.08 -0.08)">
      <use xlink:href="#DejaVuSans-3bb"/>
      <use xlink:href="#DejaVuSans-20" x="59.179688"/>
      <use xlink:href="#DejaVuSans-3d" x="90.966797"/>
      <use xlink:href="#DejaVuSans-20" x="174.755859"/>
      <use xlink:href="#DejaVuSans-33" x="206.542969"/>
      <use xlink:href="#DejaVuSans-2e" x="270.166016"/>
      <use xlink:href="#DejaVuSans-31" x="301.953125"/>
      <use xlink:href="#DejaVuSans-36" x="365.576172"/>
      <use xlink:href="#DejaVuSans-32" x="429.199219"/>
      <use xlink:href="#DejaVuSans-65" x="492.822266"/>
      <use xlink:href="#DejaVuSans-2d" x="554.345703"/>
      <use xlink:href="#DejaVuSans-30" x="590.429688"/>
      <use xlink:href="#DejaVuSans-34" x="654.052734"/>
     </g>
    </g>
    <g id="line2d_30">
     <path d="M 323.8875 272.43525 
L 331.8875 272.43525 
L 339.8875 272.43525 
" style="fill: none; stroke: #7f7f7f; stroke-width: 1.5; stroke-linecap: square"/>
    </g>
    <g id="text_21">
     <!-- λ = 1.000e-03 -->
     <g transform="translate(346.2875 275.23525) scale(0.08 -0.08)">
      <use xlink:href="#DejaVuSans-3bb"/>
      <use xlink:href="#DejaVuSans-20" x="59.179688"/>
      <use xlink:href="#DejaVuSans-3d" x="90.966797"/>
      <use xlink:href="#DejaVuSans-20" x="174.755859"/>
      <use xlink:href="#DejaVuSans-31" x="206.542969"/>
      <use xlink:href="#DejaVuSans-2e" x="270.166016"/>
      <use xlink:href="#DejaVuSans-30" x="301.953125"/>
      <use xlink:href="#DejaVuSans-30" x="365.576172"/>
      <use xlink:href="#DejaVuSans-30" x="429.199219"/>
      <use xlink:href="#DejaVuSans-65" x="492.822266"/>
      <use xlink:href="#DejaVuSans-2d" x="554.345703"/>
      <use xlink:href="#DejaVuSans-30" x="590.429688"/>
      <use xlink:href="#DejaVuSans-33" x="654.052734"/>
     </g>
    </g>
    <g id="line2d_31">
     <path d="M 323.8875 284.17775 
L 331.8875 284.17775 
L 339.8875 284.17775 
" style="fill: none; stroke: #bcbd22; stroke-width: 1.5; stroke-linecap: square"/>
    </g>
    <g id="text_22">
     <!-- λ = 3.162e-03 -->
     <g transform="translate(346.2875 286.97775) scale(0.08 -0.08)">
      <use xlink:href="#DejaVuSans-3bb"/>
      <use xlink:href="#DejaVuSans-20" x="59.179688"/>
      <use xlink:href="#DejaVuSans-3d" x="90.966797"/>
      <use xlink:href="#DejaVuSans-20" x="174.755859"/>
      <use xlink:href="#DejaVuSans-33" x="206.542969"/>
      <use xlink:href="#DejaVuSans-2e" x="270.166016"/>
      <use xlink:href="#DejaVuSans-31" x="301.953125"/>
      <use xlink:href="#DejaVuSans-36" x="365.576172"/>
      <use xlink:href="#DejaVuSans-32" x="429.199219"/>
      <use xlink:href="#DejaVuSans-65" x="492.822266"/>
      <use xlink:href="#DejaVuSans-2d" x="554.345703"/>
      <use xlink:href="#DejaVuSans-30" x="590.429688"/>
      <use xlink:href="#DejaVuSans-33" x="654.052734"/>
     </g>
    </g>
    <g id="line2d_32">
     <path d="M 323.8875 295.92025 
L 331.8875 295.92025 
L 339.8875 295.92025 
" style="fill: none; stroke: #17becf; stroke-width: 1.5; stroke-linecap: square"/>
    </g>
    <g id="text_23">
     <!-- λ = 1.000e-02 -->
     <g transform="translate(346.2875 298.72025) scale(0.08 -0.08)">
      <use xlink:href="#DejaVuSans-3bb"/>
      <use xlink:href="#DejaVuSans-20" x="59.179688"/>
      <use xlink:href="#DejaVuSans-3d" x="90.966797"/>
      <use xlink:href="#DejaVuSans-20" x="174.755859"/>
      <use xlink:href="#DejaVuSans-31" x="206.542969"/>
      <use xlink:href="#DejaVuSans-2e" x="270.166016"/>
      <use xlink:href="#DejaVuSans-30" x="301.953125"/>
      <use xlink:href="#DejaVuSans-30" x="365.576172"/>
      <use xlink:href="#DejaVuSans-30" x="429.199219"/>
      <use xlink:href="#DejaVuSans-65" x="492.822266"/>
      <use xlink:href="#DejaVuSans-2d" x="554.345703"/>
      <use xlink:href="#DejaVuSans-30" x="590.429688"/>
      <use xlink:href="#DejaVuSans-32" x="654.052734"/>
     </g>
    </g>
   </g>
  </g>
 </g>
 <defs>
  <clipPath id="p5c941a75bc">
   <rect x="57.6" y="41.472" width="357.12" height="266.112"/>
  </clipPath>
 </defs>
</svg>
